<svg width="1287" height="652" viewBox="0 0 1287 652" fill="none" xmlns="http://www.w3.org/2000/svg">
<path opacity="0.7" d="M491.058 543.431H802.006M0.607881 15.276L0.607851 651.908M42.0676 15.276L42.0676 651.908M83.5273 15.276L83.5273 651.908M124.987 15.276L124.987 651.908M166.447 15.276L166.447 651.908M207.907 15.276L207.907 651.908M249.366 15.276L249.366 651.908M290.826 15.276L290.826 651.908M332.286 15.276L332.286 651.908M0.136719 626.567H1285.39M373.746 15.276L373.746 651.908M0.136719 587.444H1285.39M415.205 15.276L415.205 651.908M0.136719 548.322H1285.39M456.665 15.276V651.908M0.136719 509.199H1285.39M498.125 15.276L498.125 651.908M0.136719 470.076H1285.39M539.585 15.276L539.584 651.908M0.136719 430.954H1285.39M581.044 15.276L581.044 651.908M0.136719 391.831H1285.39M622.504 15.276L622.504 651.908M0.136719 352.709H1285.39M663.964 15.276L663.964 651.908M0.136719 313.586H1285.39M705.423 15.276L705.423 651.908M0.136719 274.463H1285.39M746.883 15.276L746.883 651.908M0.136719 235.341H1285.39M788.343 15.276L788.343 651.908M0.136719 196.218H1285.39M829.803 15.276L829.803 651.908M0.136719 157.095H1285.39M871.262 15.276L871.262 651.908M0.136719 117.973H1285.39M912.722 15.276L912.722 651.908M0.136719 78.8502H1285.39M954.182 15.276L954.182 651.908M0.136719 39.7276H1285.39M995.642 15.276V651.908M0.136719 0.60498L1285.39 0.60498M1037.1 15.276V651.908M1078.56 15.276V651.908M1120.02 15.276V651.908M1161.48 15.276V651.908M1202.94 15.276V651.908M1244.4 15.276V651.908M1285.86 15.276V651.908" stroke="url(#paint0_radial_655_14242)"/>
<defs>
<radialGradient id="paint0_radial_655_14242" cx="0" cy="0" r="1" gradientUnits="userSpaceOnUse" gradientTransform="translate(642.998 287.605) rotate(90) scale(364.303 719.163)">
<stop stop-color="white" stop-opacity="0.2"/>
<stop offset="0.6" stop-color="white" stop-opacity="0.05"/>
</radialGradient>
</defs>
</svg>
