<svg width="319" height="457" viewBox="0 0 319 457" fill="none" xmlns="http://www.w3.org/2000/svg">
<mask id="mask0_932_669" style="mask-type:luminance" maskUnits="userSpaceOnUse" x="1" y="1" width="318" height="456">
<path d="M300.356 1H19.2118C9.15369 1 1 9.15369 1 19.2118V438.083C1 448.141 9.15369 456.294 19.2118 456.294H300.356C310.414 456.294 318.568 448.141 318.568 438.083V19.2118C318.568 9.15369 310.414 1 300.356 1Z" fill="white"/>
</mask>
<g mask="url(#mask0_932_669)">
<path d="M300.356 1H19.2118C9.15369 1 1 9.15369 1 19.2118V438.083C1 448.141 9.15369 456.294 19.2118 456.294H300.356C310.414 456.294 318.568 448.141 318.568 438.083V19.2118C318.568 9.15369 310.414 1 300.356 1Z" fill="url(#paint0_radial_932_669)" fill-opacity="0.6"/>
<path d="M300.356 1H19.2118C9.15369 1 1 9.15369 1 19.2118V438.083C1 448.141 9.15369 456.294 19.2118 456.294H300.356C310.414 456.294 318.568 448.141 318.568 438.083V19.2118C318.568 9.15369 310.414 1 300.356 1Z" fill="url(#paint1_radial_932_669)" fill-opacity="0.08"/>
<path d="M318.568 1H1V456.294H318.568V1Z" fill="url(#paint2_radial_932_669)"/>
<mask id="mask1_932_669" style="mask-type:luminance" maskUnits="userSpaceOnUse" x="14" y="14" width="289" height="156">
<path d="M288.975 14.6589H28.319C20.7754 14.6589 14.6602 20.7742 14.6602 28.3178V155.8C14.6602 163.344 20.7754 169.459 28.319 169.459H288.975C296.519 169.459 302.634 163.344 302.634 155.8V28.3178C302.634 20.7742 296.519 14.6589 288.975 14.6589Z" fill="white"/>
</mask>
<g mask="url(#mask1_932_669)">
<path d="M288.975 14.6589H28.319C20.7754 14.6589 14.6602 20.7742 14.6602 28.3178V155.8C14.6602 163.344 20.7754 169.459 28.319 169.459H288.975C296.519 169.459 302.634 163.344 302.634 155.8V28.3178C302.634 20.7742 296.519 14.6589 288.975 14.6589Z" fill="#1B1B1B"/>
<path fill-rule="evenodd" clip-rule="evenodd" d="M22.5659 97.001C23.0417 97.001 23.4287 97.387 23.4287 97.8638C23.4287 98.34 23.0429 98.7267 22.5659 98.7267C22.089 98.7267 21.7031 98.34 21.7031 97.8638C21.7031 97.387 22.089 97.001 22.5659 97.001Z" fill="#888888" fill-opacity="0.57"/>
<path fill-rule="evenodd" clip-rule="evenodd" d="M22.5659 91.8589C23.0417 91.8589 23.4287 92.245 23.4287 92.7217C23.4287 93.198 23.0429 93.5847 22.5659 93.5847C22.089 93.5847 21.7031 93.198 21.7031 92.7217C21.7031 92.245 22.089 91.8589 22.5659 91.8589Z" fill="#888888" fill-opacity="0.57"/>
<path fill-rule="evenodd" clip-rule="evenodd" d="M22.5659 86.7202C23.0417 86.7202 23.4287 87.1063 23.4287 87.583C23.4287 88.0592 23.0429 88.4459 22.5659 88.4459C22.089 88.4459 21.7031 88.0592 21.7031 87.583C21.7031 87.1062 22.089 86.7202 22.5659 86.7202Z" fill="#888888" fill-opacity="0.57"/>
<path fill-rule="evenodd" clip-rule="evenodd" d="M28.0972 97.001C28.573 97.001 28.9599 97.387 28.9599 97.8638C28.9599 98.34 28.5741 98.7267 28.0972 98.7267C27.6202 98.7267 27.2344 98.34 27.2344 97.8638C27.2344 97.387 27.6202 97.001 28.0972 97.001Z" fill="#888888" fill-opacity="0.57"/>
<path fill-rule="evenodd" clip-rule="evenodd" d="M28.0972 91.8589C28.573 91.8589 28.9599 92.245 28.9599 92.7217C28.9599 93.198 28.5741 93.5847 28.0972 93.5847C27.6202 93.5847 27.2344 93.198 27.2344 92.7217C27.2344 92.245 27.6202 91.8589 28.0972 91.8589Z" fill="#888888" fill-opacity="0.57"/>
<path fill-rule="evenodd" clip-rule="evenodd" d="M28.0972 86.7202C28.573 86.7202 28.9599 87.1063 28.9599 87.583C28.9599 88.0592 28.5741 88.4459 28.0972 88.4459C27.6202 88.4459 27.2344 88.0592 27.2344 87.583C27.2344 87.1062 27.6202 86.7202 28.0972 86.7202Z" fill="#888888" fill-opacity="0.57"/>
<path d="M36.8574 169.459V14.6589" stroke="#252527" stroke-width="1.25087"/>
<path d="M279.972 85.7942H60.1921C55.1607 85.7942 51.082 93.8531 51.082 103.794V139.794C51.082 149.735 55.1607 157.794 60.1921 157.794H279.972C285.003 157.794 289.082 149.735 289.082 139.794V103.794C289.082 93.8531 285.003 85.7942 279.972 85.7942Z" fill="white" fill-opacity="0.03"/>
</g>
<path d="M288.975 14.6589H28.319C20.7754 14.6589 14.6602 20.7742 14.6602 28.3178V155.8C14.6602 163.344 20.7754 169.459 28.319 169.459H288.975C296.519 169.459 302.634 163.344 302.634 155.8V28.3178C302.634 20.7742 296.519 14.6589 288.975 14.6589Z" stroke="#252527" stroke-width="1.25087" stroke-linecap="round"/>
<path d="M15.7988 200.76H301.496" stroke="#252527" stroke-width="1.25087"/>
<path d="M172.306 201.33C172.306 193.786 166.191 187.671 158.647 187.671C151.104 187.671 144.988 193.786 144.988 201.33C144.988 208.873 151.104 214.989 158.647 214.989C166.191 214.989 172.306 208.873 172.306 201.33Z" fill="#252527"/>
<path d="M172.306 201.33C172.306 193.786 166.191 187.671 158.647 187.671C151.104 187.671 144.988 193.786 144.988 201.33C144.988 208.873 151.104 214.989 158.647 214.989C166.191 214.989 172.306 208.873 172.306 201.33Z" fill="url(#paint3_linear_932_669)" fill-opacity="0.08"/>
<path d="M158.648 195.259V201.329M158.648 201.329V207.4M158.648 201.329H152.578M158.648 201.329H164.719" stroke="white" stroke-opacity="0.48" stroke-width="1.87631" stroke-linecap="round"/>
<mask id="mask2_932_669" style="mask-type:luminance" maskUnits="userSpaceOnUse" x="14" y="233" width="289" height="46">
<path d="M293.528 233.2H23.766C18.737 233.2 14.6602 237.277 14.6602 242.306V269.624C14.6602 274.653 18.737 278.73 23.766 278.73H293.528C298.557 278.73 302.634 274.653 302.634 269.624V242.306C302.634 237.277 298.557 233.2 293.528 233.2Z" fill="white"/>
</mask>
<g mask="url(#mask2_932_669)">
<path d="M293.528 233.2H23.766C18.737 233.2 14.6602 237.277 14.6602 242.306V269.624C14.6602 274.653 18.737 278.73 23.766 278.73H293.528C298.557 278.73 302.634 274.653 302.634 269.624V242.306C302.634 237.277 298.557 233.2 293.528 233.2Z" fill="white" fill-opacity="0.03"/>
<g filter="url(#filter0_d_932_669)">
<path d="M59.0513 242.306H37.4246C29.881 242.306 23.7656 248.421 23.7656 255.965C23.7656 263.509 29.881 269.624 37.4246 269.624H59.0513C66.595 269.624 72.7103 263.509 72.7103 255.965C72.7103 248.421 66.595 242.306 59.0513 242.306Z" fill="#252527"/>
<path style="mix-blend-mode:overlay" d="M59.0513 242.306H37.4246C29.881 242.306 23.7656 248.421 23.7656 255.965C23.7656 263.509 29.881 269.624 37.4246 269.624H59.0513C66.595 269.624 72.7103 263.509 72.7103 255.965C72.7103 248.421 66.595 242.306 59.0513 242.306Z" fill="url(#paint4_radial_932_669)" fill-opacity="0.16"/>
<path style="mix-blend-mode:overlay" d="M59.0525 242.875H37.4258C30.1965 242.875 24.3359 248.736 24.3359 255.965C24.3359 263.194 30.1965 269.055 37.4258 269.055H59.0525C66.2818 269.055 72.1424 263.194 72.1424 255.965C72.1424 248.736 66.2818 242.875 59.0525 242.875Z" stroke="url(#paint5_radial_932_669)" stroke-width="1.25087"/>
<path d="M33.4727 251.874V250.585H41.1615V251.874H38.0621V260.518H36.5675V251.874H33.4727ZM44.7379 260.668C44.0037 260.668 43.3708 260.511 42.8416 260.198C42.3134 259.881 41.9071 259.437 41.6191 258.864C41.3345 258.288 41.1922 257.614 41.1922 256.842C41.1922 256.078 41.3345 255.406 41.6191 254.824C41.9071 254.242 42.3077 253.788 42.8222 253.461C43.339 253.134 43.9434 252.97 44.6354 252.97C45.0566 252.97 45.4641 253.04 45.8579 253.18C46.2529 253.319 46.6069 253.536 46.9199 253.834C47.2341 254.131 47.481 254.518 47.662 254.993C47.843 255.465 47.9341 256.039 47.9341 256.715V257.23H42.0118V256.143H46.5124C46.5124 255.761 46.435 255.423 46.2802 255.13C46.1243 254.831 45.9068 254.597 45.6257 254.426C45.3468 254.254 45.0202 254.169 44.6457 254.169C44.2382 254.169 43.8819 254.269 43.578 254.47C43.2775 254.666 43.0453 254.926 42.8803 255.246C42.7186 255.562 42.6378 255.907 42.6378 256.279V257.127C42.6378 257.626 42.7243 258.049 42.8996 258.399C43.0772 258.748 43.3242 259.014 43.6418 259.199C43.9582 259.38 44.3281 259.471 44.7527 259.471C45.027 259.471 45.2774 259.431 45.5039 259.354C45.7304 259.273 45.9262 259.153 46.0913 258.995C46.2563 258.837 46.3815 258.641 46.4692 258.408L47.8419 258.656C47.7315 259.06 47.5345 259.414 47.25 259.718C46.9688 260.018 46.6149 260.253 46.188 260.421C45.7646 260.586 45.2808 260.668 44.7379 260.668ZM50.3779 253.068L52.0227 255.969L53.6811 253.068H55.2667L52.9435 256.793L55.2872 260.518H53.7005L52.0227 257.734L50.3483 260.518H48.7582L51.0768 256.793L48.7866 253.068H50.3779ZM60.0974 253.068V254.232H56.0282V253.068H60.0974ZM57.1197 251.282H58.5699V258.33C58.5699 258.612 58.612 258.823 58.6962 258.966C58.7793 259.106 58.8886 259.2 59.0206 259.252C59.1561 259.3 59.3041 259.325 59.4623 259.325C59.5784 259.325 59.6808 259.317 59.7673 259.3C59.855 259.284 59.9232 259.272 59.971 259.261L60.2329 260.46C60.1498 260.492 60.0291 260.525 59.8743 260.557C59.7195 260.592 59.5248 260.611 59.2926 260.615C58.9113 260.622 58.5551 260.553 58.225 260.411C57.8949 260.269 57.6285 260.049 57.4248 259.752C57.221 259.454 57.1197 259.081 57.1197 258.631V251.282Z" fill="url(#paint6_linear_932_669)"/>
</g>
<g filter="url(#filter1_d_932_669)">
<path d="M117.104 242.306H95.4773C87.9337 242.306 81.8184 248.421 81.8184 255.965C81.8184 263.509 87.9337 269.624 95.4773 269.624H117.104C124.648 269.624 130.763 263.509 130.763 255.965C130.763 248.421 124.648 242.306 117.104 242.306Z" fill="#252527"/>
<path style="mix-blend-mode:overlay" d="M117.104 242.306H95.4773C87.9337 242.306 81.8184 248.421 81.8184 255.965C81.8184 263.509 87.9337 269.624 95.4773 269.624H117.104C124.648 269.624 130.763 263.509 130.763 255.965C130.763 248.421 124.648 242.306 117.104 242.306Z" fill="url(#paint7_radial_932_669)" fill-opacity="0.16"/>
<path style="mix-blend-mode:overlay" d="M117.103 242.875H95.4766C88.2472 242.875 82.3867 248.736 82.3867 255.965C82.3867 263.194 88.2472 269.055 95.4766 269.055H117.103C124.333 269.055 130.193 263.194 130.193 255.965C130.193 248.736 124.333 242.875 117.103 242.875Z" stroke="url(#paint8_radial_932_669)" stroke-width="1.25087"/>
<path d="M92.0156 260.518V250.585H93.5147V259.227H98.0153V260.518H92.0156ZM99.5884 260.518V250.585H101.087V259.227H105.589V260.518H99.5884ZM107.162 250.585H108.981L112.143 258.307H112.259L115.423 250.585H117.241V260.518H115.815V253.33H115.723L112.793 260.503H111.609L108.68 253.324H108.589V260.518H107.162V250.585Z" fill="url(#paint9_linear_932_669)"/>
</g>
<g filter="url(#filter2_d_932_669)">
<path d="M176.289 242.306H153.524C145.981 242.306 139.865 248.421 139.865 255.965C139.865 263.509 145.981 269.624 153.524 269.624H176.289C183.833 269.624 189.948 263.509 189.948 255.965C189.948 248.421 183.833 242.306 176.289 242.306Z" fill="#252527"/>
<path style="mix-blend-mode:overlay" d="M176.289 242.306H153.524C145.981 242.306 139.865 248.421 139.865 255.965C139.865 263.509 145.981 269.624 153.524 269.624H176.289C183.833 269.624 189.948 263.509 189.948 255.965C189.948 248.421 183.833 242.306 176.289 242.306Z" fill="url(#paint10_radial_932_669)" fill-opacity="0.16"/>
<path style="mix-blend-mode:overlay" d="M176.29 242.875H153.525C146.296 242.875 140.436 248.736 140.436 255.965C140.436 263.194 146.296 269.055 153.525 269.055H176.29C183.52 269.055 189.38 263.194 189.38 255.965C189.38 248.736 183.52 242.875 176.29 242.875Z" stroke="url(#paint11_radial_932_669)" stroke-width="1.25087"/>
<path d="M152.008 260.518L149.252 250.585H150.828L152.763 258.277H152.856L154.869 250.585H156.431L158.443 258.283H158.536L160.466 250.585H162.048L159.288 260.518H157.78L155.689 253.077H155.611L153.52 260.518H152.008ZM165.638 260.668C164.905 260.668 164.272 260.511 163.742 260.198C163.215 259.881 162.807 259.437 162.519 258.864C162.235 258.288 162.093 257.614 162.093 256.842C162.093 256.078 162.235 255.406 162.519 254.824C162.807 254.242 163.209 253.788 163.723 253.461C164.24 253.134 164.845 252.97 165.537 252.97C165.957 252.97 166.364 253.04 166.759 253.18C167.153 253.319 167.508 253.536 167.821 253.834C168.135 254.131 168.382 254.518 168.563 254.993C168.744 255.465 168.836 256.039 168.836 256.715V257.23H162.913V256.143H167.414C167.414 255.761 167.336 255.423 167.182 255.13C167.026 254.831 166.807 254.597 166.526 254.426C166.248 254.254 165.922 254.169 165.547 254.169C165.14 254.169 164.783 254.269 164.479 254.47C164.179 254.666 163.946 254.926 163.781 255.246C163.619 255.562 163.538 255.907 163.538 256.279V257.127C163.538 257.626 163.626 258.049 163.8 258.399C163.979 258.748 164.226 259.014 164.542 259.199C164.86 259.38 165.23 259.471 165.653 259.471C165.928 259.471 166.179 259.431 166.405 259.354C166.632 259.273 166.828 259.153 166.992 258.995C167.157 258.837 167.283 258.641 167.371 258.408L168.743 258.656C168.633 259.06 168.436 259.414 168.151 259.718C167.87 260.018 167.516 260.253 167.089 260.421C166.665 260.586 166.182 260.668 165.638 260.668ZM170.425 260.518V250.585H171.875V254.276H171.962C172.045 254.12 172.167 253.941 172.325 253.738C172.484 253.534 172.704 253.355 172.986 253.204C173.267 253.049 173.639 252.97 174.101 252.97C174.702 252.97 175.239 253.123 175.712 253.427C176.183 253.731 176.554 254.169 176.821 254.742C177.094 255.314 177.229 256.003 177.229 256.807C177.229 257.612 177.096 258.303 176.827 258.879C176.559 259.45 176.19 259.892 175.721 260.203C175.252 260.51 174.717 260.664 174.116 260.664C173.663 260.664 173.293 260.588 173.005 260.436C172.72 260.284 172.497 260.106 172.336 259.902C172.174 259.699 172.049 259.518 171.962 259.359H171.84V260.518H170.425ZM171.845 256.793C171.845 257.316 171.921 257.776 172.074 258.171C172.225 258.565 172.445 258.873 172.733 259.096C173.021 259.317 173.374 259.427 173.79 259.427C174.224 259.427 174.586 259.312 174.877 259.083C175.168 258.849 175.388 258.534 175.536 258.137C175.689 257.739 175.764 257.291 175.764 256.793C175.764 256.301 175.69 255.86 175.541 255.469C175.396 255.077 175.176 254.769 174.882 254.542C174.59 254.316 174.227 254.203 173.79 254.203C173.37 254.203 173.014 254.311 172.724 254.528C172.436 254.745 172.217 255.047 172.068 255.435C171.92 255.823 171.845 256.276 171.845 256.793Z" fill="url(#paint12_linear_932_669)"/>
</g>
<g filter="url(#filter3_d_932_669)">
<path d="M242.308 242.306H212.714C205.17 242.306 199.055 248.421 199.055 255.965C199.055 263.509 205.17 269.624 212.714 269.624H242.308C249.852 269.624 255.967 263.509 255.967 255.965C255.967 248.421 249.852 242.306 242.308 242.306Z" fill="#252527"/>
<path style="mix-blend-mode:overlay" d="M242.308 242.306H212.714C205.17 242.306 199.055 248.421 199.055 255.965C199.055 263.509 205.17 269.624 212.714 269.624H242.308C249.852 269.624 255.967 263.509 255.967 255.965C255.967 248.421 249.852 242.306 242.308 242.306Z" fill="url(#paint13_radial_932_669)" fill-opacity="0.16"/>
<path style="mix-blend-mode:overlay" d="M242.307 242.875H212.713C205.484 242.875 199.623 248.736 199.623 255.965C199.623 263.194 205.484 269.055 212.713 269.055H242.307C249.537 269.055 255.397 263.194 255.397 255.965C255.397 248.736 249.537 242.875 242.307 242.875Z" stroke="url(#paint14_radial_932_669)" stroke-width="1.25087"/>
<path d="M209.252 260.518V250.585H210.751V254.901H215.702V250.585H217.206V260.518H215.702V256.187H210.751V260.518H209.252ZM218.763 251.874V250.585H226.451V251.874H223.351V260.518H221.857V251.874H218.763ZM227.523 251.874V250.585H235.211V251.874H232.111V260.518H230.618V251.874H227.523ZM236.774 260.518V250.585H240.315C241.088 250.585 241.727 250.725 242.235 251.006C242.743 251.288 243.123 251.673 243.376 252.161C243.627 252.646 243.753 253.192 243.753 253.8C243.753 254.411 243.626 254.961 243.37 255.45C243.118 255.934 242.737 256.319 242.226 256.604C241.718 256.885 241.08 257.026 240.309 257.026H237.874V255.755H240.174C240.662 255.755 241.058 255.67 241.362 255.503C241.666 255.331 241.889 255.099 242.031 254.804C242.174 254.51 242.245 254.176 242.245 253.8C242.245 253.425 242.174 253.092 242.031 252.801C241.889 252.509 241.665 252.282 241.357 252.117C241.053 251.952 240.653 251.87 240.154 251.87H238.273V260.518H236.774Z" fill="url(#paint15_linear_932_669)"/>
</g>
<g filter="url(#filter4_d_932_669)">
<path d="M303.773 242.306H278.731C271.188 242.306 265.072 248.421 265.072 255.965C265.072 263.509 271.188 269.624 278.731 269.624H303.773C311.316 269.624 317.432 263.509 317.432 255.965C317.432 248.421 311.316 242.306 303.773 242.306Z" fill="#252527"/>
<path style="mix-blend-mode:overlay" d="M303.773 242.306H278.731C271.188 242.306 265.072 248.421 265.072 255.965C265.072 263.509 271.188 269.624 278.731 269.624H303.773C311.316 269.624 317.432 263.509 317.432 255.965C317.432 248.421 311.316 242.306 303.773 242.306Z" fill="url(#paint16_radial_932_669)" fill-opacity="0.16"/>
<path style="mix-blend-mode:overlay" d="M303.774 242.875H278.732C271.503 242.875 265.643 248.736 265.643 255.965C265.643 263.194 271.503 269.055 278.732 269.055H303.774C311.003 269.055 316.864 263.194 316.864 255.965C316.864 248.736 311.003 242.875 303.774 242.875Z" stroke="url(#paint17_radial_932_669)" stroke-width="1.25087"/>
<path d="M280.688 253.193C280.635 252.734 280.422 252.378 280.047 252.127C279.672 251.871 279.2 251.743 278.631 251.743C278.223 251.743 277.87 251.808 277.573 251.938C277.276 252.063 277.044 252.238 276.88 252.461C276.719 252.681 276.638 252.931 276.638 253.213C276.638 253.449 276.692 253.653 276.802 253.824C276.916 253.996 277.062 254.139 277.243 254.256C277.428 254.369 277.625 254.465 277.835 254.542C278.046 254.616 278.247 254.677 278.442 254.726L279.412 254.979C279.728 255.056 280.054 255.161 280.387 255.294C280.72 255.426 281.028 255.601 281.313 255.818C281.597 256.034 281.827 256.303 282.002 256.623C282.18 256.943 282.269 257.326 282.269 257.772C282.269 258.335 282.123 258.834 281.832 259.271C281.545 259.707 281.126 260.052 280.576 260.304C280.03 260.556 279.368 260.683 278.592 260.683C277.848 260.683 277.205 260.564 276.662 260.329C276.119 260.092 275.693 259.757 275.386 259.325C275.078 258.888 274.909 258.371 274.877 257.772H276.381C276.409 258.131 276.526 258.43 276.729 258.669C276.936 258.906 277.2 259.082 277.52 259.199C277.843 259.311 278.197 259.368 278.582 259.368C279.005 259.368 279.382 259.302 279.712 259.169C280.046 259.033 280.307 258.846 280.499 258.607C280.689 258.364 280.784 258.081 280.784 257.758C280.784 257.464 280.7 257.223 280.532 257.035C280.368 256.848 280.142 256.692 279.858 256.569C279.577 256.446 279.258 256.338 278.903 256.245L277.728 255.924C276.933 255.708 276.302 255.389 275.836 254.969C275.374 254.549 275.143 253.992 275.143 253.3C275.143 252.728 275.298 252.228 275.609 251.801C275.92 251.374 276.34 251.043 276.87 250.807C277.4 250.568 277.999 250.448 278.665 250.448C279.338 250.448 279.931 250.566 280.445 250.802C280.962 251.039 281.37 251.363 281.668 251.777C281.965 252.188 282.12 252.66 282.133 253.193H280.688ZM285.975 260.683C285.503 260.683 285.076 260.595 284.694 260.421C284.313 260.243 284.01 259.986 283.787 259.649C283.567 259.313 283.457 258.901 283.457 258.413C283.457 257.992 283.538 257.646 283.699 257.375C283.861 257.103 284.08 256.888 284.355 256.73C284.629 256.571 284.937 256.452 285.276 256.371C285.616 256.29 285.962 256.229 286.314 256.187C286.76 256.134 287.123 256.092 287.401 256.06C287.679 256.025 287.881 255.968 288.008 255.891C288.133 255.812 288.197 255.687 288.197 255.512V255.478C288.197 255.054 288.077 254.726 287.837 254.493C287.601 254.261 287.249 254.145 286.78 254.145C286.291 254.145 285.907 254.253 285.625 254.469C285.348 254.683 285.155 254.92 285.048 255.182L283.686 254.872C283.848 254.419 284.083 254.054 284.394 253.776C284.707 253.495 285.068 253.291 285.475 253.165C285.883 253.035 286.311 252.97 286.76 252.97C287.058 252.97 287.374 253.007 287.706 253.077C288.043 253.145 288.356 253.272 288.647 253.455C288.942 253.639 289.182 253.903 289.37 254.246C289.558 254.585 289.651 255.027 289.651 255.57V260.518H288.235V259.499H288.177C288.083 259.687 287.943 259.871 287.755 260.052C287.567 260.233 287.327 260.383 287.032 260.503C286.738 260.622 286.386 260.683 285.975 260.683ZM286.29 259.518C286.691 259.518 287.033 259.44 287.318 259.28C287.606 259.122 287.825 258.915 287.974 258.66C288.125 258.402 288.201 258.125 288.201 257.83V256.87C288.15 256.922 288.049 256.971 287.901 257.015C287.755 257.057 287.589 257.095 287.401 257.127C287.213 257.157 287.031 257.184 286.852 257.21C286.675 257.233 286.526 257.252 286.406 257.268C286.125 257.303 285.868 257.364 285.636 257.448C285.406 257.531 285.221 257.653 285.082 257.811C284.947 257.967 284.879 258.173 284.879 258.432C284.879 258.791 285.011 259.063 285.276 259.247C285.541 259.428 285.879 259.518 286.29 259.518ZM297.553 253.068L294.852 260.518H293.299L290.593 253.068H292.15L294.037 258.8H294.114L295.996 253.068H297.553ZM301.737 260.668C301.003 260.668 300.371 260.511 299.841 260.198C299.314 259.88 298.906 259.436 298.619 258.864C298.334 258.288 298.192 257.614 298.192 256.841C298.192 256.077 298.334 255.406 298.619 254.823C298.906 254.241 299.307 253.787 299.822 253.461C300.338 253.134 300.944 252.97 301.636 252.97C302.056 252.97 302.464 253.04 302.857 253.18C303.252 253.318 303.606 253.536 303.92 253.834C304.234 254.131 304.482 254.518 304.663 254.993C304.844 255.465 304.934 256.039 304.934 256.715V257.229H299.011V256.142H303.513C303.513 255.761 303.436 255.423 303.28 255.129C303.125 254.831 302.906 254.597 302.625 254.426C302.347 254.254 302.021 254.169 301.645 254.169C301.238 254.169 300.882 254.269 300.579 254.469C300.277 254.666 300.045 254.926 299.88 255.245C299.718 255.562 299.637 255.907 299.637 256.279V257.127C299.637 257.625 299.725 258.049 299.899 258.398C300.077 258.748 300.325 259.014 300.641 259.199C300.958 259.379 301.329 259.471 301.752 259.471C302.026 259.471 302.278 259.431 302.503 259.353C302.73 259.273 302.926 259.153 303.091 258.995C303.256 258.837 303.382 258.641 303.469 258.407L304.841 258.656C304.732 259.06 304.534 259.414 304.249 259.718C303.968 260.018 303.614 260.253 303.187 260.421C302.764 260.586 302.28 260.668 301.737 260.668Z" fill="url(#paint18_linear_932_669)"/>
</g>
</g>
</g>
<path d="M300.357 1.56934H19.213C9.4692 1.56934 1.57031 9.46822 1.57031 19.212V438.083C1.57031 447.827 9.4692 455.725 19.213 455.725H300.357C310.101 455.725 318 447.827 318 438.083V19.212C318 9.46822 310.101 1.56934 300.357 1.56934Z" stroke="white" stroke-opacity="0.02" stroke-width="1.25087"/>
<path d="M62.8491 102.84V95.3396H63.6587V96.2061H63.7582C63.8197 96.1114 63.9049 95.9907 64.0138 95.8439C64.1251 95.6948 64.2837 95.5622 64.4897 95.4462C64.698 95.3278 64.9798 95.2686 65.3349 95.2686C65.7942 95.2686 66.199 95.3834 66.5494 95.6131C66.8997 95.8427 67.1732 96.1682 67.3697 96.5896C67.5662 97.011 67.6644 97.5082 67.6644 98.0811C67.6644 98.6588 67.5662 99.1595 67.3697 99.5833C67.1732 100.005 66.9009 100.331 66.5529 100.563C66.2049 100.793 65.8036 100.908 65.3491 100.908C64.9987 100.908 64.7182 100.85 64.5075 100.734C64.2968 100.615 64.1346 100.482 64.021 100.333C63.9073 100.181 63.8197 100.056 63.7582 99.9561H63.6871V102.84H62.8491ZM63.6729 98.0669C63.6729 98.4788 63.7333 98.8422 63.854 99.1571C63.9748 99.4696 64.1512 99.7146 64.3832 99.8922C64.6152 100.067 64.8993 100.155 65.2354 100.155C65.5858 100.155 65.8782 100.063 66.1126 99.878C66.3493 99.691 66.5269 99.44 66.6452 99.1252C66.766 98.8079 66.8263 98.4552 66.8263 98.0669C66.8263 97.6834 66.7672 97.3377 66.6488 97.03C66.5328 96.7199 66.3564 96.4748 66.1197 96.2949C65.8853 96.1126 65.5906 96.0215 65.2354 96.0215C64.8945 96.0215 64.6081 96.1079 64.3761 96.2807C64.1441 96.4511 63.9689 96.6903 63.8505 96.998C63.7321 97.3034 63.6729 97.6597 63.6729 98.0669ZM70.5479 100.922C70.2023 100.922 69.8886 100.857 69.6069 100.727C69.3252 100.594 69.1014 100.404 68.9357 100.155C68.77 99.904 68.6871 99.601 68.6871 99.2459C68.6871 98.9334 68.7487 98.6801 68.8718 98.486C68.9949 98.2895 69.1594 98.1356 69.3654 98.0243C69.5714 97.913 69.7987 97.8302 70.0472 97.7757C70.2982 97.7189 70.5503 97.6739 70.8036 97.6408C71.1351 97.5982 71.4038 97.5662 71.6097 97.5449C71.8181 97.5212 71.9696 97.4822 72.0643 97.4277C72.1613 97.3733 72.2099 97.2786 72.2099 97.1436V97.1152C72.2099 96.7648 72.114 96.4926 71.9222 96.2985C71.7328 96.1043 71.4452 96.0073 71.0593 96.0073C70.6592 96.0073 70.3455 96.0949 70.1183 96.27C69.891 96.4452 69.7312 96.6323 69.6388 96.8311L68.8434 96.547C68.9854 96.2156 69.1748 95.9575 69.4116 95.7729C69.6507 95.5859 69.9111 95.4556 70.1928 95.3823C70.4769 95.3065 70.7563 95.2686 71.0309 95.2686C71.2061 95.2686 71.4073 95.2899 71.6346 95.3325C71.8642 95.3728 72.0856 95.4568 72.2987 95.5847C72.5141 95.7125 72.6928 95.9055 72.8349 96.1635C72.9769 96.4216 73.0479 96.7672 73.0479 97.2004V100.794H72.2099V100.056H72.1673C72.1104 100.174 72.0157 100.301 71.8832 100.436C71.7506 100.57 71.5742 100.685 71.354 100.78C71.1339 100.875 70.8652 100.922 70.5479 100.922ZM70.6758 100.169C71.0072 100.169 71.2866 100.104 71.5138 99.9739C71.7435 99.8437 71.9163 99.6756 72.0323 99.4696C72.1507 99.2636 72.2099 99.047 72.2099 98.8198V98.0527C72.1744 98.0953 72.0962 98.1344 71.9755 98.1699C71.8571 98.203 71.7198 98.2326 71.5636 98.2587C71.4097 98.2824 71.2594 98.3037 71.1126 98.3226C70.9682 98.3392 70.851 98.3534 70.761 98.3652C70.5432 98.3936 70.3396 98.4398 70.1502 98.5037C69.9632 98.5653 69.8117 98.6588 69.6957 98.7842C69.582 98.9074 69.5252 99.0754 69.5252 99.2885C69.5252 99.5797 69.6329 99.7999 69.8484 99.949C70.0662 100.096 70.342 100.169 70.6758 100.169ZM78.4412 96.5612L77.6884 96.7743C77.641 96.6488 77.5712 96.5269 77.4789 96.4085C77.3889 96.2878 77.2658 96.1884 77.1096 96.1102C76.9533 96.0321 76.7533 95.9931 76.5094 95.9931C76.1756 95.9931 75.8974 96.07 75.6749 96.2239C75.4547 96.3754 75.3446 96.5683 75.3446 96.8027C75.3446 97.011 75.4204 97.1756 75.5719 97.2963C75.7234 97.4171 75.9602 97.5177 76.2821 97.5982L77.0918 97.797C77.5795 97.9154 77.9429 98.0965 78.182 98.3404C78.4211 98.5818 78.5407 98.8931 78.5407 99.2743C78.5407 99.5868 78.4507 99.8662 78.2708 100.112C78.0932 100.359 77.8446 100.553 77.525 100.695C77.2054 100.837 76.8337 100.908 76.41 100.908C75.8536 100.908 75.3932 100.787 75.0286 100.546C74.664 100.304 74.4332 99.9514 74.3361 99.4874L75.1316 99.2885C75.2073 99.5821 75.3506 99.8022 75.5613 99.949C75.7743 100.096 76.0525 100.169 76.3958 100.169C76.7864 100.169 77.0965 100.086 77.3262 99.9206C77.5582 99.7525 77.6742 99.5513 77.6742 99.3169C77.6742 99.1275 77.6079 98.9689 77.4753 98.8411C77.3427 98.7109 77.1391 98.6138 76.8645 98.5499L75.9554 98.3368C75.4559 98.2184 75.089 98.035 74.8546 97.7864C74.6226 97.5354 74.5066 97.2217 74.5066 96.8453C74.5066 96.5376 74.593 96.2653 74.7658 96.0286C74.941 95.7918 75.1789 95.606 75.4796 95.471C75.7826 95.3361 76.1259 95.2686 76.5094 95.2686C77.0492 95.2686 77.473 95.387 77.7807 95.6237C78.0908 95.8605 78.311 96.173 78.4412 96.5612ZM83.6658 96.5612L82.913 96.7743C82.8656 96.6488 82.7958 96.5269 82.7035 96.4085C82.6135 96.2878 82.4904 96.1884 82.3342 96.1102C82.1779 96.0321 81.9779 95.9931 81.734 95.9931C81.4002 95.9931 81.122 96.07 80.8995 96.2239C80.6793 96.3754 80.5692 96.5683 80.5692 96.8027C80.5692 97.011 80.645 97.1756 80.7965 97.2963C80.948 97.4171 81.1848 97.5177 81.5067 97.5982L82.3164 97.797C82.8041 97.9154 83.1675 98.0965 83.4066 98.3404C83.6457 98.5818 83.7653 98.8931 83.7653 99.2743C83.7653 99.5868 83.6753 99.8662 83.4954 100.112C83.3178 100.359 83.0692 100.553 82.7496 100.695C82.43 100.837 82.0584 100.908 81.6346 100.908C81.0782 100.908 80.6178 100.787 80.2532 100.546C79.8886 100.304 79.6578 99.9514 79.5607 99.4874L80.3562 99.2885C80.4319 99.5821 80.5752 99.8022 80.7859 99.949C80.9989 100.096 81.2771 100.169 81.6204 100.169C82.011 100.169 82.3211 100.086 82.5508 99.9206C82.7828 99.7525 82.8988 99.5513 82.8988 99.3169C82.8988 99.1275 82.8325 98.9689 82.6999 98.8411C82.5674 98.7109 82.3638 98.6138 82.0891 98.5499L81.18 98.3368C80.6805 98.2184 80.3136 98.035 80.0792 97.7864C79.8472 97.5354 79.7312 97.2217 79.7312 96.8453C79.7312 96.5376 79.8176 96.2653 79.9904 96.0286C80.1656 95.7918 80.4035 95.606 80.7042 95.471C81.0072 95.3361 81.3505 95.2686 81.734 95.2686C82.2738 95.2686 82.6976 95.387 83.0053 95.6237C83.3155 95.8605 83.5356 96.173 83.6658 96.5612ZM87.8393 100.794V95.3396H88.649V96.1919H88.72C88.8336 95.9007 89.0171 95.6746 89.2704 95.5136C89.5237 95.3503 89.8279 95.2686 90.1831 95.2686C90.5429 95.2686 90.8424 95.3503 91.0815 95.5136C91.323 95.6746 91.5112 95.9007 91.6461 96.1919H91.7029C91.8426 95.9102 92.0521 95.6865 92.3315 95.5208C92.6109 95.3527 92.9458 95.2686 93.3365 95.2686C93.8242 95.2686 94.2231 95.4213 94.5332 95.7267C94.8433 96.0297 94.9984 96.502 94.9984 97.1436V100.794H94.1603V97.1436C94.1603 96.7412 94.0502 96.4535 93.8301 96.2807C93.6099 96.1079 93.3507 96.0215 93.0524 96.0215C92.6689 96.0215 92.3717 96.1375 92.161 96.3695C91.9503 96.5991 91.845 96.8903 91.845 97.2431V100.794H90.9927V97.0584C90.9927 96.7483 90.8921 96.4985 90.6909 96.3091C90.4896 96.1173 90.2304 96.0215 89.9132 96.0215C89.6954 96.0215 89.4918 96.0795 89.3024 96.1955C89.1154 96.3115 88.9638 96.4725 88.8478 96.6784C88.7342 96.882 88.6774 97.1176 88.6774 97.3851V100.794H87.8393ZM98.8176 100.908C98.2921 100.908 97.8387 100.792 97.4576 100.56C97.0788 100.325 96.7864 99.9987 96.5804 99.5797C96.3768 99.1583 96.275 98.6682 96.275 98.1095C96.275 97.5508 96.3768 97.0584 96.5804 96.6323C96.7864 96.2038 97.0729 95.8699 97.4398 95.6308C97.8091 95.3894 98.24 95.2686 98.7324 95.2686C99.0165 95.2686 99.2971 95.316 99.574 95.4107C99.851 95.5054 100.103 95.6592 100.33 95.8723C100.558 96.083 100.739 96.3624 100.874 96.7104C101.009 97.0584 101.076 97.4869 101.076 97.9959V98.351H96.8716V97.6266H100.224C100.224 97.3188 100.162 97.0442 100.039 96.8027C99.9185 96.5612 99.7457 96.3707 99.5208 96.231C99.2982 96.0913 99.0355 96.0215 98.7324 96.0215C98.3986 96.0215 98.1098 96.1043 97.8659 96.27C97.6245 96.4334 97.4386 96.6465 97.3084 96.9092C97.1782 97.172 97.1131 97.4538 97.1131 97.7544V98.2374C97.1131 98.6493 97.1841 98.9985 97.3262 99.285C97.4706 99.569 97.6706 99.7857 97.9263 99.9348C98.182 100.082 98.4791 100.155 98.8176 100.155C99.0378 100.155 99.2367 100.124 99.4142 100.063C99.5942 99.9987 99.7492 99.904 99.8794 99.7786C100.01 99.6507 100.11 99.4921 100.181 99.3027L100.991 99.53C100.906 99.8046 100.762 100.046 100.561 100.254C100.36 100.46 100.111 100.621 99.8155 100.737C99.5196 100.851 99.187 100.908 98.8176 100.908ZM107.536 95.3396V96.0499H104.709V95.3396H107.536ZM105.533 94.0328H106.371V99.2317C106.371 99.4684 106.405 99.646 106.474 99.7644C106.545 99.8804 106.635 99.9585 106.744 99.9987C106.855 100.037 106.972 100.056 107.095 100.056C107.188 100.056 107.263 100.051 107.323 100.041C107.382 100.03 107.429 100.02 107.465 100.013L107.635 100.766C107.578 100.787 107.499 100.808 107.397 100.83C107.295 100.853 107.166 100.865 107.01 100.865C106.773 100.865 106.541 100.814 106.314 100.713C106.089 100.611 105.902 100.456 105.753 100.247C105.606 100.039 105.533 99.7762 105.533 99.459V94.0328ZM109.752 97.5129V100.794H108.914V93.5215H109.752V96.1919H109.823C109.95 95.9102 110.142 95.6865 110.398 95.5208C110.656 95.3527 110.999 95.2686 111.428 95.2686C111.799 95.2686 112.125 95.3432 112.404 95.4923C112.684 95.6391 112.9 95.8652 113.054 96.1706C113.21 96.4736 113.289 96.8595 113.289 97.3283V100.794H112.45V97.3851C112.45 96.9519 112.338 96.6169 112.113 96.3801C111.891 96.141 111.582 96.0215 111.186 96.0215C110.912 96.0215 110.665 96.0795 110.448 96.1955C110.232 96.3115 110.062 96.4807 109.936 96.7033C109.813 96.9258 109.752 97.1957 109.752 97.5129ZM116.427 100.922C116.081 100.922 115.768 100.857 115.486 100.727C115.204 100.594 114.98 100.404 114.815 100.155C114.649 99.904 114.566 99.601 114.566 99.2459C114.566 98.9334 114.628 98.6801 114.751 98.486C114.874 98.2895 115.038 98.1356 115.244 98.0243C115.45 97.913 115.678 97.8302 115.926 97.7757C116.177 97.7189 116.429 97.6739 116.683 97.6408C117.014 97.5982 117.283 97.5662 117.489 97.5449C117.697 97.5212 117.848 97.4822 117.943 97.4277C118.04 97.3733 118.089 97.2786 118.089 97.1436V97.1152C118.089 96.7648 117.993 96.4926 117.801 96.2985C117.612 96.1043 117.324 96.0073 116.938 96.0073C116.538 96.0073 116.224 96.0949 115.997 96.27C115.77 96.4452 115.61 96.6323 115.518 96.8311L114.722 96.547C114.864 96.2156 115.054 95.9575 115.29 95.7729C115.53 95.5859 115.79 95.4556 116.072 95.3823C116.356 95.3065 116.635 95.2686 116.91 95.2686C117.085 95.2686 117.286 95.2899 117.513 95.3325C117.743 95.3728 117.964 95.4568 118.178 95.5847C118.393 95.7125 118.572 95.9055 118.714 96.1635C118.856 96.4216 118.927 96.7672 118.927 97.2004V100.794H118.089V100.056H118.046C117.989 100.174 117.895 100.301 117.762 100.436C117.629 100.57 117.453 100.685 117.233 100.78C117.013 100.875 116.744 100.922 116.427 100.922ZM116.555 100.169C116.886 100.169 117.165 100.104 117.393 99.9739C117.622 99.8437 117.795 99.6756 117.911 99.4696C118.03 99.2636 118.089 99.047 118.089 98.8198V98.0527C118.053 98.0953 117.975 98.1344 117.854 98.1699C117.736 98.203 117.599 98.2326 117.442 98.2587C117.289 98.2824 117.138 98.3037 116.991 98.3226C116.847 98.3392 116.73 98.3534 116.64 98.3652C116.422 98.3936 116.219 98.4398 116.029 98.5037C115.842 98.5653 115.691 98.6588 115.575 98.7842C115.461 98.9074 115.404 99.0754 115.404 99.2885C115.404 99.5797 115.512 99.7999 115.727 99.949C115.945 100.096 116.221 100.169 116.555 100.169ZM122.829 95.3396V96.0499H120.002V95.3396H122.829ZM120.826 94.0328H121.664V99.2317C121.664 99.4684 121.698 99.646 121.767 99.7644C121.838 99.8804 121.928 99.9585 122.037 99.9987C122.148 100.037 122.265 100.056 122.388 100.056C122.481 100.056 122.556 100.051 122.616 100.041C122.675 100.03 122.722 100.02 122.758 100.013L122.928 100.766C122.871 100.787 122.792 100.808 122.69 100.83C122.588 100.853 122.459 100.865 122.303 100.865C122.066 100.865 121.834 100.814 121.607 100.713C121.382 100.611 121.195 100.456 121.046 100.247C120.899 100.039 120.826 99.7762 120.826 99.459V94.0328ZM127.442 102.84C127.3 102.84 127.173 102.828 127.062 102.804C126.95 102.783 126.873 102.762 126.831 102.74L127.044 102.002C127.247 102.054 127.427 102.073 127.584 102.058C127.74 102.044 127.878 101.974 127.999 101.849C128.122 101.726 128.235 101.526 128.336 101.249L128.493 100.823L126.476 95.3396H127.385L128.89 99.6862H128.947L130.453 95.3396H131.362L129.047 101.59C128.943 101.871 128.814 102.105 128.66 102.289C128.506 102.476 128.327 102.615 128.123 102.705C127.922 102.795 127.695 102.84 127.442 102.84ZM134.489 100.908C133.996 100.908 133.564 100.791 133.193 100.556C132.823 100.322 132.535 99.994 132.326 99.5726C132.12 99.1512 132.017 98.6588 132.017 98.0953C132.017 97.5271 132.12 97.0312 132.326 96.6074C132.535 96.1836 132.823 95.8546 133.193 95.6202C133.564 95.3858 133.996 95.2686 134.489 95.2686C134.981 95.2686 135.412 95.3858 135.781 95.6202C136.153 95.8546 136.442 96.1836 136.648 96.6074C136.856 97.0312 136.96 97.5271 136.96 98.0953C136.96 98.6588 136.856 99.1512 136.648 99.5726C136.442 99.994 136.153 100.322 135.781 100.556C135.412 100.791 134.981 100.908 134.489 100.908ZM134.489 100.155C134.863 100.155 135.171 100.059 135.412 99.8673C135.654 99.6756 135.832 99.4235 135.948 99.111C136.064 98.7985 136.122 98.4599 136.122 98.0953C136.122 97.7307 136.064 97.391 135.948 97.0761C135.832 96.7613 135.654 96.5068 135.412 96.3127C135.171 96.1185 134.863 96.0215 134.489 96.0215C134.115 96.0215 133.807 96.1185 133.566 96.3127C133.324 96.5068 133.145 96.7613 133.029 97.0761C132.913 97.391 132.855 97.7307 132.855 98.0953C132.855 98.4599 132.913 98.7985 133.029 99.111C133.145 99.4235 133.324 99.6756 133.566 99.8673C133.807 100.059 134.115 100.155 134.489 100.155ZM141.677 98.5641V95.3396H142.515V100.794H141.677V99.8709H141.62C141.493 100.148 141.294 100.383 141.024 100.578C140.754 100.769 140.413 100.865 140.001 100.865C139.66 100.865 139.357 100.791 139.092 100.641C138.827 100.49 138.618 100.263 138.467 99.9597C138.315 99.6543 138.24 99.2696 138.24 98.8056V95.3396H139.078V98.7487C139.078 99.1465 139.189 99.4637 139.412 99.7004C139.636 99.9372 139.923 100.056 140.271 100.056C140.479 100.056 140.691 100.002 140.907 99.8958C141.124 99.7892 141.307 99.6259 141.453 99.4057C141.603 99.1855 141.677 98.905 141.677 98.5641ZM148.099 100.794L146.437 95.3396H147.317L148.496 99.5158H148.553L149.718 95.3396H150.613L151.763 99.5016H151.82L152.999 95.3396H153.88L152.218 100.794H151.394L150.201 96.6038H150.116L148.922 100.794H148.099ZM156.593 100.922C156.247 100.922 155.934 100.857 155.652 100.727C155.37 100.594 155.146 100.404 154.981 100.155C154.815 99.904 154.732 99.601 154.732 99.2459C154.732 98.9334 154.794 98.6801 154.917 98.486C155.04 98.2895 155.204 98.1356 155.41 98.0243C155.616 97.913 155.844 97.8302 156.092 97.7757C156.343 97.7189 156.595 97.6739 156.849 97.6408C157.18 97.5982 157.449 97.5662 157.655 97.5449C157.863 97.5212 158.015 97.4822 158.109 97.4277C158.206 97.3733 158.255 97.2786 158.255 97.1436V97.1152C158.255 96.7648 158.159 96.4926 157.967 96.2985C157.778 96.1043 157.49 96.0073 157.104 96.0073C156.704 96.0073 156.39 96.0949 156.163 96.27C155.936 96.4452 155.776 96.6323 155.684 96.8311L154.888 96.547C155.03 96.2156 155.22 95.9575 155.456 95.7729C155.696 95.5859 155.956 95.4556 156.238 95.3823C156.522 95.3065 156.801 95.2686 157.076 95.2686C157.251 95.2686 157.452 95.2899 157.68 95.3325C157.909 95.3728 158.131 95.4568 158.344 95.5847C158.559 95.7125 158.738 95.9055 158.88 96.1635C159.022 96.4216 159.093 96.7672 159.093 97.2004V100.794H158.255V100.056H158.212C158.155 100.174 158.061 100.301 157.928 100.436C157.796 100.57 157.619 100.685 157.399 100.78C157.179 100.875 156.91 100.922 156.593 100.922ZM156.721 100.169C157.052 100.169 157.331 100.104 157.559 99.9739C157.788 99.8437 157.961 99.6756 158.077 99.4696C158.196 99.2636 158.255 99.047 158.255 98.8198V98.0527C158.219 98.0953 158.141 98.1344 158.02 98.1699C157.902 98.203 157.765 98.2326 157.608 98.2587C157.455 98.2824 157.304 98.3037 157.157 98.3226C157.013 98.3392 156.896 98.3534 156.806 98.3652C156.588 98.3936 156.385 98.4398 156.195 98.5037C156.008 98.5653 155.857 98.6588 155.741 98.7842C155.627 98.9074 155.57 99.0754 155.57 99.2885C155.57 99.5797 155.678 99.7999 155.893 99.949C156.111 100.096 156.387 100.169 156.721 100.169ZM161.461 97.5129V100.794H160.623V95.3396H161.432V96.1919H161.503C161.631 95.9149 161.825 95.6924 162.086 95.5243C162.346 95.3538 162.682 95.2686 163.094 95.2686C163.463 95.2686 163.787 95.3444 164.064 95.4959C164.341 95.645 164.556 95.8723 164.71 96.1777C164.864 96.4807 164.941 96.8643 164.941 97.3283V100.794H164.103V97.3851C164.103 96.9566 163.991 96.6228 163.769 96.3837C163.546 96.1422 163.241 96.0215 162.853 96.0215C162.585 96.0215 162.346 96.0795 162.135 96.1955C161.927 96.3115 161.762 96.4807 161.642 96.7033C161.521 96.9258 161.461 97.1957 161.461 97.5129ZM168.844 95.3396V96.0499H166.018V95.3396H168.844ZM166.841 94.0328H167.68V99.2317C167.68 99.4684 167.714 99.646 167.782 99.7644C167.854 99.8804 167.943 99.9585 168.052 99.9987C168.164 100.037 168.281 100.056 168.404 100.056C168.496 100.056 168.572 100.051 168.631 100.041C168.69 100.03 168.738 100.02 168.773 100.013L168.944 100.766C168.887 100.787 168.808 100.808 168.706 100.83C168.604 100.853 168.475 100.865 168.319 100.865C168.082 100.865 167.85 100.814 167.623 100.713C167.398 100.611 167.211 100.456 167.062 100.247C166.915 100.039 166.841 99.7762 166.841 99.459V94.0328ZM175.29 95.3396V96.0499H172.463V95.3396H175.29ZM173.287 94.0328H174.125V99.2317C174.125 99.4684 174.159 99.646 174.228 99.7644C174.299 99.8804 174.389 99.9585 174.498 99.9987C174.609 100.037 174.726 100.056 174.849 100.056C174.942 100.056 175.017 100.051 175.077 100.041C175.136 100.03 175.183 100.02 175.219 100.013L175.389 100.766C175.332 100.787 175.253 100.808 175.151 100.83C175.049 100.853 174.92 100.865 174.764 100.865C174.527 100.865 174.295 100.814 174.068 100.713C173.843 100.611 173.656 100.456 173.507 100.247C173.36 100.039 173.287 99.7762 173.287 99.459V94.0328ZM178.708 100.908C178.215 100.908 177.783 100.791 177.411 100.556C177.042 100.322 176.753 99.994 176.545 99.5726C176.339 99.1512 176.236 98.6588 176.236 98.0953C176.236 97.5271 176.339 97.0312 176.545 96.6074C176.753 96.1836 177.042 95.8546 177.411 95.6202C177.783 95.3858 178.215 95.2686 178.708 95.2686C179.2 95.2686 179.631 95.3858 180 95.6202C180.372 95.8546 180.661 96.1836 180.867 96.6074C181.075 97.0312 181.179 97.5271 181.179 98.0953C181.179 98.6588 181.075 99.1512 180.867 99.5726C180.661 99.994 180.372 100.322 180 100.556C179.631 100.791 179.2 100.908 178.708 100.908ZM178.708 100.155C179.082 100.155 179.389 100.059 179.631 99.8673C179.872 99.6756 180.051 99.4235 180.167 99.111C180.283 98.7985 180.341 98.4599 180.341 98.0953C180.341 97.7307 180.283 97.391 180.167 97.0761C180.051 96.7613 179.872 96.5068 179.631 96.3127C179.389 96.1185 179.082 96.0215 178.708 96.0215C178.334 96.0215 178.026 96.1185 177.784 96.3127C177.543 96.5068 177.364 96.7613 177.248 97.0761C177.132 97.391 177.074 97.7307 177.074 98.0953C177.074 98.4599 177.132 98.7985 177.248 99.111C177.364 99.4235 177.543 99.6756 177.784 99.8673C178.026 100.059 178.334 100.155 178.708 100.155ZM187.487 100.908C186.975 100.908 186.535 100.787 186.166 100.546C185.797 100.304 185.512 99.9715 185.314 99.5477C185.115 99.124 185.015 98.6398 185.015 98.0953C185.015 97.5413 185.117 97.0525 185.321 96.6287C185.527 96.2026 185.813 95.8699 186.18 95.6308C186.549 95.3894 186.98 95.2686 187.473 95.2686C187.856 95.2686 188.202 95.3396 188.51 95.4817C188.817 95.6237 189.069 95.8226 189.266 96.0783C189.462 96.334 189.584 96.6323 189.632 96.9732H188.794C188.73 96.7246 188.588 96.5044 188.368 96.3127C188.15 96.1185 187.856 96.0215 187.487 96.0215C187.16 96.0215 186.874 96.1067 186.627 96.2771C186.384 96.4452 186.193 96.6832 186.056 96.9909C185.921 97.2963 185.853 97.655 185.853 98.0669C185.853 98.4883 185.92 98.8553 186.052 99.1678C186.187 99.4803 186.377 99.7229 186.62 99.8958C186.867 100.069 187.155 100.155 187.487 100.155C187.705 100.155 187.902 100.117 188.08 100.041C188.257 99.9656 188.408 99.8567 188.531 99.7146C188.654 99.5726 188.742 99.4021 188.794 99.2033H189.632C189.584 99.5253 189.467 99.8153 189.28 100.073C189.096 100.329 188.85 100.533 188.545 100.684C188.242 100.833 187.889 100.908 187.487 100.908ZM193.073 100.908C192.58 100.908 192.148 100.791 191.777 100.556C191.407 100.322 191.118 99.994 190.91 99.5726C190.704 99.1512 190.601 98.6588 190.601 98.0953C190.601 97.5271 190.704 97.0312 190.91 96.6074C191.118 96.1836 191.407 95.8546 191.777 95.6202C192.148 95.3858 192.58 95.2686 193.073 95.2686C193.565 95.2686 193.996 95.3858 194.365 95.6202C194.737 95.8546 195.026 96.1836 195.232 96.6074C195.44 97.0312 195.544 97.5271 195.544 98.0953C195.544 98.6588 195.44 99.1512 195.232 99.5726C195.026 99.994 194.737 100.322 194.365 100.556C193.996 100.791 193.565 100.908 193.073 100.908ZM193.073 100.155C193.447 100.155 193.755 100.059 193.996 99.8673C194.238 99.6756 194.416 99.4235 194.532 99.111C194.648 98.7985 194.706 98.4599 194.706 98.0953C194.706 97.7307 194.648 97.391 194.532 97.0761C194.416 96.7613 194.238 96.5068 193.996 96.3127C193.755 96.1185 193.447 96.0215 193.073 96.0215C192.699 96.0215 192.391 96.1185 192.15 96.3127C191.908 96.5068 191.729 96.7613 191.613 97.0761C191.497 97.391 191.439 97.7307 191.439 98.0953C191.439 98.4599 191.497 98.7985 191.613 99.111C191.729 99.4235 191.908 99.6756 192.15 99.8673C192.391 100.059 192.699 100.155 193.073 100.155ZM198.883 100.908C198.429 100.908 198.028 100.793 197.68 100.563C197.331 100.331 197.059 100.005 196.863 99.5833C196.666 99.1595 196.568 98.6588 196.568 98.0811C196.568 97.5082 196.666 97.011 196.863 96.5896C197.059 96.1682 197.333 95.8427 197.683 95.6131C198.033 95.3834 198.438 95.2686 198.898 95.2686C199.253 95.2686 199.533 95.3278 199.739 95.4462C199.948 95.5622 200.106 95.6948 200.215 95.8439C200.326 95.9907 200.413 96.1114 200.474 96.2061H200.545V93.5215H201.383V100.794H200.574V99.9561H200.474C200.413 100.056 200.325 100.181 200.211 100.333C200.098 100.482 199.936 100.615 199.725 100.734C199.514 100.85 199.234 100.908 198.883 100.908ZM198.997 100.155C199.333 100.155 199.617 100.067 199.849 99.8922C200.081 99.7146 200.258 99.4696 200.378 99.1571C200.499 98.8422 200.559 98.4788 200.559 98.0669C200.559 97.6597 200.5 97.3034 200.382 96.998C200.264 96.6903 200.088 96.4511 199.856 96.2807C199.624 96.1079 199.338 96.0215 198.997 96.0215C198.642 96.0215 198.346 96.1126 198.109 96.2949C197.875 96.4748 197.698 96.7199 197.58 97.03C197.464 97.3377 197.406 97.6834 197.406 98.0669C197.406 98.4552 197.465 98.8079 197.584 99.1252C197.704 99.44 197.882 99.691 198.116 99.878C198.353 100.063 198.647 100.155 198.997 100.155ZM205.322 100.908C204.796 100.908 204.343 100.792 203.961 100.56C203.583 100.325 203.29 99.9987 203.084 99.5797C202.881 99.1583 202.779 98.6682 202.779 98.1095C202.779 97.5508 202.881 97.0584 203.084 96.6323C203.29 96.2038 203.577 95.8699 203.944 95.6308C204.313 95.3894 204.744 95.2686 205.236 95.2686C205.52 95.2686 205.801 95.316 206.078 95.4107C206.355 95.5054 206.607 95.6592 206.834 95.8723C207.062 96.083 207.243 96.3624 207.378 96.7104C207.513 97.0584 207.58 97.4869 207.58 97.9959V98.351H203.376V97.6266H206.728C206.728 97.3188 206.666 97.0442 206.543 96.8027C206.422 96.5612 206.25 96.3707 206.025 96.231C205.802 96.0913 205.539 96.0215 205.236 96.0215C204.903 96.0215 204.614 96.1043 204.37 96.27C204.128 96.4334 203.943 96.6465 203.812 96.9092C203.682 97.172 203.617 97.4538 203.617 97.7544V98.2374C203.617 98.6493 203.688 98.9985 203.83 99.285C203.974 99.569 204.175 99.7857 204.43 99.9348C204.686 100.082 204.983 100.155 205.322 100.155C205.542 100.155 205.741 100.124 205.918 100.063C206.098 99.9987 206.253 99.904 206.383 99.7786C206.514 99.6507 206.614 99.4921 206.685 99.3027L207.495 99.53C207.41 99.8046 207.266 100.046 207.065 100.254C206.864 100.46 206.615 100.621 206.319 100.737C206.023 100.851 205.691 100.908 205.322 100.908Z" fill="#B1B1B1"/>
<rect x="267.082" y="138.794" width="16" height="15" rx="6" fill="#5A5A5A"/>
<path d="M277.369 146.237L272.795 148.567V147.658L276.303 145.967L276.275 146.024V145.882L276.303 145.939L272.795 144.249V143.34L277.369 145.669V146.237Z" fill="white"/>
<path d="M55.3068 39.1621V38.3092L62.1724 34.8125V36.177L56.9059 38.7143L56.9486 38.629V38.8423L56.9059 38.757L62.1724 41.2943V42.6589L55.3068 39.1621ZM66.0969 38.0747V43H64.839V32.0833H66.0969V36.0918H66.2035C66.3954 35.6689 66.6833 35.3331 67.0671 35.0843C67.4544 34.832 67.9697 34.7058 68.6129 34.7058C69.1708 34.7058 69.6594 34.8178 70.0788 35.0417C70.4981 35.262 70.8233 35.6014 71.0542 36.0598C71.2888 36.5146 71.4061 37.0939 71.4061 37.7975V43H70.1481V37.8828C70.1481 37.2325 69.9793 36.7296 69.6417 36.3743C69.3076 36.0154 68.8439 35.8359 68.2504 35.8359C67.8382 35.8359 67.4686 35.923 67.1417 36.0971C66.8183 36.2712 66.5625 36.5253 66.3741 36.8593C66.1893 37.1934 66.0969 37.5985 66.0969 38.0747ZM77.2682 34.8125V35.8785H73.0252V34.8125H77.2682ZM74.2618 32.8509H75.5198V40.6546C75.5198 41.01 75.5713 41.2765 75.6744 41.4542C75.781 41.6283 75.916 41.7456 76.0795 41.806C76.2465 41.8628 76.4224 41.8913 76.6072 41.8913C76.7458 41.8913 76.8595 41.8842 76.9484 41.8699C77.0372 41.8522 77.1083 41.838 77.1616 41.8273L77.4174 42.9574C77.3322 42.9893 77.2131 43.0213 77.0603 43.0533C76.9075 43.0888 76.7138 43.1066 76.4793 43.1066C76.1239 43.1066 75.7757 43.0302 75.4345 42.8774C75.0969 42.7246 74.8162 42.4918 74.5923 42.1791C74.372 41.8664 74.2618 41.4719 74.2618 40.9958V32.8509ZM79.1605 43V34.8125H80.3758V36.0918H80.4824C80.653 35.6547 80.9284 35.3153 81.3087 35.0736C81.6889 34.8284 82.1455 34.7058 82.6786 34.7058C83.2187 34.7058 83.6683 34.8284 84.0272 35.0736C84.3897 35.3153 84.6722 35.6547 84.8747 36.0918H84.96C85.1697 35.6689 85.4842 35.3331 85.9035 35.0843C86.3228 34.832 86.8257 34.7058 87.412 34.7058C88.1441 34.7058 88.7428 34.9351 89.2084 35.3935C89.6739 35.8483 89.9067 36.5573 89.9067 37.5203V43H88.6487V37.5203C88.6487 36.9162 88.4834 36.4844 88.1529 36.225C87.8225 35.9656 87.4333 35.8359 86.9856 35.8359C86.4099 35.8359 85.9639 36.01 85.6476 36.3583C85.3314 36.703 85.1732 37.1401 85.1732 37.6696V43H83.8939V37.3924C83.8939 36.9269 83.7429 36.552 83.4408 36.2677C83.1388 35.9798 82.7497 35.8359 82.2735 35.8359C81.9465 35.8359 81.6409 35.923 81.3566 36.0971C81.0759 36.2712 80.8485 36.5129 80.6743 36.822C80.5038 37.1276 80.4185 37.4812 80.4185 37.8828V43H79.1605ZM93.4647 32.0833V43H92.2067V32.0833H93.4647ZM107.219 39.1621L100.353 42.6589V41.2943L105.619 38.757L105.577 38.8423V38.629L105.619 38.7143L100.353 36.177V34.8125L107.219 38.3092V39.1621ZM55.3068 57.1621V56.3092L62.1724 52.8125V54.177L56.9059 56.7143L56.9486 56.629V56.8423L56.9059 56.757L62.1724 59.2943V60.6589L55.3068 57.1621ZM68.3997 52.8125V53.8785H64.1567V52.8125H68.3997ZM65.3933 50.8509H66.6513V58.6546C66.6513 59.01 66.7028 59.2765 66.8059 59.4542C66.9125 59.6283 67.0475 59.7456 67.211 59.806C67.378 59.8628 67.5539 59.8913 67.7387 59.8913C67.8773 59.8913 67.991 59.8842 68.0799 59.8699C68.1687 59.8522 68.2398 59.838 68.2931 59.8273L68.5489 60.9574C68.4637 60.9893 68.3446 61.0213 68.1918 61.0533C68.039 61.0888 67.8453 61.1066 67.6108 61.1066C67.2554 61.1066 66.9072 61.0302 66.566 60.8774C66.2284 60.7246 65.9477 60.4918 65.7238 60.1791C65.5035 59.8664 65.3933 59.4719 65.3933 58.9958V50.8509ZM70.292 61V52.8125H71.55V61H70.292ZM70.9316 51.4479C70.6864 51.4479 70.475 51.3644 70.2973 51.1973C70.1232 51.0303 70.0361 50.8295 70.0361 50.595C70.0361 50.3605 70.1232 50.1597 70.2973 49.9927C70.475 49.8256 70.6864 49.7421 70.9316 49.7421C71.1768 49.7421 71.3865 49.8256 71.5606 49.9927C71.7383 50.1597 71.8272 50.3605 71.8272 50.595C71.8272 50.8295 71.7383 51.0303 71.5606 51.1973C71.3865 51.3644 71.1768 51.4479 70.9316 51.4479ZM77.4148 52.8125V53.8785H73.1718V52.8125H77.4148ZM74.4084 50.8509H75.6664V58.6546C75.6664 59.01 75.7179 59.2765 75.821 59.4542C75.9276 59.6283 76.0626 59.7456 76.2261 59.806C76.3931 59.8628 76.569 59.8913 76.7538 59.8913C76.8924 59.8913 77.0061 59.8842 77.095 59.8699C77.1838 59.8522 77.2549 59.838 77.3082 59.8273L77.564 60.9574C77.4787 60.9893 77.3597 61.0213 77.2069 61.0533C77.0541 61.0888 76.8604 61.1066 76.6259 61.1066C76.2705 61.1066 75.9223 61.0302 75.5811 60.8774C75.2435 60.7246 74.9628 60.4918 74.7389 60.1791C74.5186 59.8664 74.4084 59.4719 74.4084 58.9958V50.8509ZM80.741 50.0833V61H79.483V50.0833H80.741ZM86.4779 61.1706C85.6889 61.1706 85.0084 60.9964 84.4363 60.6482C83.8677 60.2964 83.4288 59.806 83.1197 59.177C82.8141 58.5444 82.6613 57.8088 82.6613 56.9702C82.6613 56.1315 82.8141 55.3924 83.1197 54.7527C83.4288 54.1095 83.8588 53.6085 84.4096 53.2496C84.964 52.8871 85.6108 52.7058 86.3499 52.7058C86.7764 52.7058 87.1975 52.7769 87.6132 52.9191C88.029 53.0612 88.4075 53.2922 88.7486 53.612C89.0898 53.9283 89.3616 54.3476 89.5642 54.87C89.7667 55.3924 89.868 56.0356 89.868 56.7996V57.3327H83.5568V56.2453H88.5887C88.5887 55.7833 88.4963 55.3711 88.3115 55.0086C88.1303 54.6461 87.8709 54.3601 87.5333 54.1504C87.1992 53.9407 86.8048 53.8359 86.3499 53.8359C85.8489 53.8359 85.4153 53.9603 85.0493 54.209C84.6868 54.4542 84.4079 54.7741 84.2124 55.1685C84.017 55.563 83.9192 55.9858 83.9192 56.4371V57.1621C83.9192 57.7804 84.0259 58.3046 84.2391 58.7346C84.4558 59.161 84.7561 59.4862 85.1399 59.71C85.5237 59.9304 85.9697 60.0405 86.4779 60.0405C86.8083 60.0405 87.1068 59.9943 87.3734 59.9019C87.6434 59.806 87.8762 59.6638 88.0717 59.4755C88.2671 59.2836 88.4181 59.0455 88.5247 58.7612L89.7401 59.1024C89.6121 59.5146 89.3972 59.8771 89.0951 60.1898C88.793 60.4989 88.4199 60.7406 87.9757 60.9147C87.5315 61.0853 87.0322 61.1706 86.4779 61.1706ZM103.231 57.1621L96.3658 60.6589V59.2943L101.632 56.757L101.59 56.8423V56.629L101.632 56.7143L96.3658 54.177V52.8125L103.231 56.3092V57.1621ZM66.4794 79.1706C65.7971 79.1706 65.1948 78.9982 64.6724 78.6535C64.15 78.3053 63.7413 77.8149 63.4464 77.1823C63.1514 76.5462 63.004 75.7946 63.004 74.9275C63.004 74.0676 63.1514 73.3213 63.4464 72.6888C63.7413 72.0562 64.1518 71.5676 64.6777 71.2229C65.2036 70.8782 65.8113 70.7058 66.5007 70.7058C67.0338 70.7058 67.4549 70.7947 67.764 70.9724C68.0768 71.1465 68.3148 71.3455 68.4783 71.5694C68.6453 71.7897 68.775 71.9709 68.8674 72.1131H68.974V68.0833H70.232V79H69.0167V77.742H68.8674C68.775 77.8913 68.6436 78.0796 68.473 78.307C68.3024 78.5309 68.059 78.7317 67.7427 78.9094C67.4264 79.0835 67.0053 79.1706 66.4794 79.1706ZM66.65 78.0405C67.1546 78.0405 67.581 77.909 67.9293 77.6461C68.2775 77.3795 68.5423 77.0117 68.7235 76.5427C68.9047 76.07 68.9954 75.5246 68.9954 74.9062C68.9954 74.295 68.9065 73.7602 68.7288 73.3018C68.5512 72.8398 68.2882 72.4809 67.9399 72.225C67.5917 71.9656 67.1617 71.8359 66.65 71.8359C66.1169 71.8359 65.6727 71.9727 65.3174 72.2463C64.9656 72.5164 64.7008 72.8842 64.5231 73.3497C64.349 73.8117 64.2619 74.3305 64.2619 74.9062C64.2619 75.489 64.3508 76.0185 64.5285 76.4947C64.7097 76.9673 64.9762 77.344 65.328 77.6247C65.6834 77.9019 66.124 78.0405 66.65 78.0405ZM76.0369 79.1706C75.2977 79.1706 74.6492 78.9947 74.0913 78.6429C73.5369 78.2911 73.1034 77.7989 72.7906 77.1663C72.4815 76.5338 72.3269 75.7946 72.3269 74.9489C72.3269 74.096 72.4815 73.3515 72.7906 72.7154C73.1034 72.0793 73.5369 71.5854 74.0913 71.2336C74.6492 70.8818 75.2977 70.7058 76.0369 70.7058C76.776 70.7058 77.4228 70.8818 77.9771 71.2336C78.5351 71.5854 78.9686 72.0793 79.2778 72.7154C79.5905 73.3515 79.7468 74.096 79.7468 74.9489C79.7468 75.7946 79.5905 76.5338 79.2778 77.1663C78.9686 77.7989 78.5351 78.2911 77.9771 78.6429C77.4228 78.9947 76.776 79.1706 76.0369 79.1706ZM76.0369 78.0405C76.5983 78.0405 77.0603 77.8966 77.4228 77.6088C77.7852 77.3209 78.0535 76.9425 78.2277 76.4734C78.4018 76.0043 78.4889 75.4961 78.4889 74.9489C78.4889 74.4016 78.4018 73.8917 78.2277 73.419C78.0535 72.9464 77.7852 72.5644 77.4228 72.273C77.0603 71.9816 76.5983 71.8359 76.0369 71.8359C75.4754 71.8359 75.0134 71.9816 74.651 72.273C74.2885 72.5644 74.0202 72.9464 73.8461 73.419C73.6719 73.8917 73.5849 74.4016 73.5849 74.9489C73.5849 75.4961 73.6719 76.0043 73.8461 76.4734C74.0202 76.9425 74.2885 77.3209 74.651 77.6088C75.0134 77.8966 75.4754 78.0405 76.0369 78.0405ZM82.9251 74.0747V79H81.6671V70.8125H82.8825V72.0918H82.9891C83.181 71.676 83.4724 71.3419 83.8633 71.0896C84.2542 70.8338 84.7588 70.7058 85.3771 70.7058C85.9315 70.7058 86.4166 70.8196 86.8323 71.047C87.2481 71.2709 87.5715 71.612 87.8025 72.0704C88.0334 72.5253 88.1489 73.101 88.1489 73.7975V79H86.891V73.8828C86.891 73.2396 86.7239 72.7385 86.3899 72.3796C86.0559 72.0171 85.5974 71.8359 85.0146 71.8359C84.6131 71.8359 84.2542 71.923 83.9379 72.0971C83.6252 72.2712 83.3782 72.5253 83.197 72.8593C83.0157 73.1934 82.9251 73.5985 82.9251 74.0747ZM93.8805 79.1706C93.0916 79.1706 92.4111 78.9964 91.8389 78.6482C91.2704 78.2964 90.8315 77.806 90.5223 77.177C90.2167 76.5444 90.0639 75.8088 90.0639 74.9702C90.0639 74.1315 90.2167 73.3924 90.5223 72.7527C90.8315 72.1095 91.2615 71.6085 91.8123 71.2496C92.3666 70.8871 93.0134 70.7058 93.7526 70.7058C94.179 70.7058 94.6001 70.7769 95.0159 70.9191C95.4316 71.0612 95.8101 71.2922 96.1513 71.612C96.4924 71.9283 96.7643 72.3476 96.9668 72.87C97.1694 73.3924 97.2706 74.0356 97.2706 74.7996V75.3327H90.9594V74.2453H95.9913C95.9913 73.7833 95.8989 73.3711 95.7142 73.0086C95.5329 72.6461 95.2735 72.3601 94.9359 72.1504C94.6019 71.9407 94.2074 71.8359 93.7526 71.8359C93.2515 71.8359 92.818 71.9603 92.4519 72.209C92.0895 72.4542 91.8105 72.7741 91.6151 73.1685C91.4196 73.563 91.3219 73.9858 91.3219 74.4371V75.1621C91.3219 75.7804 91.4285 76.3046 91.6417 76.7346C91.8585 77.161 92.1588 77.4862 92.5426 77.71C92.9263 77.9304 93.3723 78.0405 93.8805 78.0405C94.211 78.0405 94.5095 77.9943 94.776 77.9019C95.0461 77.806 95.2788 77.6638 95.4743 77.4755C95.6697 77.2836 95.8208 77.0455 95.9274 76.7612L97.1427 77.1024C97.0148 77.5146 96.7998 77.8771 96.4977 78.1898C96.1957 78.4989 95.8225 78.7406 95.3783 78.9147C94.9341 79.0853 94.4349 79.1706 93.8805 79.1706Z" fill="#B1B1B1"/>
<defs>
<filter id="filter0_d_932_669" x="19.9583" y="239.748" width="56.5619" height="34.9357" filterUnits="userSpaceOnUse" color-interpolation-filters="sRGB">
<feFlood flood-opacity="0" result="BackgroundImageFix"/>
<feColorMatrix in="SourceAlpha" type="matrix" values="0 0 0 0 0 0 0 0 0 0 0 0 0 0 0 0 0 0 127 0" result="hardAlpha"/>
<feOffset dy="1.25087"/>
<feGaussianBlur stdDeviation="1.87631"/>
<feComposite in2="hardAlpha" operator="out"/>
<feColorMatrix type="matrix" values="0 0 0 0 0 0 0 0 0 0 0 0 0 0 0 0 0 0 0.16 0"/>
<feBlend mode="normal" in2="BackgroundImageFix" result="effect1_dropShadow_932_669"/>
<feBlend mode="normal" in="SourceGraphic" in2="effect1_dropShadow_932_669" result="shape"/>
</filter>
<filter id="filter1_d_932_669" x="78.0091" y="239.748" width="56.5619" height="34.9357" filterUnits="userSpaceOnUse" color-interpolation-filters="sRGB">
<feFlood flood-opacity="0" result="BackgroundImageFix"/>
<feColorMatrix in="SourceAlpha" type="matrix" values="0 0 0 0 0 0 0 0 0 0 0 0 0 0 0 0 0 0 127 0" result="hardAlpha"/>
<feOffset dy="1.25087"/>
<feGaussianBlur stdDeviation="1.87631"/>
<feComposite in2="hardAlpha" operator="out"/>
<feColorMatrix type="matrix" values="0 0 0 0 0 0 0 0 0 0 0 0 0 0 0 0 0 0 0.16 0"/>
<feBlend mode="normal" in2="BackgroundImageFix" result="effect1_dropShadow_932_669"/>
<feBlend mode="normal" in="SourceGraphic" in2="effect1_dropShadow_932_669" result="shape"/>
</filter>
<filter id="filter2_d_932_669" x="136.058" y="239.748" width="57.7006" height="34.9357" filterUnits="userSpaceOnUse" color-interpolation-filters="sRGB">
<feFlood flood-opacity="0" result="BackgroundImageFix"/>
<feColorMatrix in="SourceAlpha" type="matrix" values="0 0 0 0 0 0 0 0 0 0 0 0 0 0 0 0 0 0 127 0" result="hardAlpha"/>
<feOffset dy="1.25087"/>
<feGaussianBlur stdDeviation="1.87631"/>
<feComposite in2="hardAlpha" operator="out"/>
<feColorMatrix type="matrix" values="0 0 0 0 0 0 0 0 0 0 0 0 0 0 0 0 0 0 0.16 0"/>
<feBlend mode="normal" in2="BackgroundImageFix" result="effect1_dropShadow_932_669"/>
<feBlend mode="normal" in="SourceGraphic" in2="effect1_dropShadow_932_669" result="shape"/>
</filter>
<filter id="filter3_d_932_669" x="195.245" y="239.748" width="64.5306" height="34.9357" filterUnits="userSpaceOnUse" color-interpolation-filters="sRGB">
<feFlood flood-opacity="0" result="BackgroundImageFix"/>
<feColorMatrix in="SourceAlpha" type="matrix" values="0 0 0 0 0 0 0 0 0 0 0 0 0 0 0 0 0 0 127 0" result="hardAlpha"/>
<feOffset dy="1.25087"/>
<feGaussianBlur stdDeviation="1.87631"/>
<feComposite in2="hardAlpha" operator="out"/>
<feColorMatrix type="matrix" values="0 0 0 0 0 0 0 0 0 0 0 0 0 0 0 0 0 0 0.16 0"/>
<feBlend mode="normal" in2="BackgroundImageFix" result="effect1_dropShadow_932_669"/>
<feBlend mode="normal" in="SourceGraphic" in2="effect1_dropShadow_932_669" result="shape"/>
</filter>
<filter id="filter4_d_932_669" x="261.265" y="239.748" width="59.976" height="34.9357" filterUnits="userSpaceOnUse" color-interpolation-filters="sRGB">
<feFlood flood-opacity="0" result="BackgroundImageFix"/>
<feColorMatrix in="SourceAlpha" type="matrix" values="0 0 0 0 0 0 0 0 0 0 0 0 0 0 0 0 0 0 127 0" result="hardAlpha"/>
<feOffset dy="1.25087"/>
<feGaussianBlur stdDeviation="1.87631"/>
<feComposite in2="hardAlpha" operator="out"/>
<feColorMatrix type="matrix" values="0 0 0 0 0 0 0 0 0 0 0 0 0 0 0 0 0 0 0.16 0"/>
<feBlend mode="normal" in2="BackgroundImageFix" result="effect1_dropShadow_932_669"/>
<feBlend mode="normal" in="SourceGraphic" in2="effect1_dropShadow_932_669" result="shape"/>
</filter>
<radialGradient id="paint0_radial_932_669" cx="0" cy="0" r="1" gradientUnits="userSpaceOnUse" gradientTransform="translate(1 1) rotate(55.1042) scale(555.105 590.121)">
<stop stop-color="#1B1B1B" stop-opacity="0"/>
<stop offset="0.494792" stop-color="#1B1B1B"/>
</radialGradient>
<radialGradient id="paint1_radial_932_669" cx="0" cy="0" r="1" gradientUnits="userSpaceOnUse" gradientTransform="translate(184.825 222.956) rotate(-9.46232) scale(193.861 720.551)">
<stop stop-color="#828282"/>
<stop offset="0.675" stop-color="#1B1B1B" stop-opacity="0"/>
</radialGradient>
<radialGradient id="paint2_radial_932_669" cx="0" cy="0" r="1" gradientUnits="userSpaceOnUse" gradientTransform="translate(15.9041 34.3422) rotate(64.4473) scale(434.564 303.432)">
<stop stop-color="#171717"/>
<stop offset="1" stop-color="#1B1B1B" stop-opacity="0"/>
</radialGradient>
<linearGradient id="paint3_linear_932_669" x1="158.647" y1="187.671" x2="158.647" y2="214.989" gradientUnits="userSpaceOnUse">
<stop stop-color="white"/>
<stop offset="0.317708" stop-color="white" stop-opacity="0"/>
</linearGradient>
<radialGradient id="paint4_radial_932_669" cx="0" cy="0" r="1" gradientTransform="matrix(10.7066 19.1223 -105.968 59.3302 37.5316 250.501)" gradientUnits="userSpaceOnUse">
<stop stop-color="white"/>
<stop offset="1" stop-color="white" stop-opacity="0"/>
</radialGradient>
<radialGradient id="paint5_radial_932_669" cx="0" cy="0" r="1" gradientTransform="matrix(2.07841 27.3177 -53.4151 4.06389 46.1607 242.306)" gradientUnits="userSpaceOnUse">
<stop stop-color="white" stop-opacity="0.48"/>
<stop offset="1" stop-color="white" stop-opacity="0.04"/>
</radialGradient>
<linearGradient id="paint6_linear_932_669" x1="47.0998" y1="246.859" x2="47.0998" y2="265.071" gradientUnits="userSpaceOnUse">
<stop stop-color="white"/>
<stop offset="1" stop-color="#DEDEDE"/>
</linearGradient>
<radialGradient id="paint7_radial_932_669" cx="0" cy="0" r="1" gradientTransform="matrix(10.7066 19.1223 -105.968 59.3302 95.5843 250.501)" gradientUnits="userSpaceOnUse">
<stop stop-color="white"/>
<stop offset="1" stop-color="white" stop-opacity="0"/>
</radialGradient>
<radialGradient id="paint8_radial_932_669" cx="0" cy="0" r="1" gradientTransform="matrix(2.07841 27.3177 -53.4151 4.06389 104.211 242.306)" gradientUnits="userSpaceOnUse">
<stop stop-color="white" stop-opacity="0.48"/>
<stop offset="1" stop-color="white" stop-opacity="0.04"/>
</radialGradient>
<linearGradient id="paint9_linear_932_669" x1="105.152" y1="246.859" x2="105.152" y2="265.071" gradientUnits="userSpaceOnUse">
<stop stop-color="white"/>
<stop offset="1" stop-color="#DEDEDE"/>
</linearGradient>
<radialGradient id="paint10_radial_932_669" cx="0" cy="0" r="1" gradientTransform="matrix(10.9556 19.1223 -107.227 61.4316 153.951 250.501)" gradientUnits="userSpaceOnUse">
<stop stop-color="white"/>
<stop offset="1" stop-color="white" stop-opacity="0"/>
</radialGradient>
<radialGradient id="paint11_radial_932_669" cx="0" cy="0" r="1" gradientTransform="matrix(2.12675 27.3176 -54.6426 4.25397 162.782 242.306)" gradientUnits="userSpaceOnUse">
<stop stop-color="white" stop-opacity="0.48"/>
<stop offset="1" stop-color="white" stop-opacity="0.04"/>
</radialGradient>
<linearGradient id="paint12_linear_932_669" x1="163.768" y1="246.859" x2="163.768" y2="265.071" gradientUnits="userSpaceOnUse">
<stop stop-color="white"/>
<stop offset="1" stop-color="#DEDEDE"/>
</linearGradient>
<radialGradient id="paint13_radial_932_669" cx="0" cy="0" r="1" gradientTransform="matrix(12.4496 19.1224 -113.666 74.0005 215.061 250.501)" gradientUnits="userSpaceOnUse">
<stop stop-color="white"/>
<stop offset="1" stop-color="white" stop-opacity="0"/>
</radialGradient>
<radialGradient id="paint14_radial_932_669" cx="0" cy="0" r="1" gradientTransform="matrix(2.41677 27.3176 -61.985 5.48365 225.094 242.306)" gradientUnits="userSpaceOnUse">
<stop stop-color="white" stop-opacity="0.48"/>
<stop offset="1" stop-color="white" stop-opacity="0.04"/>
</radialGradient>
<linearGradient id="paint15_linear_932_669" x1="226.372" y1="246.859" x2="226.372" y2="265.071" gradientUnits="userSpaceOnUse">
<stop stop-color="white"/>
<stop offset="1" stop-color="#DEDEDE"/>
</linearGradient>
<radialGradient id="paint16_radial_932_669" cx="0" cy="0" r="1" gradientTransform="matrix(11.4536 19.1224 -109.583 65.6353 279.798 250.501)" gradientUnits="userSpaceOnUse">
<stop stop-color="white"/>
<stop offset="1" stop-color="white" stop-opacity="0"/>
</radialGradient>
<radialGradient id="paint17_radial_932_669" cx="0" cy="0" r="1" gradientTransform="matrix(2.22344 27.3177 -57.0943 4.64691 289.03 242.306)" gradientUnits="userSpaceOnUse">
<stop stop-color="white" stop-opacity="0.48"/>
<stop offset="1" stop-color="white" stop-opacity="0.04"/>
</radialGradient>
<linearGradient id="paint18_linear_932_669" x1="290.114" y1="246.859" x2="290.114" y2="265.071" gradientUnits="userSpaceOnUse">
<stop stop-color="white"/>
<stop offset="1" stop-color="#DEDEDE"/>
</linearGradient>
</defs>
</svg>
