<svg width="319" height="457" viewBox="0 0 319 457" fill="none" xmlns="http://www.w3.org/2000/svg">
<mask id="mask0_647_10946" style="mask-type:luminance" maskUnits="userSpaceOnUse" x="1" y="1" width="318" height="456">
<path d="M300.356 1H19.2118C9.15369 1 1 9.15369 1 19.2118V438.083C1 448.141 9.15369 456.294 19.2118 456.294H300.356C310.414 456.294 318.568 448.141 318.568 438.083V19.2118C318.568 9.15369 310.414 1 300.356 1Z" fill="white"/>
</mask>
<g mask="url(#mask0_647_10946)">
<path d="M300.356 1H19.2118C9.15369 1 1 9.15369 1 19.2118V438.083C1 448.141 9.15369 456.294 19.2118 456.294H300.356C310.414 456.294 318.568 448.141 318.568 438.083V19.2118C318.568 9.15369 310.414 1 300.356 1Z" fill="url(#paint0_radial_647_10946)" fill-opacity="0.6"/>
<path d="M300.356 1H19.2118C9.15369 1 1 9.15369 1 19.2118V438.083C1 448.141 9.15369 456.294 19.2118 456.294H300.356C310.414 456.294 318.568 448.141 318.568 438.083V19.2118C318.568 9.15369 310.414 1 300.356 1Z" fill="url(#paint1_radial_647_10946)" fill-opacity="0.15"/>
<path d="M316.291 1H1V456.294H316.291V1Z" fill="url(#paint2_radial_647_10946)"/>
<path d="M155.23 424.424L155.23 16.9354" stroke="url(#paint3_radial_647_10946)" stroke-width="1.25087"/>
<path d="M250.275 219.541C250.275 224.57 246.198 228.647 241.169 228.647H154.662V142.141H241.169C246.198 142.141 250.275 146.218 250.275 151.247V219.541Z" fill="#202021" fill-opacity="0.2"/>
<mask id="mask1_647_10946" style="mask-type:luminance" maskUnits="userSpaceOnUse" x="154" y="142" width="97" height="87">
<path d="M250.275 219.541C250.275 224.57 246.198 228.647 241.169 228.647H154.662V142.141H241.169C246.198 142.141 250.275 146.218 250.275 151.247V219.541Z" fill="white"/>
</mask>
<g mask="url(#mask1_647_10946)">
<path d="M154.662 228.647H153.523V229.785H154.662V228.647ZM154.662 142.141V141.002H153.523V142.141H154.662ZM241.169 227.508H154.662V229.785H241.169V227.508ZM155.8 228.647V142.141H153.523V228.647H155.8ZM154.662 143.279H241.169V141.002H154.662V143.279ZM249.136 151.247V219.541H251.413V151.247H249.136ZM241.169 143.279C245.569 143.279 249.136 146.846 249.136 151.247H251.413C251.413 145.588 246.827 141.002 241.169 141.002V143.279ZM241.169 229.785C246.827 229.785 251.413 225.199 251.413 219.541H249.136C249.136 223.941 245.569 227.508 241.169 227.508V229.785Z" fill="#272729"/>
</g>
<path d="M78.4009 142.142C73.3718 142.142 69.2949 146.219 69.2949 151.247V219.542C69.2949 224.57 73.3718 228.648 78.4009 228.648H155.802V211.667C155.802 206.854 159.772 203.066 163.928 200.637C169.284 197.508 172.876 191.747 172.876 185.158C172.876 176.764 169.353 171.737 164.083 169.208C159.741 167.126 155.802 163.463 155.802 158.649V142.142H78.4009Z" fill="url(#paint4_linear_647_10946)"/>
<path d="M78.4009 142.142C73.3718 142.142 69.2949 146.219 69.2949 151.247V219.542C69.2949 224.57 73.3718 228.648 78.4009 228.648H155.802V211.667C155.802 206.854 159.772 203.066 163.928 200.637C169.284 197.508 172.876 191.747 172.876 185.158C172.876 176.764 169.353 171.737 164.083 169.208C159.741 167.126 155.802 163.463 155.802 158.649V142.142H78.4009Z" fill="url(#paint5_radial_647_10946)" fill-opacity="0.1"/>
<path d="M69.8652 151.248C69.8652 146.533 73.6874 142.711 78.4021 142.711H155.234V158.65C155.234 163.799 159.433 167.609 163.838 169.721C166.381 170.941 168.489 172.757 169.966 175.272C171.444 177.79 172.308 181.041 172.308 185.158C172.308 191.534 168.833 197.113 163.642 200.146C159.452 202.595 155.234 206.53 155.234 211.667V228.079H78.4021C73.6874 228.079 69.8652 224.256 69.8652 219.542V151.248Z" stroke="#272729" stroke-width="1.25087"/>
<path d="M69.8652 151.248C69.8652 146.533 73.6874 142.711 78.4021 142.711H155.234V158.65C155.234 163.799 159.433 167.609 163.838 169.721C166.381 170.941 168.489 172.757 169.966 175.272C171.444 177.79 172.308 181.041 172.308 185.158C172.308 191.534 168.833 197.113 163.642 200.146C159.452 202.595 155.234 206.53 155.234 211.667V228.079H78.4021C73.6874 228.079 69.8652 224.256 69.8652 219.542V151.248Z" stroke="url(#paint6_radial_647_10946)" stroke-opacity="0.3" stroke-width="1.25087"/>
<g filter="url(#filter0_ddi_647_10946)">
<path d="M123.931 164.906H101.167C96.1374 164.906 92.0605 168.983 92.0605 174.012V196.777C92.0605 201.806 96.1374 205.883 101.167 205.883H123.931C128.961 205.883 133.037 201.806 133.037 196.777V174.012C133.037 168.983 128.961 164.906 123.931 164.906Z" fill="url(#paint7_linear_647_10946)"/>
<path d="M123.931 164.906H101.167C96.1374 164.906 92.0605 168.983 92.0605 174.012V196.777C92.0605 201.806 96.1374 205.883 101.167 205.883H123.931C128.961 205.883 133.037 201.806 133.037 196.777V174.012C133.037 168.983 128.961 164.906 123.931 164.906Z" fill="url(#paint8_radial_647_10946)" fill-opacity="0.1"/>
<path d="M123.931 164.565H101.166C95.9485 164.565 91.7188 168.795 91.7188 174.012V196.777C91.7188 201.995 95.9485 206.224 101.166 206.224H123.931C129.149 206.224 133.379 201.995 133.379 196.777V174.012C133.379 168.795 129.149 164.565 123.931 164.565Z" stroke="white" stroke-opacity="0.05" stroke-width="0.750525"/>
<path d="M123.931 164.565H101.166C95.9485 164.565 91.7188 168.795 91.7188 174.012V196.777C91.7188 201.995 95.9485 206.224 101.166 206.224H123.931C129.149 206.224 133.379 201.995 133.379 196.777V174.012C133.379 168.795 129.149 164.565 123.931 164.565Z" stroke="url(#paint9_radial_647_10946)" stroke-opacity="0.3" stroke-width="0.750525"/>
<path d="M123.931 164.565H101.166C95.9485 164.565 91.7188 168.795 91.7188 174.012V196.777C91.7188 201.995 95.9485 206.224 101.166 206.224H123.931C129.149 206.224 133.379 201.995 133.379 196.777V174.012C133.379 168.795 129.149 164.565 123.931 164.565Z" stroke="url(#paint10_radial_647_10946)" stroke-opacity="0.2" stroke-width="0.750525"/>
<g filter="url(#filter1_i_647_10946)">
<path d="M114.45 178.544C115.192 178.544 115.825 178.827 116.348 179.395C116.915 179.918 117.199 180.573 117.199 181.358V189.734H114.45V199.484H108.823V189.734H106.074V181.358C106.074 180.573 106.336 179.918 106.859 179.395C107.427 178.827 108.081 178.544 108.823 178.544H114.45ZM108.823 174.356C108.823 175.141 109.084 175.817 109.608 176.384C110.175 176.908 110.851 177.17 111.637 177.17C112.422 177.17 113.076 176.908 113.6 176.384C114.167 175.817 114.45 175.141 114.45 174.356C114.45 173.614 114.167 172.982 113.6 172.458C113.076 171.891 112.422 171.607 111.637 171.607C110.851 171.607 110.175 171.891 109.608 172.458C109.084 172.982 108.823 173.614 108.823 174.356Z" fill="white"/>
</g>
</g>
<g filter="url(#filter2_ddi_647_10946)">
<path d="M221.818 164.906H199.053C194.024 164.906 189.947 168.983 189.947 174.012V196.777C189.947 201.806 194.024 205.883 199.053 205.883H221.818C226.847 205.883 230.924 201.806 230.924 196.777V174.012C230.924 168.983 226.847 164.906 221.818 164.906Z" fill="url(#paint11_linear_647_10946)"/>
<path d="M221.82 164.565H199.055C193.837 164.565 189.607 168.795 189.607 174.012V196.777C189.607 201.995 193.837 206.224 199.055 206.224H221.82C227.038 206.224 231.267 201.995 231.267 196.777V174.012C231.267 168.795 227.038 164.565 221.82 164.565Z" stroke="white" stroke-opacity="0.05" stroke-width="0.750525"/>
<path d="M221.82 164.565H199.055C193.837 164.565 189.607 168.795 189.607 174.012V196.777C189.607 201.995 193.837 206.224 199.055 206.224H221.82C227.038 206.224 231.267 201.995 231.267 196.777V174.012C231.267 168.795 227.038 164.565 221.82 164.565Z" stroke="url(#paint12_radial_647_10946)" stroke-opacity="0.2" stroke-width="0.750525"/>
<path d="M204.722 191.086H202.865L207.036 179.496H209.056L213.227 191.086H211.37L208.094 181.602H208.003L204.722 191.086ZM205.032 186.547H211.054V188.018H205.032V186.547ZM216.49 179.496V191.086H214.741V179.496H216.49Z" fill="white"/>
<path d="M204.722 191.086H202.865L207.036 179.496H209.056L213.227 191.086H211.37L208.094 181.602H208.003L204.722 191.086ZM205.032 186.547H211.054V188.018H205.032V186.547ZM216.49 179.496V191.086H214.741V179.496H216.49Z" fill="url(#paint13_linear_647_10946)"/>
</g>
<g opacity="0.2" filter="url(#filter3_f_647_10946)">
<path d="M96.6125 176.289C96.6125 161.202 84.3818 148.971 69.2945 148.971C54.2072 148.971 41.9766 161.202 41.9766 176.289V185.395C41.9766 200.482 54.2072 212.712 69.2945 212.712C84.3818 212.712 96.6125 200.482 96.6125 185.395V176.289Z" fill="#24E98A"/>
</g>
</g>
<path d="M300.357 1.56934H19.213C9.4692 1.56934 1.57031 9.46822 1.57031 19.212V438.083C1.57031 447.827 9.4692 455.725 19.213 455.725H300.357C310.101 455.725 318 447.827 318 438.083V19.212C318 9.46822 310.101 1.56934 300.357 1.56934Z" stroke="white" stroke-opacity="0.02" stroke-width="1.25087"/>
<defs>
<filter id="filter0_ddi_647_10946" x="81.3368" y="156.684" width="62.4242" height="62.4242" filterUnits="userSpaceOnUse" color-interpolation-filters="sRGB">
<feFlood flood-opacity="0" result="BackgroundImageFix"/>
<feColorMatrix in="SourceAlpha" type="matrix" values="0 0 0 0 0 0 0 0 0 0 0 0 0 0 0 0 0 0 127 0" result="hardAlpha"/>
<feOffset dy="2.50175"/>
<feGaussianBlur stdDeviation="5.0035"/>
<feColorMatrix type="matrix" values="0 0 0 0 0 0 0 0 0 0 0 0 0 0 0 0 0 0 0.2 0"/>
<feBlend mode="normal" in2="BackgroundImageFix" result="effect1_dropShadow_647_10946"/>
<feColorMatrix in="SourceAlpha" type="matrix" values="0 0 0 0 0 0 0 0 0 0 0 0 0 0 0 0 0 0 127 0" result="hardAlpha"/>
<feOffset dy="1.25087"/>
<feGaussianBlur stdDeviation="0.625437"/>
<feColorMatrix type="matrix" values="0 0 0 0 0 0 0 0 0 0 0 0 0 0 0 0 0 0 0.1 0"/>
<feBlend mode="normal" in2="effect1_dropShadow_647_10946" result="effect2_dropShadow_647_10946"/>
<feBlend mode="normal" in="SourceGraphic" in2="effect2_dropShadow_647_10946" result="shape"/>
<feColorMatrix in="SourceAlpha" type="matrix" values="0 0 0 0 0 0 0 0 0 0 0 0 0 0 0 0 0 0 127 0" result="hardAlpha"/>
<feOffset/>
<feGaussianBlur stdDeviation="2.50175"/>
<feComposite in2="hardAlpha" operator="arithmetic" k2="-1" k3="1"/>
<feColorMatrix type="matrix" values="0 0 0 0 1 0 0 0 0 1 0 0 0 0 1 0 0 0 0.1 0"/>
<feBlend mode="normal" in2="shape" result="effect3_innerShadow_647_10946"/>
</filter>
<filter id="filter1_i_647_10946" x="106.074" y="171.232" width="11.125" height="28.2522" filterUnits="userSpaceOnUse" color-interpolation-filters="sRGB">
<feFlood flood-opacity="0" result="BackgroundImageFix"/>
<feBlend mode="normal" in="SourceGraphic" in2="BackgroundImageFix" result="shape"/>
<feColorMatrix in="SourceAlpha" type="matrix" values="0 0 0 0 0 0 0 0 0 0 0 0 0 0 0 0 0 0 127 0" result="hardAlpha"/>
<feOffset dy="-0.375262"/>
<feGaussianBlur stdDeviation="0.375262"/>
<feComposite in2="hardAlpha" operator="arithmetic" k2="-1" k3="1"/>
<feColorMatrix type="matrix" values="0 0 0 0 0 0 0 0 0 0 0 0 0 0 0 0 0 0 0.45 0"/>
<feBlend mode="normal" in2="shape" result="effect1_innerShadow_647_10946"/>
</filter>
<filter id="filter2_ddi_647_10946" x="179.225" y="156.684" width="62.4242" height="62.4242" filterUnits="userSpaceOnUse" color-interpolation-filters="sRGB">
<feFlood flood-opacity="0" result="BackgroundImageFix"/>
<feColorMatrix in="SourceAlpha" type="matrix" values="0 0 0 0 0 0 0 0 0 0 0 0 0 0 0 0 0 0 127 0" result="hardAlpha"/>
<feOffset dy="2.50175"/>
<feGaussianBlur stdDeviation="5.0035"/>
<feColorMatrix type="matrix" values="0 0 0 0 0 0 0 0 0 0 0 0 0 0 0 0 0 0 0.2 0"/>
<feBlend mode="normal" in2="BackgroundImageFix" result="effect1_dropShadow_647_10946"/>
<feColorMatrix in="SourceAlpha" type="matrix" values="0 0 0 0 0 0 0 0 0 0 0 0 0 0 0 0 0 0 127 0" result="hardAlpha"/>
<feOffset dy="1.25087"/>
<feGaussianBlur stdDeviation="0.625437"/>
<feColorMatrix type="matrix" values="0 0 0 0 0 0 0 0 0 0 0 0 0 0 0 0 0 0 0.1 0"/>
<feBlend mode="normal" in2="effect1_dropShadow_647_10946" result="effect2_dropShadow_647_10946"/>
<feBlend mode="normal" in="SourceGraphic" in2="effect2_dropShadow_647_10946" result="shape"/>
<feColorMatrix in="SourceAlpha" type="matrix" values="0 0 0 0 0 0 0 0 0 0 0 0 0 0 0 0 0 0 127 0" result="hardAlpha"/>
<feOffset/>
<feGaussianBlur stdDeviation="2.50175"/>
<feComposite in2="hardAlpha" operator="arithmetic" k2="-1" k3="1"/>
<feColorMatrix type="matrix" values="0 0 0 0 1 0 0 0 0 1 0 0 0 0 1 0 0 0 0.1 0"/>
<feBlend mode="normal" in2="shape" result="effect3_innerShadow_647_10946"/>
</filter>
<filter id="filter3_f_647_10946" x="-53.0899" y="53.9047" width="244.77" height="253.874" filterUnits="userSpaceOnUse" color-interpolation-filters="sRGB">
<feFlood flood-opacity="0" result="BackgroundImageFix"/>
<feBlend mode="normal" in="SourceGraphic" in2="BackgroundImageFix" result="shape"/>
<feGaussianBlur stdDeviation="47.5332" result="effect1_foregroundBlur_647_10946"/>
</filter>
<radialGradient id="paint0_radial_647_10946" cx="0" cy="0" r="1" gradientUnits="userSpaceOnUse" gradientTransform="translate(160.353 156.369) rotate(62.1877) scale(339.098 360.487)">
<stop stop-color="#1B1B1B" stop-opacity="0"/>
<stop offset="0.555278" stop-color="#1B1B1B"/>
</radialGradient>
<radialGradient id="paint1_radial_647_10946" cx="0" cy="0" r="1" gradientUnits="userSpaceOnUse" gradientTransform="translate(-38.2692 66.4486) rotate(45) scale(166.605 238.3)">
<stop stop-color="#24FF95"/>
<stop offset="1" stop-color="#24FF95" stop-opacity="0"/>
</radialGradient>
<radialGradient id="paint2_radial_647_10946" cx="0" cy="0" r="1" gradientUnits="userSpaceOnUse" gradientTransform="translate(-98.5957 -115.1) rotate(54.0734) scale(594.581 414.019)">
<stop stop-color="#121212"/>
<stop offset="1" stop-color="#1B1B1B" stop-opacity="0"/>
</radialGradient>
<radialGradient id="paint3_radial_647_10946" cx="0" cy="0" r="1" gradientUnits="userSpaceOnUse" gradientTransform="translate(nan nan) rotate(nan) scale(nan nan)">
<stop stop-color="#272729"/>
<stop offset="1" stop-color="#272729" stop-opacity="0"/>
</radialGradient>
<linearGradient id="paint4_linear_647_10946" x1="112.548" y1="170.597" x2="121.085" y2="228.648" gradientUnits="userSpaceOnUse">
<stop stop-color="#1B1B1C"/>
<stop offset="1" stop-color="#131313"/>
</linearGradient>
<radialGradient id="paint5_radial_647_10946" cx="0" cy="0" r="1" gradientTransform="matrix(75.6935 22.1956 -24.7199 84.3001 19.7811 163.199)" gradientUnits="userSpaceOnUse">
<stop stop-color="#24FF95"/>
<stop offset="1" stop-color="#24FF95" stop-opacity="0"/>
</radialGradient>
<radialGradient id="paint6_radial_647_10946" cx="0" cy="0" r="1" gradientTransform="matrix(56.9693 8.65059 -5.62257 37.0271 61.5276 178.186)" gradientUnits="userSpaceOnUse">
<stop stop-color="#A8FFD5"/>
<stop offset="1" stop-color="#BDFFDF" stop-opacity="0"/>
</radialGradient>
<linearGradient id="paint7_linear_647_10946" x1="112.549" y1="177.199" x2="112.549" y2="205.883" gradientUnits="userSpaceOnUse">
<stop stop-color="#1F1F21"/>
<stop offset="1" stop-color="#202022"/>
</linearGradient>
<radialGradient id="paint8_radial_647_10946" cx="0" cy="0" r="1" gradientTransform="matrix(23.2203 7.51235 -9.11901 28.1858 85.2311 179.931)" gradientUnits="userSpaceOnUse">
<stop stop-color="#24FF95"/>
<stop offset="1" stop-color="#24FF95" stop-opacity="0"/>
</radialGradient>
<radialGradient id="paint9_radial_647_10946" cx="0" cy="0" r="1" gradientTransform="matrix(22.5373 4.09763 -3.15809 17.3694 88.987 181.98)" gradientUnits="userSpaceOnUse">
<stop stop-color="#A8FFD5"/>
<stop offset="1" stop-color="#BDFFDF" stop-opacity="0"/>
</radialGradient>
<radialGradient id="paint10_radial_647_10946" cx="0" cy="0" r="1" gradientTransform="matrix(-1.67467 23.5614 -17.0962 -1.21511 110.808 164.906)" gradientUnits="userSpaceOnUse">
<stop stop-color="white" stop-opacity="0.48"/>
<stop offset="1" stop-color="white" stop-opacity="0.04"/>
</radialGradient>
<linearGradient id="paint11_linear_647_10946" x1="210.436" y1="177.199" x2="210.436" y2="205.883" gradientUnits="userSpaceOnUse">
<stop stop-color="#1F1F21"/>
<stop offset="1" stop-color="#202022"/>
</linearGradient>
<radialGradient id="paint12_radial_647_10946" cx="0" cy="0" r="1" gradientTransform="matrix(-1.67467 23.5614 -17.0962 -1.21511 208.697 164.906)" gradientUnits="userSpaceOnUse">
<stop stop-color="white" stop-opacity="0.48"/>
<stop offset="1" stop-color="white" stop-opacity="0.04"/>
</radialGradient>
<linearGradient id="paint13_linear_647_10946" x1="210.437" y1="177.427" x2="210.437" y2="193.362" gradientUnits="userSpaceOnUse">
<stop stop-color="white"/>
<stop offset="1" stop-color="#BABABA"/>
</linearGradient>
</defs>
</svg>
