<svg width="1800" height="961" viewBox="0 0 1800 961" fill="none" xmlns="http://www.w3.org/2000/svg">
<line y1="-0.5" x2="957.961" y2="-0.5" transform="matrix(1.72831e-07 1 1 -1.72831e-07 906.695 2.13379)" stroke="#F94CFF" stroke-opacity="0.12"/>
<line y1="-0.5" x2="1036.63" y2="-0.5" transform="matrix(-0.438371 0.898794 0.898794 0.438371 828.949 2.13574)" stroke="#F94CFF" stroke-opacity="0.12"/>
<path d="M1409.62 872.94L981.5 2.99998" stroke="#F94CFF" stroke-opacity="0.12"/>
<line y1="-0.5" x2="603.469" y2="-0.5" transform="matrix(-0.829038 0.559193 0.559193 0.829038 668.938 2.13574)" stroke="#F94CFF" stroke-opacity="0.12"/>
<line x1="1630.22" y1="329.2" x2="1143.72" y2="2.41505" stroke="#F94CFF" stroke-opacity="0.12"/>
<line y1="-0.5" x2="779.327" y2="-0.5" transform="matrix(-0.707107 0.707107 0.707107 0.707107 751.01 2.13574)" stroke="#F94CFF" stroke-opacity="0.12"/>
<line x1="1613.37" y1="552.207" x2="1062.3" y2="1.13982" stroke="#F94CFF" stroke-opacity="0.12"/>
<line y1="-0.5" x2="1800" y2="-0.5" transform="matrix(-1 0 0 1 1800 2.13477)" stroke="#F94CFF" stroke-opacity="0.12"/>
<line y1="-0.5" x2="1800" y2="-0.5" transform="matrix(-1 0 0 1 1800 11.7988)" stroke="#F94CFF" stroke-opacity="0.12"/>
<line y1="-0.5" x2="1800" y2="-0.5" transform="matrix(-1 0 0 1 1800 24.9141)" stroke="#F94CFF" stroke-opacity="0.12"/>
<line y1="-0.5" x2="1800" y2="-0.5" transform="matrix(-1 0 0 1 1800 39.625)" stroke="#F94CFF" stroke-opacity="0.12"/>
<line y1="-0.5" x2="1800" y2="-0.5" transform="matrix(-1 0 0 1 1800 55.9199)" stroke="#F94CFF" stroke-opacity="0.12"/>
<line y1="-0.5" x2="1800" y2="-0.5" transform="matrix(-1 0 0 1 1800 74.5859)" stroke="#F94CFF" stroke-opacity="0.12"/>
<line y1="-0.5" x2="1800" y2="-0.5" transform="matrix(-1 0 0 1 1800 97.0488)" stroke="#F94CFF" stroke-opacity="0.12"/>
<line y1="-0.5" x2="1800" y2="-0.5" transform="matrix(-1 0 0 1 1800 122.994)" stroke="#F94CFF" stroke-opacity="0.12"/>
<line y1="-0.5" x2="1800" y2="-0.5" transform="matrix(-1 0 0 1 1800 154)" stroke="#F94CFF" stroke-opacity="0.12"/>
<line y1="-0.5" x2="1800" y2="-0.5" transform="matrix(-1 0 0 1 1800 191.332)" stroke="#F94CFF" stroke-opacity="0.12"/>
<line y1="-0.5" x2="1800" y2="-0.5" transform="matrix(-1 0 0 1 1800 238.633)" stroke="#F94CFF" stroke-opacity="0.12"/>
<line y1="-0.5" x2="1800" y2="-0.5" transform="matrix(-1 0 0 1 1800 297.164)" stroke="#F94CFF" stroke-opacity="0.12"/>
<line y1="-0.5" x2="1800" y2="-0.5" transform="matrix(-1 0 0 1 1800 379.34)" stroke="#F94CFF" stroke-opacity="0.12"/>
<line y1="-0.5" x2="1800" y2="-0.5" transform="matrix(-1 0 0 1 1800 501.986)" stroke="#F94CFF" stroke-opacity="0.12"/>
</svg>
