<svg width="511" height="511" viewBox="0 0 511 511" fill="none" xmlns="http://www.w3.org/2000/svg">
<path d="M419.597 146V147H422C422.807 147 423.609 147.019 424.406 147.058L424.453 146.06C429.483 146.303 434.317 147.289 438.849 148.911L438.513 149.852C440.029 150.394 441.511 151.01 442.954 151.693L443.381 150.792C447.85 152.909 451.956 155.668 455.577 158.952L454.906 159.692C456.095 160.77 457.23 161.905 458.308 163.094L459.047 162.422C462.331 166.043 465.09 170.149 467.207 174.618L466.307 175.046C466.99 176.489 467.606 177.971 468.148 179.487L469.088 179.15C470.71 183.682 471.696 188.516 471.939 193.546L470.942 193.594C470.981 194.391 471 195.193 471 196V198.404H472V212.827H471V217.635H472V232.058H471V236.865H472V251.288H471V256.096H472V270.52H471V275.327H472V289.75H471V294.558H472V308.98H471V313.788H472V328.212H471V333.02H472V347.442H471V352.25H472V366.673H471V371.48H472V385.904H471V390.712H472V405.135H471V409.942H472V424.365H471V429.173H472V443.597H471V446C471 446.807 470.981 447.609 470.942 448.406L471.939 448.453C471.696 453.483 470.71 458.317 469.088 462.849L468.148 462.513C467.606 464.029 466.99 465.511 466.307 466.954L467.207 467.381C465.09 471.85 462.331 475.956 459.047 479.577L458.308 478.906C457.23 480.095 456.095 481.23 454.906 482.308L455.577 483.047C451.956 486.331 447.85 489.09 443.381 491.207L442.954 490.307C441.511 490.99 440.029 491.606 438.513 492.148L438.849 493.088C434.317 494.71 429.483 495.696 424.453 495.939L424.406 494.942C423.609 494.981 422.807 495 422 495H419.596V496H405.173V495H400.365V496H385.942V495H381.135V496H366.712V495H361.904V496H347.48V495H342.673V496H328.25V495H323.442V496H309.02V495H304.212V496H289.788V495H284.98V496H270.558V495H265.75V496H251.327V495H246.52V496H232.096V495H227.288V496H212.865V495H208.058V496H193.635V495H188.827V496H174.403V495H172C171.193 495 170.391 494.981 169.594 494.942L169.546 495.939C164.516 495.696 159.682 494.71 155.15 493.088L155.487 492.148C153.971 491.606 152.489 490.99 151.046 490.307L150.618 491.207C146.149 489.09 142.043 486.331 138.422 483.047L139.094 482.308C137.905 481.23 136.77 480.095 135.692 478.906L134.952 479.577C131.668 475.956 128.909 471.85 126.792 467.381L127.693 466.954C127.01 465.511 126.394 464.029 125.852 462.513L124.911 462.849C123.289 458.317 122.303 453.483 122.06 448.453L123.058 448.406C123.038 448.008 123.024 447.608 123.015 447.207L123 446V443.596H122V429.173H123V424.365H122V409.942H123V405.135H122V390.712H123V385.904H122V371.48H123V366.673H122V352.25H123V347.442H122V333.02H123V328.212H122V313.788H123V308.98H122V294.558H123V289.75H122V275.327H123V270.52H122V256.096H123V251.288H122V236.865H123V232.058H122V217.635H123V212.827H122V198.403H123V196C123 195.193 123.019 194.391 123.058 193.594L122.06 193.546C122.303 188.517 123.289 183.682 124.911 179.15L125.852 179.487C126.394 177.971 127.01 176.489 127.693 175.046L126.792 174.618C128.909 170.149 131.668 166.043 134.952 162.422L135.692 163.094C136.77 161.905 137.905 160.77 139.094 159.692L138.422 158.952C142.043 155.668 146.149 152.909 150.618 150.792L151.046 151.693C152.489 151.01 153.971 150.394 155.487 149.852L155.15 148.911C159.682 147.289 164.517 146.303 169.546 146.06L169.594 147.058C170.391 147.019 171.193 147 172 147H174.404V146H188.827V147H193.635V146H208.058V147H212.865V146H227.288V147H232.096V146H246.52V147H251.327V146H265.75V147H270.558V146H284.98V147H289.788V146H304.212V147H309.02V146H323.442V147H328.25V146H342.673V147H347.48V146H361.904V147H366.712V146H381.135V147H385.942V146H400.365V147H405.173V146H419.597Z" stroke="white" stroke-opacity="0.1" stroke-width="2" stroke-dasharray="5 15"/>
<path d="M333.463 209.963V210.963H335.963C336.77 210.963 337.572 210.982 338.369 211.021L338.416 210.022C343.445 210.265 348.279 211.252 352.812 212.874L352.476 213.814C353.992 214.357 355.474 214.973 356.917 215.656L357.344 214.755C361.813 216.872 365.919 219.631 369.54 222.915L368.869 223.655C370.057 224.733 371.193 225.868 372.271 227.057L373.01 226.385C376.294 230.006 379.052 234.112 381.17 238.581L380.27 239.009C380.953 240.452 381.569 241.934 382.111 243.45L383.051 243.113C384.673 247.645 385.659 252.479 385.902 257.509L384.905 257.557C384.944 258.354 384.963 259.156 384.963 259.963V262.463H385.963V277.463H384.963V282.463H385.963V297.463H384.963V302.463H385.963V317.463H384.963V322.463H385.963V337.463H384.963V342.463H385.963V357.463H384.963V359.963C384.963 360.77 384.944 361.572 384.905 362.369L385.902 362.416C385.659 367.446 384.673 372.279 383.051 376.812L382.111 376.476C381.569 377.992 380.953 379.474 380.27 380.917L381.17 381.344C379.052 385.813 376.294 389.919 373.01 393.54L372.271 392.869C371.193 394.057 370.057 395.193 368.869 396.271L369.54 397.01C365.919 400.294 361.813 403.052 357.344 405.17L356.917 404.27C355.474 404.953 353.992 405.569 352.476 406.111L352.812 407.051C348.279 408.673 343.446 409.659 338.416 409.902L338.369 408.905C337.572 408.944 336.77 408.963 335.963 408.963H333.463V409.963H318.463V408.963H313.463V409.963H298.463V408.963H293.463V409.963H278.463V408.963H273.463V409.963H258.463V408.963H253.463V409.963H238.463V408.963H235.963C235.156 408.963 234.354 408.944 233.557 408.905L233.509 409.902C228.479 409.659 223.645 408.673 219.113 407.051L219.45 406.111C217.934 405.569 216.452 404.953 215.009 404.27L214.581 405.17C210.112 403.052 206.006 400.294 202.385 397.01L203.057 396.271C201.868 395.193 200.733 394.057 199.655 392.869L198.915 393.54C195.631 389.919 192.872 385.813 190.755 381.344L191.656 380.917C190.973 379.474 190.357 377.992 189.814 376.476L188.874 376.812C187.252 372.279 186.265 367.445 186.022 362.416L187.021 362.369C186.982 361.572 186.963 360.77 186.963 359.963V357.463H185.963V342.463H186.963V337.463H185.963V322.463H186.963V317.463H185.963V302.463H186.963V297.463H185.963V282.463H186.963V277.463H185.963V262.463H186.963V259.963C186.963 259.156 186.982 258.354 187.021 257.557L186.022 257.509C186.266 252.479 187.252 247.645 188.874 243.113L189.814 243.45C190.357 241.934 190.973 240.452 191.656 239.009L190.755 238.581C192.872 234.112 195.631 230.006 198.915 226.385L199.655 227.057C200.733 225.868 201.868 224.733 203.057 223.655L202.385 222.915C206.006 219.631 210.112 216.872 214.581 214.755L215.009 215.656C216.452 214.973 217.934 214.357 219.45 213.814L219.113 212.874C223.645 211.252 228.479 210.266 233.509 210.022L233.557 211.021C234.354 210.982 235.156 210.963 235.963 210.963H238.463V209.963H253.463V210.963H258.463V209.963H273.463V210.963H278.463V209.963H293.463V210.963H298.463V209.963H313.463V210.963H318.463V209.963H333.463Z" stroke="white" stroke-opacity="0.2" stroke-width="2" stroke-dasharray="5 15"/>
<g style="mix-blend-mode:overlay" opacity="0.2" filter="url(#filter0_f_945_1803)">
<path d="M100.43 150.037C100.43 122.423 122.815 100.037 150.43 100.037H360.43C388.044 100.037 410.43 122.423 410.43 150.037V360.037C410.43 387.651 388.044 410.037 360.43 410.037H150.43C122.815 410.037 100.43 387.651 100.43 360.037V150.037Z" fill="#F94CFF" fill-opacity="0.46"/>
</g>
<defs>
<filter id="filter0_f_945_1803" x="0.429688" y="0.0371094" width="510" height="510" filterUnits="userSpaceOnUse" color-interpolation-filters="sRGB">
<feFlood flood-opacity="0" result="BackgroundImageFix"/>
<feBlend mode="normal" in="SourceGraphic" in2="BackgroundImageFix" result="shape"/>
<feGaussianBlur stdDeviation="50" result="effect1_foregroundBlur_945_1803"/>
</filter>
</defs>
</svg>
