<svg width="514" height="457" viewBox="0 0 514 457" fill="none" xmlns="http://www.w3.org/2000/svg">
<mask id="mask0_932_668" style="mask-type:luminance" maskUnits="userSpaceOnUse" x="1" y="1" width="513" height="456">
<path d="M494.995 1H19.2118C9.15369 1 1 9.15369 1 19.2118V438.083C1 448.141 9.15369 456.294 19.2118 456.294H494.995C505.053 456.294 513.206 448.141 513.206 438.083V19.2118C513.206 9.15369 505.053 1 494.995 1Z" fill="white"/>
</mask>
<g mask="url(#mask0_932_668)">
<path d="M494.995 0.999512H19.2118C9.15369 0.999512 1 9.1532 1 19.2113V438.082C1 448.14 9.15369 456.294 19.2118 456.294H494.995C505.053 456.294 513.206 448.14 513.206 438.082V19.2113C513.206 9.1532 505.053 0.999512 494.995 0.999512Z" fill="url(#paint0_radial_932_668)" fill-opacity="0.6"/>
<path style="mix-blend-mode:color" d="M494.995 0.999512H19.2118C9.15369 0.999512 1 9.1532 1 19.2113V438.082C1 448.14 9.15369 456.294 19.2118 456.294H494.995C505.053 456.294 513.206 448.14 513.206 438.082V19.2113C513.206 9.1532 505.053 0.999512 494.995 0.999512Z" fill="url(#paint1_radial_932_668)" fill-opacity="0.25"/>
<g style="mix-blend-mode:luminosity">
<path d="M543.939 269.623L276.105 83.5378C266.734 77.0271 254.303 77.0271 244.932 83.5378L-22.9023 269.623" stroke="#272729" stroke-width="1.25087"/>
<path d="M543.939 269.623L276.105 83.5378C266.734 77.0271 254.303 77.0271 244.932 83.5378L-22.9023 269.623" stroke="black" stroke-opacity="0.2" stroke-width="1.25087"/>
<path d="M615.648 294.664L276.117 58.5157C266.74 51.9948 254.297 51.9948 244.92 58.5157L-94.6113 294.664" stroke="#272729" stroke-width="1.25087"/>
<path d="M615.648 294.664L276.117 58.5157C266.74 51.9948 254.297 51.9948 244.92 58.5157L-94.6113 294.664" stroke="black" stroke-opacity="0.2" stroke-width="1.25087"/>
<path d="M614.509 269.623L274.978 33.4742C265.601 26.9533 253.158 26.9533 243.781 33.4742L-95.75 269.623" stroke="#272729" stroke-width="1.25087"/>
<path d="M614.509 269.623L274.978 33.4742C265.601 26.9533 253.158 26.9533 243.781 33.4742L-95.75 269.623" stroke="black" stroke-opacity="0.2" stroke-width="1.25087"/>
<path d="M614.509 244.582L274.978 8.43368C265.601 1.91273 253.158 1.91273 243.781 8.43368L-95.75 244.582" stroke="#272729" stroke-width="1.25087"/>
<path d="M614.509 244.582L274.978 8.43368C265.601 1.91273 253.158 1.91273 243.781 8.43368L-95.75 244.582" stroke="black" stroke-opacity="0.2" stroke-width="1.25087"/>
<path d="M614.509 219.541L274.978 -16.6078C265.601 -23.1288 253.158 -23.1288 243.781 -16.6078L-95.75 219.541" stroke="#272729" stroke-width="1.25087"/>
<path d="M614.509 219.541L274.978 -16.6078C265.601 -23.1288 253.158 -23.1288 243.781 -16.6078L-95.75 219.541" stroke="black" stroke-opacity="0.2" stroke-width="1.25087"/>
<path d="M614.509 194.5L274.978 -41.6488C265.601 -48.1698 253.158 -48.1698 243.781 -41.6488L-95.75 194.5" stroke="#272729" stroke-width="1.25087"/>
<path d="M614.509 194.5L274.978 -41.6488C265.601 -48.1698 253.158 -48.1698 243.781 -41.6488L-95.75 194.5" stroke="black" stroke-opacity="0.2" stroke-width="1.25087"/>
<path d="M614.509 169.458L274.978 -66.6903C265.601 -73.2113 253.158 -73.2113 243.781 -66.6903L-95.75 169.458" stroke="#272729" stroke-width="1.25087"/>
<path d="M614.509 169.458L274.978 -66.6903C265.601 -73.2113 253.158 -73.2113 243.781 -66.6903L-95.75 169.458" stroke="black" stroke-opacity="0.2" stroke-width="1.25087"/>
<path d="M614.509 144.418L274.978 -91.7309C265.601 -98.2518 253.158 -98.2518 243.781 -91.7309L-95.75 144.418" stroke="#272729" stroke-width="1.25087"/>
<path d="M614.509 144.418L274.978 -91.7309C265.601 -98.2518 253.158 -98.2518 243.781 -91.7309L-95.75 144.418" stroke="black" stroke-opacity="0.2" stroke-width="1.25087"/>
<path d="M614.509 119.376L274.978 -116.772C265.601 -123.293 253.158 -123.293 243.781 -116.772L-95.75 119.376" stroke="#272729" stroke-width="1.25087"/>
<path d="M614.509 119.376L274.978 -116.772C265.601 -123.293 253.158 -123.293 243.781 -116.772L-95.75 119.376" stroke="black" stroke-opacity="0.2" stroke-width="1.25087"/>
<path d="M614.509 94.3347L274.978 -141.814C265.601 -148.335 253.158 -148.335 243.781 -141.814L-95.75 94.3347" stroke="#272729" stroke-width="1.25087"/>
<path d="M614.509 94.3347L274.978 -141.814C265.601 -148.335 253.158 -148.335 243.781 -141.814L-95.75 94.3347" stroke="black" stroke-opacity="0.2" stroke-width="1.25087"/>
</g>
<path d="M543.939 269.623L276.105 83.5374C266.734 77.0267 254.302 77.0267 244.931 83.5374L-22.9029 269.623M615.648 294.664L276.116 58.5156C266.74 51.9947 254.296 51.9947 244.92 58.5156L-94.6118 294.664M614.509 269.623L274.978 33.4744C265.601 26.9535 253.158 26.9535 243.781 33.4744L-95.75 269.623M614.509 244.582L274.978 8.43324C265.601 1.91229 253.158 1.91229 243.781 8.43324L-95.75 244.582M614.509 219.541L274.978 -16.6079C265.601 -23.1289 253.158 -23.1289 243.781 -16.6079L-95.75 219.541M614.509 194.499L274.978 -41.6491C265.601 -48.1701 253.158 -48.1701 243.781 -41.6491L-95.75 194.499M614.509 169.458L274.978 -66.6903C265.601 -73.2113 253.158 -73.2113 243.781 -66.6903L-95.75 169.458M614.509 144.417L274.978 -91.7315C265.601 -98.2525 253.158 -98.2525 243.781 -91.7315L-95.75 144.417M614.509 119.376L274.978 -116.773C265.601 -123.294 253.158 -123.294 243.781 -116.773L-95.75 119.376M614.509 94.3347L274.978 -141.814C265.601 -148.335 253.158 -148.335 243.781 -141.814L-95.75 94.3347" stroke="url(#paint2_radial_932_668)" stroke-opacity="0.4" stroke-width="1.25087"/>
<path d="M513.206 0.999512H1V456.294H513.206V0.999512Z" fill="url(#paint3_radial_932_668)"/>
<path d="M484.75 228.989H31.7324V379.456H484.75V228.989Z" fill="url(#paint4_linear_932_668)" fill-opacity="0.6"/>
<path d="M215.17 102.072C225.946 94.5292 233.99 88.8994 240.868 85.1512C247.733 81.4087 253.389 79.5693 259.38 79.5693C265.37 79.5693 271.026 81.4087 277.891 85.1512C284.769 88.8994 292.813 94.5292 303.589 102.072L484.079 228.419H34.6758L215.17 102.072Z" fill="url(#paint5_linear_932_668)" fill-opacity="0.6"/>
<path d="M215.17 102.072C225.946 94.5292 233.99 88.8994 240.868 85.1512C247.733 81.4087 253.389 79.5693 259.38 79.5693C265.37 79.5693 271.026 81.4087 277.891 85.1512C284.769 88.8994 292.813 94.5292 303.589 102.072L484.079 228.419H34.6758L215.17 102.072Z" fill="url(#paint6_radial_932_668)" fill-opacity="0.15"/>
<path d="M215.17 102.072C225.946 94.5292 233.99 88.8994 240.868 85.1512C247.733 81.4087 253.389 79.5693 259.38 79.5693C265.37 79.5693 271.026 81.4087 277.891 85.1512C284.769 88.8994 292.813 94.5292 303.589 102.072L484.079 228.419H34.6758L215.17 102.072Z" stroke="url(#paint7_radial_932_668)" stroke-width="1.25087"/>
<path fill-rule="evenodd" clip-rule="evenodd" d="M31.7324 228.988L139.658 315.777C143.107 318.551 147.399 320.063 151.824 320.063H364.657C369.083 320.063 373.375 318.551 376.824 315.777L484.75 228.988H31.7324Z" fill="url(#paint8_linear_932_668)"/>
<path d="M140.015 315.333L33.3496 229.557H483.135L376.469 315.333C373.121 318.027 368.954 319.494 364.658 319.494H151.825C147.53 319.494 143.362 318.027 140.015 315.333Z" stroke="url(#paint9_radial_932_668)" stroke-opacity="0.98" stroke-width="1.25087"/>
<g opacity="0.4" filter="url(#filter0_f_932_668)">
<path d="M459.141 218.403H437.515C431.542 218.403 426.701 223.244 426.701 229.216C426.701 235.188 431.542 240.029 437.515 240.029H459.141C465.113 240.029 469.955 235.188 469.955 229.216C469.955 223.244 465.113 218.403 459.141 218.403Z" fill="#F6F6F6"/>
</g>
<g opacity="0.8" filter="url(#filter1_f_932_668)">
<path d="M308.897 90.9199H287.27C281.298 90.9199 276.457 95.7612 276.457 101.733C276.457 107.705 281.298 112.546 287.27 112.546H308.897C314.869 112.546 319.71 107.705 319.71 101.733C319.71 95.7612 314.869 90.9199 308.897 90.9199Z" fill="#B868C7"/>
</g>
<path d="M446.918 195.749L213.822 210.699C206.294 211.182 200.583 217.676 201.066 225.205L202.814 252.466C203.297 259.994 209.791 265.706 217.319 265.223L450.416 250.272C457.944 249.789 463.655 243.295 463.172 235.767L461.424 208.505C460.941 200.977 454.447 195.266 446.918 195.749Z" fill="#1B1B1B" fill-opacity="0.8"/>
<path style="mix-blend-mode:hard-light" d="M446.918 195.749L213.822 210.699C206.294 211.182 200.583 217.676 201.066 225.205L202.814 252.466C203.297 259.994 209.791 265.706 217.319 265.223L450.416 250.272C457.944 249.789 463.655 243.295 463.172 235.767L461.424 208.505C460.941 200.977 454.447 195.266 446.918 195.749Z" fill="url(#paint10_linear_932_668)" fill-opacity="0.05"/>
<path d="M446.918 195.749L213.822 210.699C206.294 211.182 200.583 217.676 201.066 225.205L202.814 252.466C203.297 259.994 209.791 265.706 217.319 265.223L450.416 250.272C457.944 249.789 463.655 243.295 463.172 235.767L461.424 208.505C460.941 200.977 454.447 195.266 446.918 195.749Z" stroke="white" stroke-opacity="0.08" stroke-width="1.25087" stroke-linecap="round"/>
<path d="M460.26 54.0078L226.356 65.149C218.821 65.5079 213.004 71.9072 213.363 79.4422L214.691 107.323C215.05 114.858 221.449 120.675 228.984 120.316L462.888 109.175C470.423 108.816 476.241 102.417 475.882 94.8818L474.554 67.0013C474.195 59.4663 467.795 53.6489 460.26 54.0078Z" fill="#1B1B1B" fill-opacity="0.8"/>
<path style="mix-blend-mode:hard-light" d="M460.26 54.0078L226.356 65.149C218.821 65.5079 213.004 71.9072 213.363 79.4422L214.691 107.323C215.05 114.858 221.449 120.675 228.984 120.316L462.888 109.175C470.423 108.816 476.241 102.417 475.882 94.8818L474.554 67.0013C474.195 59.4663 467.795 53.6489 460.26 54.0078Z" fill="url(#paint11_linear_932_668)" fill-opacity="0.05"/>
<path d="M460.26 54.0078L226.356 65.149C218.821 65.5079 213.004 71.9072 213.363 79.4422L214.691 107.323C215.05 114.858 221.449 120.675 228.984 120.316L462.888 109.175C470.423 108.816 476.241 102.417 475.882 94.8818L474.554 67.0013C474.195 59.4663 467.795 53.6489 460.26 54.0078Z" stroke="white" stroke-opacity="0.08" stroke-width="1.25087" stroke-linecap="round"/>
<path d="M460.26 54.0078L226.356 65.149C218.821 65.5079 213.004 71.9072 213.363 79.4422L214.691 107.323C215.05 114.858 221.449 120.675 228.984 120.316L462.888 109.175C470.423 108.816 476.241 102.417 475.882 94.8818L474.554 67.0013C474.195 59.4663 467.795 53.6489 460.26 54.0078Z" stroke="url(#paint12_radial_932_668)" stroke-width="1.25087" stroke-linecap="round"/>
<path d="M310.995 141.196L60.137 119.419C52.6217 118.767 46.0004 124.33 45.348 131.845L42.9854 159.061C42.333 166.576 47.8965 173.197 55.4118 173.85L306.27 195.626C313.785 196.279 320.407 190.715 321.059 183.2L323.422 155.985C324.074 148.469 318.511 141.848 310.995 141.196Z" fill="#1B1B1B" fill-opacity="0.8"/>
<path d="M310.995 141.196L60.137 119.419C52.6217 118.767 46.0004 124.33 45.348 131.845L42.9854 159.061C42.333 166.576 47.8965 173.197 55.4118 173.85L306.27 195.626C313.785 196.279 320.407 190.715 321.059 183.2L323.422 155.985C324.074 148.469 318.511 141.848 310.995 141.196Z" stroke="white" stroke-opacity="0.08" stroke-width="1.25087" stroke-linecap="round"/>
<g opacity="0.4" filter="url(#filter2_f_932_668)">
<path d="M378.896 128.482C378.896 113.395 366.665 101.164 351.578 101.164C336.49 101.164 324.26 113.395 324.26 128.482V137.588C324.26 152.675 336.49 164.905 351.578 164.905C366.665 164.905 378.896 152.675 378.896 137.588V128.482Z" fill="#E065F7"/>
</g>
</g>
<path d="M494.994 1.56934H19.211C9.46725 1.56934 1.56836 9.46822 1.56836 19.212V438.083C1.56836 447.827 9.46725 455.725 19.211 455.725H494.994C504.738 455.725 512.636 447.827 512.636 438.083V19.212C512.636 9.46822 504.738 1.56934 494.994 1.56934Z" stroke="white" stroke-opacity="0.02" stroke-width="1.25087"/>
<path d="M235.309 93.976C234.747 94.0037 234.259 93.9537 233.846 93.8261C233.436 93.6984 233.098 93.5194 232.83 93.2891C232.563 93.0588 232.36 92.8022 232.219 92.5195L233.38 91.9725C233.47 92.1036 233.588 92.2411 233.734 92.385C233.882 92.5317 234.079 92.653 234.325 92.7488C234.573 92.8444 234.887 92.8829 235.268 92.8641C235.791 92.8384 236.217 92.6896 236.545 92.4177C236.874 92.1489 237.025 91.7378 236.998 91.1845L236.929 89.792L236.842 89.7963C236.766 89.951 236.654 90.1244 236.507 90.3166C236.362 90.5086 236.158 90.6788 235.894 90.8274C235.63 90.9759 235.282 91.0609 234.848 91.0822C234.289 91.1097 233.778 91.0038 233.316 90.7646C232.858 90.5222 232.485 90.1507 232.199 89.6502C231.915 89.1465 231.755 88.5181 231.718 87.765C231.681 87.0119 231.776 86.3601 232.005 85.8096C232.237 85.2589 232.57 84.8296 233.005 84.5217C233.439 84.2107 233.941 84.0412 234.51 84.0132C234.949 83.9916 235.308 84.0479 235.586 84.1822C235.863 84.3133 236.082 84.472 236.242 84.6583C236.406 84.8444 236.532 85.0092 236.623 85.1526L236.724 85.1477L236.668 83.9995L238.019 83.9331L238.375 91.1722C238.404 91.7809 238.288 92.2873 238.024 92.6916C237.76 93.0959 237.392 93.4037 236.919 93.6149C236.448 93.826 235.912 93.9464 235.309 93.976ZM235.096 89.9237C235.493 89.9042 235.823 89.7955 236.088 89.5976C236.355 89.3965 236.551 89.1188 236.675 88.7645C236.803 88.407 236.854 87.9838 236.83 87.4951C236.807 87.0186 236.715 86.6025 236.556 86.2467C236.397 85.8909 236.176 85.6183 235.892 85.4289C235.608 85.2364 235.265 85.1501 234.862 85.1699C234.447 85.1903 234.107 85.3149 233.841 85.5437C233.575 85.7694 233.38 86.0686 233.256 86.4413C233.136 86.8139 233.087 87.2262 233.109 87.678C233.132 88.1422 233.223 88.546 233.381 88.8895C233.54 89.233 233.762 89.4963 234.049 89.6794C234.338 89.8624 234.687 89.9438 235.096 89.9237ZM243.206 90.9208C242.542 90.9534 241.955 90.8298 241.445 90.5498C240.935 90.2698 240.53 89.8629 240.23 89.3292C239.929 88.7955 239.761 88.1629 239.725 87.4313C239.689 86.6966 239.794 86.0474 240.041 85.4837C240.287 84.9201 240.65 84.4739 241.13 84.1452C241.61 83.8166 242.182 83.6359 242.846 83.6033C243.51 83.5706 244.097 83.6943 244.607 83.9743C245.117 84.2542 245.522 84.6626 245.823 85.1994C246.123 85.7362 246.292 86.3719 246.328 87.1066C246.364 87.8382 246.259 88.4843 246.012 89.0449C245.765 89.6055 245.402 90.0502 244.922 90.3788C244.442 90.7075 243.87 90.8881 243.206 90.9208ZM243.154 89.7632C243.584 89.742 243.935 89.6108 244.207 89.3694C244.478 89.128 244.672 88.815 244.789 88.4302C244.909 88.0453 244.958 87.6254 244.935 87.1705C244.913 86.7186 244.823 86.307 244.666 85.9357C244.512 85.5612 244.288 85.2656 243.994 85.049C243.7 84.8323 243.338 84.7346 242.908 84.7558C242.474 84.7771 242.12 84.91 241.846 85.1546C241.574 85.3991 241.379 85.7153 241.259 86.1033C241.142 86.488 241.095 86.9063 241.117 87.3582C241.14 87.8131 241.228 88.2263 241.382 88.5978C241.539 88.9691 241.764 89.2615 242.058 89.4751C242.355 89.6885 242.72 89.7845 243.154 89.7632ZM250.997 83.2949L251.051 84.4015L247.183 84.5917L247.129 83.4851L250.997 83.2949ZM248.083 81.7373L249.461 81.6695L249.791 88.3691C249.804 88.6366 249.854 88.8359 249.94 88.9673C250.027 89.0955 250.134 89.1811 250.263 89.2241C250.394 89.2639 250.535 89.2801 250.686 89.2727C250.796 89.2672 250.893 89.2548 250.975 89.2353C251.057 89.2159 251.121 89.2004 251.167 89.1889L251.472 90.3156C251.393 90.3502 251.281 90.3866 251.135 90.4245C250.989 90.4656 250.806 90.4931 250.584 90.5071C250.222 90.5311 249.881 90.4831 249.561 90.3633C249.24 90.2435 248.976 90.0469 248.769 89.7736C248.561 89.5004 248.447 89.1501 248.426 88.7228L248.083 81.7373ZM261.351 84.519L260.112 84.8018C260.052 84.6445 259.961 84.4964 259.84 84.3575C259.723 84.2185 259.566 84.1076 259.371 84.0247C259.176 83.9419 258.936 83.9075 258.65 83.9215C258.259 83.9407 257.938 84.0444 257.685 84.2324C257.432 84.4174 257.313 84.6467 257.326 84.9203C257.338 85.157 257.435 85.3433 257.617 85.4791C257.799 85.615 258.088 85.7194 258.483 85.7924L259.621 85.9953C260.28 86.1139 260.777 86.3221 261.112 86.6199C261.447 86.9177 261.627 87.3172 261.651 87.8182C261.672 88.2424 261.568 88.6266 261.338 88.9707C261.112 89.3115 260.785 89.5864 260.357 89.7954C259.933 90.0042 259.435 90.1227 258.864 90.1508C258.07 90.1898 257.415 90.0526 256.897 89.7391C256.38 89.4225 256.048 88.9535 255.904 88.332L257.226 88.0636C257.326 88.4068 257.51 88.6613 257.777 88.8269C258.044 88.9894 258.385 89.0604 258.8 89.04C259.252 89.0178 259.608 88.9063 259.869 88.7055C260.131 88.5016 260.254 88.2629 260.241 87.9893C260.23 87.768 260.138 87.5861 259.965 87.4436C259.794 87.301 259.538 87.1996 259.196 87.1394L257.984 86.9355C257.316 86.8174 256.816 86.6016 256.483 86.2883C256.153 85.9748 255.976 85.566 255.951 85.0619C255.93 84.6438 256.029 84.2723 256.247 83.9472C256.466 83.6222 256.776 83.362 257.18 83.1665C257.583 82.9679 258.05 82.8556 258.582 82.8294C259.347 82.7918 259.958 82.9282 260.414 83.2385C260.87 83.5458 261.182 83.9727 261.351 84.519ZM266.258 89.7872C265.594 89.8198 265.007 89.6961 264.498 89.4162C263.988 89.1362 263.582 88.7293 263.282 88.1956C262.982 87.6619 262.813 87.0293 262.777 86.2977C262.741 85.563 262.846 84.9138 263.093 84.3501C263.339 83.7864 263.703 83.3403 264.183 83.0116C264.663 82.683 265.234 82.5023 265.898 82.4697C266.562 82.437 267.149 82.5607 267.659 82.8407C268.169 83.1206 268.574 83.529 268.875 84.0658C269.176 84.6026 269.344 85.2383 269.38 85.973C269.416 86.7046 269.311 87.3507 269.064 87.9113C268.817 88.4719 268.454 88.9165 267.974 89.2452C267.494 89.5739 266.922 89.7545 266.258 89.7872ZM266.206 88.6296C266.636 88.6084 266.987 88.4772 267.259 88.2358C267.531 87.9944 267.725 87.6813 267.841 87.2966C267.961 86.9117 268.01 86.4918 267.987 86.0368C267.965 85.585 267.876 85.1734 267.719 84.8021C267.565 84.4276 267.341 84.132 267.046 83.9154C266.752 83.6987 266.39 83.601 265.96 83.6222C265.526 83.6435 265.172 83.7764 264.898 84.021C264.626 84.2655 264.431 84.5817 264.311 84.9697C264.195 85.3544 264.147 85.7727 264.17 86.2246C264.192 86.6795 264.28 87.0927 264.434 87.4642C264.591 87.8355 264.816 88.1279 265.11 88.3414C265.407 88.5549 265.773 88.6509 266.206 88.6296ZM271.092 89.4062L270.743 82.3238L272.067 82.2588L272.123 83.4115L272.211 83.4072C272.339 83.0095 272.566 82.6934 272.89 82.4586C273.214 82.2208 273.61 82.0904 274.077 82.0675C274.55 82.0442 274.952 82.1354 275.283 82.341C275.617 82.5464 275.87 82.839 276.043 83.2188L276.116 83.2151C276.267 82.8287 276.521 82.5143 276.879 82.2717C277.236 82.0261 277.67 81.8908 278.181 81.8657C278.823 81.8341 279.357 82.0096 279.783 82.3924C280.211 82.775 280.446 83.372 280.486 84.1835L280.719 88.9328L279.34 89.0006L279.113 84.3804C279.09 83.9009 278.942 83.56 278.67 83.3576C278.398 83.1553 278.081 83.0631 277.718 83.0809C277.269 83.103 276.927 83.2585 276.692 83.5474C276.456 83.8332 276.349 84.1913 276.37 84.6216L276.592 89.1357L275.218 89.2033L274.987 84.4955C274.968 84.1113 274.833 83.8083 274.582 83.5864C274.33 83.3646 274.013 83.2631 273.628 83.282C273.367 83.2949 273.129 83.3759 272.915 83.5251C272.703 83.6711 272.536 83.8688 272.412 84.1183C272.292 84.3677 272.24 84.6522 272.255 84.9719L272.47 89.3384L271.092 89.4062ZM285.626 88.8347C284.929 88.869 284.32 88.7495 283.802 88.4761C283.286 88.1995 282.878 87.7959 282.577 87.2653C282.28 86.7314 282.113 86.0971 282.077 85.3625C282.041 84.637 282.145 83.991 282.388 83.4244C282.635 82.8576 282.995 82.407 283.468 82.0725C283.945 81.7378 284.512 81.5543 285.17 81.522C285.569 81.5023 285.96 81.5494 286.341 81.6631C286.723 81.7768 287.07 81.9678 287.382 82.2359C287.694 82.5041 287.947 82.8598 288.141 83.3032C288.336 83.7436 288.449 84.285 288.48 84.9274L288.504 85.4162L282.874 85.693L282.824 84.6602L287.102 84.4498C287.085 84.087 286.995 83.7694 286.834 83.497C286.672 83.2214 286.454 83.0088 286.178 82.859C285.906 82.7091 285.592 82.6429 285.235 82.6604C284.848 82.6795 284.514 82.7914 284.235 82.9962C283.958 83.1977 283.749 83.4545 283.607 83.7666C283.468 84.0754 283.407 84.4065 283.425 84.76L283.464 85.5669C283.488 86.0403 283.59 86.4389 283.773 86.7628C283.958 87.0864 284.206 87.3285 284.516 87.4889C284.825 87.6462 285.182 87.715 285.584 87.6952C285.846 87.6823 286.082 87.6337 286.293 87.5493C286.505 87.4619 286.685 87.339 286.835 87.1807C286.984 87.0224 287.095 86.8305 287.167 86.6051L288.483 86.7761C288.398 87.1655 288.227 87.5113 287.97 87.8135C287.717 88.1126 287.391 88.352 286.993 88.5318C286.599 88.7083 286.143 88.8093 285.626 88.8347ZM297.966 85.1404L297.762 80.9952L299.145 80.9272L299.494 88.0095L298.138 88.0762L298.078 86.8497L298.004 86.8533C297.86 87.2394 297.614 87.5673 297.267 87.8371C296.922 88.1036 296.484 88.2499 295.952 88.2761C295.497 88.2985 295.09 88.2184 294.73 88.0358C294.372 87.85 294.084 87.5637 293.865 87.177C293.648 86.7902 293.526 86.3047 293.497 85.7207L293.276 81.2158L294.654 81.148L294.868 85.4869C294.891 85.9695 295.044 86.3471 295.325 86.6199C295.607 86.8926 295.961 87.0185 296.389 86.9974C296.647 86.9847 296.9 86.9076 297.149 86.7659C297.401 86.6241 297.605 86.4184 297.761 86.1488C297.921 85.8791 297.989 85.5429 297.966 85.1404ZM301.477 90.5743L300.998 80.8361L302.344 80.7699L302.401 81.918L302.516 81.9123C302.589 81.7608 302.695 81.5846 302.836 81.3835C302.978 81.1824 303.178 81.0031 303.439 80.8455C303.699 80.6848 304.049 80.5936 304.488 80.572C305.06 80.5439 305.577 80.6632 306.04 80.9301C306.503 81.197 306.876 81.5962 307.158 82.1278C307.443 82.6591 307.604 83.3075 307.642 84.073C307.679 84.8384 307.584 85.5009 307.356 86.0606C307.127 86.6173 306.798 87.0541 306.366 87.3711C305.935 87.685 305.433 87.8561 304.862 87.8842C304.431 87.9054 304.076 87.8504 303.795 87.7194C303.518 87.5882 303.297 87.4296 303.134 87.2435C302.971 87.0574 302.844 86.8911 302.753 86.7445L302.67 86.7486L302.855 90.5065L301.477 90.5743ZM302.523 84.3108C302.547 84.8088 302.641 85.2417 302.804 85.6096C302.967 85.9776 303.19 86.2608 303.474 86.4595C303.758 86.6551 304.098 86.7431 304.495 86.7236C304.907 86.7033 305.246 86.5773 305.512 86.3454C305.777 86.1105 305.972 85.8005 306.095 85.4155C306.22 85.0303 306.272 84.601 306.248 84.1276C306.225 83.6604 306.134 83.2442 305.974 82.8793C305.818 82.5141 305.594 82.2308 305.304 82.0294C305.017 81.8278 304.666 81.7373 304.251 81.7577C303.851 81.7773 303.518 81.8969 303.252 82.1165C302.988 82.3359 302.795 82.6335 302.671 83.0093C302.548 83.3851 302.499 83.819 302.523 84.3108ZM312.018 87.5323C311.446 87.5604 310.929 87.4395 310.465 87.1695C310.005 86.8963 309.634 86.494 309.352 85.9624C309.073 85.4277 308.915 84.7776 308.877 84.0122C308.84 83.2468 308.935 82.5858 309.163 82.0291C309.395 81.4723 309.728 81.0384 310.163 80.7274C310.597 80.4164 311.099 80.2469 311.667 80.2189C312.107 80.1973 312.464 80.2537 312.739 80.3881C313.016 80.5193 313.234 80.6781 313.391 80.8645C313.551 81.0507 313.676 81.2156 313.766 81.359L313.849 81.355L313.677 77.8461L315.056 77.7783L315.52 87.2214L314.174 87.2876L314.119 86.1856L314.004 86.1913C313.928 86.346 313.817 86.524 313.67 86.7254C313.526 86.9266 313.322 87.1061 313.058 87.2639C312.795 87.4217 312.448 87.5111 312.018 87.5323ZM312.264 86.3415C312.661 86.322 312.991 86.201 313.254 85.9786C313.52 85.7529 313.715 85.449 313.838 85.067C313.964 84.6849 314.015 84.2449 313.99 83.7469C313.966 83.2551 313.874 82.8282 313.715 82.4663C313.555 82.1044 313.333 81.8271 313.05 81.6346C312.766 81.4421 312.423 81.3558 312.02 81.3756C311.605 81.396 311.265 81.5206 310.999 81.7494C310.732 81.9782 310.538 82.282 310.415 82.6609C310.295 83.0396 310.246 83.4626 310.269 83.9299C310.292 84.4033 310.384 84.8255 310.544 85.1967C310.704 85.5678 310.928 85.8572 311.215 86.065C311.506 86.2695 311.856 86.3616 312.264 86.3415ZM319.556 87.1801C319.108 87.2021 318.698 87.1391 318.327 86.9909C317.956 86.8397 317.656 86.6095 317.429 86.3002C317.204 85.9908 317.08 85.604 317.057 85.1398C317.038 84.7402 317.098 84.4075 317.239 84.1418C317.38 83.876 317.578 83.6614 317.832 83.4979C318.085 83.3344 318.372 83.2063 318.691 83.1136C319.01 83.0209 319.336 82.9463 319.669 82.8899C320.091 82.8198 320.433 82.7629 320.696 82.7192C320.959 82.6724 321.148 82.6091 321.264 82.5295C321.381 82.4498 321.435 82.327 321.427 82.161L321.425 82.1287C321.405 81.726 321.276 81.4196 321.038 81.2095C320.802 80.9992 320.462 80.905 320.016 80.9269C319.552 80.9497 319.191 81.0707 318.934 81.2898C318.68 81.5057 318.508 81.7406 318.419 81.9946L317.108 81.7632C317.241 81.3253 317.448 80.9669 317.73 80.688C318.015 80.406 318.349 80.1954 318.73 80.0565C319.111 79.9145 319.516 79.833 319.943 79.812C320.226 79.7981 320.527 79.8172 320.847 79.8692C321.17 79.918 321.474 80.0233 321.759 80.1849C322.048 80.3463 322.289 80.5856 322.483 80.9027C322.677 81.2167 322.787 81.6319 322.812 82.1483L323.044 86.8514L321.697 86.9176L321.65 85.9493L321.594 85.9521C321.514 86.1347 321.389 86.3165 321.219 86.4974C321.049 86.6783 320.827 86.8325 320.553 86.96C320.279 87.0875 319.947 87.1609 319.556 87.1801ZM319.802 86.0587C320.183 86.04 320.505 85.9486 320.768 85.7847C321.034 85.6206 321.232 85.4137 321.362 85.1639C321.494 84.9109 321.553 84.6445 321.54 84.3648L321.495 83.4518C321.448 83.5034 321.355 83.5542 321.216 83.6042C321.079 83.651 320.923 83.6941 320.746 83.7336C320.569 83.77 320.397 83.8047 320.229 83.8376C320.061 83.8674 319.92 83.8928 319.807 83.9138C319.541 83.9608 319.3 84.0297 319.082 84.1205C318.868 84.2111 318.699 84.335 318.574 84.4921C318.452 84.646 318.397 84.8459 318.409 85.0918C318.426 85.4331 318.565 85.6851 318.825 85.8479C319.086 86.0076 319.411 86.0779 319.802 86.0587ZM327.838 79.5162L327.892 80.6228L324.024 80.813L323.969 79.7064L327.838 79.5162ZM324.923 77.9586L326.302 77.8908L326.631 84.5904C326.645 84.8579 326.694 85.0573 326.781 85.1886C326.867 85.3168 326.975 85.4024 327.103 85.4454C327.235 85.4852 327.376 85.5014 327.526 85.494C327.637 85.4885 327.733 85.4761 327.816 85.4566C327.898 85.4372 327.962 85.4217 328.007 85.4102L328.312 86.5369C328.234 86.5715 328.122 86.6079 327.976 86.6459C327.83 86.6869 327.646 86.7144 327.425 86.7284C327.063 86.7524 326.721 86.7045 326.401 86.5846C326.081 86.4648 325.817 86.2682 325.61 85.995C325.402 85.7217 325.288 85.3714 325.267 84.9441L324.923 77.9586ZM332.695 86.5201C331.997 86.5544 331.388 86.4349 330.87 86.1615C330.354 85.8849 329.946 85.4813 329.645 84.9507C329.348 84.4168 329.181 83.7825 329.145 83.0479C329.109 82.3224 329.213 81.6764 329.456 81.1098C329.703 80.543 330.063 80.0924 330.536 79.7579C331.013 79.4232 331.58 79.2397 332.238 79.2074C332.637 79.1877 333.028 79.2348 333.41 79.3485C333.791 79.4622 334.138 79.6532 334.45 79.9213C334.762 80.1895 335.015 80.5452 335.21 80.9886C335.404 81.429 335.517 81.9704 335.548 82.6128L335.572 83.1016L329.942 83.3784L329.892 82.3456L334.171 82.1352C334.153 81.7724 334.063 81.4548 333.902 81.1824C333.74 80.9068 333.522 80.6942 333.246 80.5444C332.974 80.3945 332.66 80.3283 332.303 80.3458C331.916 80.3649 331.582 80.4768 331.303 80.6816C331.026 80.8831 330.817 81.1399 330.675 81.452C330.536 81.7608 330.475 82.0919 330.493 82.4454L330.532 83.2523C330.556 83.7257 330.659 84.1243 330.841 84.4482C331.026 84.7718 331.274 85.0139 331.584 85.1743C331.893 85.3316 332.25 85.4003 332.652 85.3805C332.914 85.3677 333.15 85.3191 333.362 85.2347C333.573 85.1473 333.753 85.0244 333.903 84.8661C334.052 84.7078 334.163 84.5159 334.235 84.2905L335.551 84.4615C335.466 84.8509 335.295 85.1967 335.039 85.4989C334.785 85.798 334.46 86.0374 334.062 86.2172C333.667 86.3937 333.211 86.4947 332.695 86.5201ZM342.3 80.5383L341.061 80.8211C341.001 80.6638 340.91 80.5157 340.79 80.3768C340.672 80.2378 340.515 80.1269 340.32 80.044C340.125 79.9612 339.885 79.9268 339.599 79.9408C339.208 79.96 338.887 80.0637 338.634 80.2517C338.381 80.4367 338.262 80.666 338.275 80.9396C338.287 81.1763 338.384 81.3625 338.566 81.4984C338.748 81.6343 339.037 81.7387 339.432 81.8117L340.57 82.0146C341.229 82.1332 341.726 82.3414 342.061 82.6392C342.396 82.937 342.576 83.3365 342.601 83.8375C342.621 84.2617 342.517 84.6459 342.287 84.9899C342.061 85.3308 341.734 85.6057 341.307 85.8147C340.882 86.0235 340.384 86.142 339.813 86.1701C339.02 86.2091 338.364 86.0718 337.846 85.7583C337.329 85.4418 336.997 84.9727 336.853 84.3513L338.175 84.0828C338.276 84.4261 338.459 84.6806 338.726 84.8461C338.993 85.0087 339.334 85.0797 339.749 85.0593C340.201 85.0371 340.557 84.9256 340.818 84.7248C341.08 84.5209 341.203 84.2821 341.19 84.0086C341.179 83.7872 341.087 83.6053 340.914 83.4629C340.743 83.3203 340.487 83.2189 340.145 83.1586L338.933 82.9548C338.265 82.8366 337.765 82.6209 337.432 82.3076C337.102 81.9941 336.925 81.5853 336.9 81.0811C336.879 80.6631 336.978 80.2915 337.197 79.9665C337.415 79.6415 337.725 79.3812 338.129 79.1858C338.532 78.9872 338.999 78.8749 339.531 78.8487C340.297 78.8111 340.907 78.9474 341.363 79.2578C341.819 79.5651 342.131 79.9919 342.3 80.5383ZM352.697 80.027L351.459 80.3098C351.398 80.1525 351.308 80.0044 351.187 79.8655C351.069 79.7265 350.913 79.6155 350.718 79.5327C350.523 79.4499 350.282 79.4155 349.996 79.4295C349.606 79.4487 349.284 79.5523 349.032 79.7404C348.779 79.9254 348.659 80.1547 348.673 80.4283C348.684 80.665 348.781 80.8512 348.964 80.9871C349.146 81.123 349.435 81.2274 349.829 81.3004L350.967 81.5033C351.626 81.6219 352.123 81.8301 352.459 82.1279C352.794 82.4257 352.973 82.8251 352.998 83.3262C353.019 83.7504 352.915 84.1345 352.685 84.4786C352.458 84.8195 352.131 85.0944 351.704 85.3034C351.28 85.5122 350.782 85.6307 350.21 85.6588C349.417 85.6978 348.762 85.5605 348.244 85.247C347.726 84.9305 347.395 84.4614 347.25 83.8399L348.573 83.5715C348.673 83.9148 348.857 84.1692 349.124 84.3348C349.39 84.4974 349.731 84.5684 350.146 84.548C350.598 84.5258 350.955 84.4143 351.216 84.2135C351.477 84.0096 351.601 83.7708 351.588 83.4972C351.577 83.2759 351.485 83.094 351.311 82.9516C351.141 82.809 350.885 82.7075 350.543 82.6473L349.331 82.4435C348.663 82.3253 348.162 82.1096 347.829 81.7963C347.5 81.4828 347.322 81.074 347.298 80.5698C347.277 80.1518 347.376 79.7802 347.594 79.4552C347.812 79.1302 348.123 78.8699 348.526 78.6745C348.929 78.4759 349.397 78.3636 349.929 78.3374C350.694 78.2998 351.305 78.4361 351.761 78.7465C352.216 79.0538 352.529 79.4806 352.697 80.027ZM355.787 81.026L355.993 85.2311L354.615 85.2989L354.15 75.8558L355.51 75.7889L355.683 79.3024L355.771 79.2981C355.918 78.9087 356.157 78.5935 356.487 78.3523C356.817 78.1111 357.257 77.977 357.808 77.95C358.293 77.9261 358.722 78.0051 359.095 78.1871C359.471 78.3689 359.768 78.6532 359.987 79.0399C360.21 79.4234 360.335 79.9102 360.364 80.5004L360.586 85.0053L359.207 85.0731L358.994 80.7342C358.968 80.2147 358.815 79.8186 358.533 79.5459C358.252 79.2701 357.872 79.1439 357.396 79.1673C357.07 79.1833 356.782 79.2669 356.53 79.4179C356.282 79.5688 356.09 79.7815 355.956 80.0562C355.825 80.3277 355.768 80.6509 355.787 81.026ZM365.416 84.911C364.752 84.9437 364.165 84.82 363.655 84.54C363.145 84.26 362.74 83.8532 362.44 83.3195C362.139 82.7858 361.971 82.1531 361.935 81.4215C361.899 80.6869 362.004 80.0377 362.25 79.474C362.497 78.9103 362.86 78.4641 363.34 78.1355C363.82 77.8068 364.392 77.6262 365.056 77.5935C365.72 77.5609 366.307 77.6845 366.817 77.9645C367.327 78.2445 367.732 78.6529 368.032 79.1897C368.333 79.7264 368.502 80.3622 368.538 81.0968C368.574 81.8284 368.468 82.4745 368.222 83.0352C367.975 83.5958 367.612 84.0404 367.132 84.3691C366.652 84.6977 366.08 84.8784 365.416 84.911ZM365.364 83.7535C365.794 83.7323 366.145 83.601 366.416 83.3597C366.688 83.1183 366.882 82.8052 366.999 82.4205C367.119 82.0356 367.167 81.6157 367.145 81.1607C367.123 80.7088 367.033 80.2973 366.876 79.926C366.722 79.5515 366.498 79.2559 366.204 79.0392C365.91 78.8226 365.548 78.7249 365.117 78.746C364.684 78.7673 364.33 78.9003 364.055 79.1449C363.784 79.3894 363.588 79.7056 363.469 80.0935C363.352 80.4783 363.305 80.8966 363.327 81.3485C363.349 81.8034 363.438 82.2166 363.591 82.588C363.748 82.9593 363.974 83.2518 364.268 83.4653C364.565 83.6787 364.93 83.7748 365.364 83.7535ZM374.591 81.3723L374.387 77.2271L375.77 77.1591L376.119 84.2414L374.763 84.3081L374.703 83.0816L374.629 83.0852C374.485 83.4713 374.239 83.7992 373.892 84.069C373.547 84.3355 373.109 84.4819 372.578 84.508C372.123 84.5304 371.715 84.4503 371.355 84.2677C370.997 84.0819 370.709 83.7956 370.49 83.4089C370.274 83.0221 370.151 82.5366 370.122 81.9526L369.901 77.4477L371.279 77.3799L371.493 81.7188C371.517 82.2014 371.669 82.5791 371.951 82.8518C372.232 83.1245 372.587 83.2504 373.014 83.2294C373.272 83.2167 373.526 83.1395 373.774 82.9978C374.026 82.856 374.23 82.6503 374.386 82.3807C374.546 82.111 374.614 81.7748 374.591 81.3723ZM378.885 74.6394L379.35 84.0825L377.971 84.1503L377.507 74.7072L378.885 74.6394ZM383.863 83.9993C383.291 84.0274 382.773 83.9065 382.31 83.6365C381.85 83.3633 381.479 82.961 381.197 82.4294C380.918 81.8947 380.76 81.2446 380.722 80.4792C380.685 79.7138 380.78 79.0527 381.008 78.4961C381.24 77.9393 381.573 77.5054 382.007 77.1944C382.442 76.8834 382.944 76.7139 383.512 76.6859C383.952 76.6643 384.309 76.7207 384.584 76.8551C384.861 76.9863 385.079 77.1451 385.236 77.3315C385.396 77.5177 385.521 77.6826 385.611 77.826L385.694 77.822L385.522 74.3131L386.9 74.2453L387.365 83.6884L386.018 83.7546L385.964 82.6526L385.849 82.6583C385.773 82.813 385.662 82.991 385.515 83.1924C385.37 83.3936 385.167 83.5731 384.903 83.7309C384.64 83.8886 384.293 83.9781 383.863 83.9993ZM384.109 82.8085C384.506 82.789 384.836 82.668 385.099 82.4456C385.365 82.2198 385.56 81.916 385.683 81.534C385.809 81.1519 385.859 80.7119 385.835 80.2139C385.811 79.722 385.719 79.2952 385.559 78.9333C385.4 78.5713 385.178 78.2941 384.895 78.1016C384.611 77.9091 384.268 77.8228 383.865 77.8426C383.45 77.863 383.109 77.9876 382.843 78.2164C382.577 78.4451 382.383 78.749 382.26 79.1279C382.14 79.5066 382.091 79.9296 382.114 80.3969C382.137 80.8702 382.229 81.2925 382.389 81.6637C382.549 82.0348 382.773 82.3242 383.06 82.5319C383.351 82.7364 383.7 82.8286 384.109 82.8085ZM392.769 83.4226L392.42 76.3403L393.799 76.2725L394.147 83.3549L392.769 83.4226ZM393.063 75.2133C392.823 75.2251 392.613 75.1553 392.433 75.0039C392.256 74.8493 392.162 74.6598 392.151 74.4354C392.14 74.2079 392.215 74.0101 392.376 73.8419C392.54 73.6706 392.742 73.579 392.982 73.5672C393.222 73.5554 393.43 73.6268 393.607 73.7814C393.787 73.9328 393.883 74.1222 393.894 74.3497C393.905 74.5741 393.829 74.772 393.664 74.9433C393.503 75.1115 393.303 75.2015 393.063 75.2133ZM400.974 83.0192L398.541 76.0393L399.966 75.9692L401.61 81.1021L401.679 81.0987L402.816 75.8291L404.241 75.759L405.878 80.8691L405.948 80.8657L407.072 75.6198L408.496 75.5498L406.765 82.7344L405.359 82.8035L403.669 77.7608L403.563 77.766L402.376 82.9502L400.974 83.0192ZM412.928 82.5746C412.264 82.6073 411.677 82.4836 411.167 82.2036C410.657 81.9236 410.252 81.5168 409.951 80.9831C409.651 80.4494 409.483 79.8167 409.447 79.0851C409.411 78.3504 409.516 77.7013 409.762 77.1376C410.009 76.5739 410.372 76.1277 410.852 75.7991C411.332 75.4704 411.904 75.2897 412.568 75.2571C413.232 75.2244 413.819 75.3481 414.329 75.6281C414.839 75.9081 415.244 76.3165 415.544 76.8532C415.845 77.39 416.013 78.0257 416.05 78.7604C416.086 79.492 415.98 80.1381 415.734 80.6987C415.487 81.2593 415.124 81.704 414.644 82.0326C414.164 82.3613 413.592 82.5419 412.928 82.5746ZM412.875 81.417C413.306 81.3959 413.657 81.2646 413.928 81.0232C414.2 80.7818 414.394 80.4688 414.511 80.084C414.631 79.6991 414.679 79.2792 414.657 78.8243C414.635 78.3724 414.545 77.9608 414.388 77.5895C414.234 77.215 414.01 76.9194 413.716 76.7028C413.422 76.4862 413.06 76.3884 412.629 76.4096C412.196 76.4309 411.842 76.5639 411.567 76.8085C411.296 77.0529 411.1 77.3691 410.981 77.7571C410.864 78.1418 410.817 78.5602 410.839 79.012C410.861 79.467 410.949 79.8802 411.103 80.2516C411.26 80.6229 411.486 80.9153 411.78 81.1289C412.077 81.3423 412.442 81.4384 412.875 81.417ZM417.761 82.1936L417.413 75.1113L418.745 75.0458L418.801 76.1708L418.874 76.1672C418.985 75.7797 419.197 75.4688 419.513 75.2345C419.831 74.997 420.197 74.8681 420.612 74.8476C420.698 74.8434 420.8 74.8415 420.917 74.8419C421.037 74.8422 421.131 74.8452 421.199 74.8511L421.264 76.1698C421.208 76.1572 421.109 76.1451 420.967 76.1336C420.824 76.1191 420.682 76.1153 420.541 76.1222C420.215 76.1382 419.928 76.2217 419.679 76.3726C419.434 76.5202 419.244 76.7191 419.108 76.9692C418.972 77.2162 418.912 77.4934 418.927 77.8008L419.14 82.1258L417.761 82.1936ZM423.894 79.4839L423.802 77.8014L424.042 77.7896L426.716 74.6538L428.367 74.5726L425.316 78.1429L425.1 78.1536L423.894 79.4839ZM422.744 81.9486L422.28 72.5054L423.659 72.4377L424.123 81.8808L422.744 81.9486ZM427.217 81.7286L424.515 78.4874L425.418 77.477L428.909 81.6454L427.217 81.7286ZM436.398 81.4204C435.734 81.4531 435.148 81.3294 434.638 81.0494C434.128 80.7694 433.723 80.3626 433.422 79.8289C433.122 79.2952 432.953 78.6625 432.917 77.9309C432.881 77.1963 432.986 76.5471 433.233 75.9834C433.48 75.4197 433.843 74.9735 434.323 74.6449C434.803 74.3162 435.375 74.1356 436.039 74.1029C436.703 74.0703 437.289 74.1939 437.799 74.4739C438.309 74.7539 438.714 75.1623 439.015 75.6991C439.316 76.2358 439.484 76.8716 439.52 77.6062C439.556 78.3378 439.451 78.9839 439.204 79.5445C438.957 80.1052 438.594 80.5498 438.114 80.8785C437.634 81.2071 437.062 81.3878 436.398 81.4204ZM436.346 80.2629C436.776 80.2417 437.127 80.1104 437.399 79.869C437.671 79.6277 437.865 79.3146 437.981 78.9299C438.101 78.545 438.15 78.125 438.127 77.6701C438.105 77.2182 438.016 76.8066 437.859 76.4354C437.705 76.0608 437.481 75.7653 437.187 75.5486C436.892 75.332 436.53 75.2342 436.1 75.2554C435.666 75.2767 435.312 75.4097 435.038 75.6543C434.766 75.8987 434.571 76.2149 434.451 76.6029C434.335 76.9877 434.287 77.406 434.31 77.8578C434.332 78.3128 434.42 78.726 434.574 79.0974C434.731 79.4687 434.956 79.7611 435.25 79.9747C435.547 80.1881 435.913 80.2842 436.346 80.2629ZM442.404 76.7665L442.61 80.9717L441.232 81.0395L440.883 73.9571L442.207 73.892L442.263 75.0448L442.351 75.0404C442.495 74.6574 442.736 74.3436 443.072 74.0991C443.411 73.8544 443.847 73.7189 444.379 73.6928C444.861 73.6691 445.289 73.7497 445.661 73.9348C446.034 74.1167 446.33 74.4011 446.549 74.7878C446.769 75.1745 446.893 75.6599 446.921 76.2439L447.143 80.7488L445.764 80.8166L445.551 76.4777C445.526 75.9644 445.372 75.5698 445.09 75.294C444.809 75.0151 444.434 74.8872 443.967 74.9101C443.647 74.9259 443.366 75.009 443.124 75.1596C442.885 75.31 442.7 75.5225 442.568 75.797C442.44 76.0683 442.385 76.3915 442.404 76.7665ZM235.946 100.054L236 101.161L232.131 101.351L232.077 100.245L235.946 100.054ZM233.031 98.4968L234.41 98.429L234.739 105.129C234.752 105.396 234.802 105.595 234.889 105.727C234.975 105.855 235.083 105.941 235.211 105.984C235.342 106.023 235.483 106.04 235.634 106.032C235.745 106.027 235.841 106.014 235.923 105.995C236.006 105.975 236.07 105.96 236.115 105.948L236.42 107.075C236.342 107.11 236.23 107.146 236.084 107.184C235.938 107.225 235.754 107.253 235.533 107.267C235.171 107.291 234.829 107.243 234.509 107.123C234.189 107.003 233.925 106.806 233.717 106.533C233.51 106.26 233.396 105.91 233.375 105.482L233.031 98.4968ZM239.143 102.781L239.35 106.986L237.971 107.054L237.507 97.6111L238.867 97.5442L239.04 101.058L239.127 101.053C239.275 100.664 239.513 100.349 239.843 100.108C240.174 99.8665 240.614 99.7324 241.164 99.7053C241.65 99.6814 242.079 99.7605 242.451 99.9424C242.827 100.124 243.125 100.409 243.344 100.795C243.566 101.179 243.692 101.666 243.721 102.256L243.942 106.761L242.564 106.828L242.35 102.49C242.325 101.97 242.171 101.574 241.89 101.301C241.608 101.025 241.229 100.899 240.753 100.923C240.427 100.939 240.138 101.022 239.887 101.173C239.638 101.324 239.447 101.537 239.313 101.812C239.181 102.083 239.125 102.406 239.143 102.781ZM248.841 106.663C248.144 106.697 247.535 106.578 247.017 106.304C246.501 106.028 246.093 105.624 245.792 105.094C245.495 104.56 245.328 103.925 245.292 103.191C245.256 102.465 245.36 101.819 245.603 101.253C245.85 100.686 246.21 100.235 246.683 99.9007C247.16 99.5661 247.727 99.3826 248.385 99.3502C248.784 99.3306 249.175 99.3776 249.556 99.4914C249.938 99.6051 250.285 99.796 250.597 100.064C250.909 100.332 251.162 100.688 251.357 101.131C251.551 101.572 251.664 102.113 251.695 102.756L251.719 103.244L246.089 103.521L246.039 102.488L250.317 102.278C250.3 101.915 250.21 101.598 250.049 101.325C249.887 101.05 249.669 100.837 249.393 100.687C249.121 100.537 248.807 100.471 248.45 100.489C248.063 100.508 247.729 100.62 247.45 100.824C247.173 101.026 246.964 101.283 246.822 101.595C246.683 101.904 246.622 102.235 246.64 102.588L246.679 103.395C246.703 103.869 246.805 104.267 246.988 104.591C247.173 104.915 247.421 105.157 247.731 105.317C248.04 105.474 248.397 105.543 248.799 105.523C249.061 105.511 249.297 105.462 249.509 105.378C249.72 105.29 249.9 105.167 250.05 105.009C250.199 104.851 250.31 104.659 250.382 104.433L251.698 104.604C251.613 104.994 251.442 105.34 251.185 105.642C250.932 105.941 250.606 106.18 250.209 106.36C249.814 106.537 249.358 106.638 248.841 106.663ZM253.403 106.295L253.054 99.213L254.378 99.148L254.434 100.301L254.522 100.296C254.65 99.8987 254.877 99.5826 255.201 99.3478C255.525 99.11 255.921 98.9796 256.388 98.9567C256.862 98.9334 257.264 99.0245 257.594 99.2301C257.928 99.4356 258.181 99.7282 258.354 100.108L258.427 100.104C258.578 99.7179 258.832 99.4035 259.19 99.1609C259.548 98.9153 259.982 98.78 260.492 98.7549C261.134 98.7233 261.668 98.8988 262.094 99.2816C262.523 99.6642 262.757 100.261 262.797 101.073L263.03 105.822L261.652 105.89L261.424 101.27C261.401 100.79 261.253 100.449 260.981 100.247C260.709 100.045 260.392 99.9523 260.029 99.9701C259.581 99.9922 259.238 100.148 259.003 100.437C258.768 100.722 258.66 101.08 258.681 101.511L258.903 106.025L257.529 106.092L257.298 101.385C257.279 101 257.144 100.697 256.893 100.476C256.641 100.254 256.324 100.152 255.939 100.171C255.678 100.184 255.44 100.265 255.226 100.414C255.014 100.56 254.847 100.758 254.723 101.008C254.603 101.257 254.551 101.541 254.567 101.861L254.781 106.228L253.403 106.295Z" fill="white" fill-opacity="0.46"/>
<path d="M69.9927 145.253L69.8673 146.525L65.266 146.071L65.3915 144.799L69.9927 145.253ZM65.8504 153.066L66.7461 143.98C66.7963 143.471 66.9493 143.06 67.205 142.746C67.4611 142.429 67.7811 142.205 68.165 142.075C68.5493 141.942 68.957 141.896 69.3881 141.939C69.7062 141.97 69.9757 142.024 70.1966 142.099C70.4179 142.171 70.5813 142.233 70.6866 142.286L70.1891 143.533C70.117 143.504 70.024 143.47 69.9102 143.43C69.7967 143.387 69.6569 143.357 69.4908 143.341C69.1056 143.303 68.8205 143.371 68.6356 143.545C68.4542 143.72 68.3458 143.988 68.3102 144.348L67.4354 153.222L65.8504 153.066ZM73.9182 154.027C73.1549 153.952 72.506 153.711 71.9715 153.305C71.437 152.899 71.0435 152.366 70.791 151.706C70.5385 151.046 70.4537 150.296 70.5366 149.455C70.6199 148.61 70.85 147.887 71.2268 147.285C71.6037 146.684 72.0939 146.236 72.6974 145.942C73.3008 145.648 73.9843 145.539 74.7476 145.614C75.5109 145.69 76.1599 145.93 76.6943 146.336C77.2288 146.742 77.6221 147.277 77.8743 147.941C78.1265 148.604 78.2109 149.358 78.1276 150.203C78.0447 151.044 77.815 151.764 77.4384 152.362C77.0619 152.96 76.5719 153.406 75.9684 153.699C75.365 153.993 74.6816 154.102 73.9182 154.027ZM74.0547 152.697C74.5494 152.746 74.9723 152.656 75.3232 152.426C75.6741 152.197 75.9487 151.872 76.1471 151.453C76.349 151.034 76.4757 150.563 76.5273 150.04C76.5785 149.52 76.546 149.035 76.4298 148.585C76.3175 148.132 76.1119 147.756 75.8129 147.459C75.5139 147.162 75.117 146.989 74.6222 146.94C74.124 146.891 73.6974 146.983 73.3426 147.216C72.9914 147.449 72.7146 147.776 72.5124 148.199C72.314 148.618 72.1892 149.088 72.138 149.607C72.0865 150.13 72.117 150.617 72.2296 151.067C72.3458 151.517 72.5536 151.889 72.8529 152.183C73.1558 152.477 73.5564 152.648 74.0547 152.697ZM84.9899 151.543L85.4598 146.778L87.0501 146.934L86.2473 155.077L84.6888 154.923L84.8278 153.513L84.743 153.505C84.5129 153.921 84.1768 154.254 83.7347 154.503C83.2966 154.748 82.7718 154.841 82.1604 154.781C81.6374 154.729 81.1857 154.569 80.8055 154.299C80.4292 154.027 80.1486 153.651 79.9638 153.173C79.7826 152.694 79.7251 152.12 79.7913 151.448L80.3019 146.269L81.8869 146.425L81.3951 151.414C81.3404 151.968 81.4506 152.425 81.7256 152.784C82.0007 153.143 82.3838 153.347 82.8751 153.395C83.1719 153.425 83.4743 153.38 83.7823 153.26C84.0938 153.141 84.3615 152.941 84.5855 152.66C84.813 152.379 84.9478 152.007 84.9899 151.543ZM90.4386 150.608L89.962 155.443L88.377 155.287L89.1797 147.144L90.7011 147.294L90.5705 148.62L90.6712 148.63C90.901 148.217 91.2285 147.899 91.6536 147.677C92.0822 147.456 92.6023 147.375 93.2136 147.435C93.7685 147.49 94.2429 147.654 94.6369 147.929C95.0313 148.199 95.3209 148.574 95.5056 149.053C95.6904 149.531 95.7497 150.106 95.6835 150.778L95.1729 155.957L93.5879 155.8L94.0797 150.812C94.1379 150.222 94.0296 149.746 93.7549 149.383C93.4805 149.017 93.0748 148.808 92.5376 148.755C92.1701 148.718 91.8353 148.766 91.5334 148.897C91.235 149.028 90.9876 149.239 90.7912 149.53C90.5986 149.818 90.4811 150.177 90.4386 150.608ZM100.331 156.626C99.6737 156.561 99.1036 156.335 98.6207 155.949C98.1417 155.559 97.7864 155.037 97.5547 154.382C97.327 153.725 97.2565 152.956 97.3432 152.076C97.43 151.196 97.6508 150.458 98.0058 149.861C98.3644 149.265 98.818 148.826 99.3667 148.545C99.9154 148.263 100.517 148.155 101.17 148.219C101.676 148.269 102.074 148.394 102.365 148.594C102.659 148.791 102.88 149.009 103.028 149.248C103.179 149.488 103.294 149.697 103.373 149.876L103.468 149.886L103.866 145.852L105.451 146.008L104.381 156.865L102.833 156.712L102.958 155.445L102.825 155.432C102.713 155.596 102.555 155.78 102.353 155.985C102.155 156.19 101.892 156.36 101.564 156.496C101.237 156.631 100.826 156.675 100.331 156.626ZM100.814 155.309C101.27 155.354 101.667 155.271 102.005 155.062C102.347 154.85 102.621 154.536 102.826 154.121C103.035 153.706 103.167 153.212 103.224 152.64C103.279 152.074 103.247 151.571 103.126 151.131C103.005 150.691 102.799 150.337 102.508 150.07C102.217 149.802 101.84 149.645 101.377 149.599C100.9 149.552 100.49 149.637 100.148 149.853C99.8052 150.069 99.5316 150.383 99.3269 150.794C99.1257 151.206 98.9987 151.681 98.9457 152.218C98.892 152.762 98.9251 153.26 99.0448 153.71C99.1645 154.161 99.3708 154.529 99.6638 154.815C99.9607 155.098 100.344 155.262 100.814 155.309ZM114.087 157.987C113.284 157.908 112.61 157.669 112.065 157.269C111.523 156.866 111.125 156.336 110.872 155.679C110.623 155.02 110.541 154.267 110.624 153.423C110.706 152.589 110.934 151.869 111.308 151.264C111.685 150.658 112.172 150.205 112.769 149.904C113.37 149.602 114.048 149.489 114.805 149.564C115.264 149.609 115.702 149.729 116.118 149.923C116.534 150.118 116.898 150.394 117.208 150.753C117.519 151.112 117.748 151.561 117.895 152.1C118.042 152.636 118.079 153.273 118.006 154.011L117.95 154.573L111.478 153.935L111.595 152.748L116.514 153.233C116.555 152.816 116.507 152.438 116.369 152.1C116.232 151.758 116.018 151.478 115.729 151.261C115.444 151.043 115.096 150.914 114.686 150.874C114.241 150.83 113.841 150.901 113.488 151.088C113.138 151.271 112.855 151.529 112.641 151.861C112.43 152.19 112.304 152.557 112.264 152.964L112.173 153.891C112.119 154.436 112.169 154.908 112.322 155.308C112.479 155.709 112.72 156.027 113.047 156.263C113.374 156.495 113.769 156.634 114.232 156.68C114.532 156.709 114.81 156.694 115.066 156.633C115.322 156.569 115.549 156.46 115.746 156.304C115.943 156.149 116.102 155.949 116.223 155.704L117.696 156.122C117.532 156.552 117.279 156.917 116.935 157.219C116.595 157.517 116.183 157.735 115.698 157.873C115.218 158.008 114.68 158.046 114.087 157.987ZM119.355 158.341L120.157 150.198L121.689 150.349L121.562 151.643L121.647 151.651C121.838 151.228 122.134 150.909 122.533 150.695C122.936 150.478 123.377 150.393 123.854 150.44C123.953 150.449 124.069 150.464 124.203 150.485C124.34 150.505 124.447 150.525 124.523 150.543L124.374 152.059C124.312 152.035 124.201 152.005 124.04 151.968C123.88 151.927 123.719 151.898 123.556 151.882C123.182 151.845 122.84 151.892 122.531 152.022C122.226 152.149 121.975 152.344 121.777 152.606C121.581 152.865 121.465 153.171 121.43 153.525L120.94 158.497L119.355 158.341ZM125.084 158.906L125.887 150.763L127.419 150.914L127.291 152.208L127.376 152.216C127.567 151.792 127.863 151.474 128.262 151.26C128.666 151.043 129.106 150.957 129.583 151.005C129.682 151.014 129.798 151.029 129.932 151.05C130.069 151.07 130.176 151.09 130.252 151.108L130.103 152.624C130.041 152.6 129.93 152.57 129.769 152.532C129.609 152.492 129.448 152.463 129.285 152.447C128.911 152.41 128.569 152.457 128.26 152.587C127.955 152.714 127.704 152.909 127.506 153.171C127.31 153.43 127.194 153.736 127.159 154.089L126.669 159.062L125.084 158.906ZM133.935 159.944C133.172 159.869 132.523 159.628 131.988 159.222C131.454 158.816 131.06 158.283 130.808 157.623C130.555 156.963 130.47 156.213 130.553 155.372C130.637 154.527 130.867 153.804 131.243 153.202C131.62 152.601 132.111 152.153 132.714 151.859C133.318 151.565 134.001 151.456 134.764 151.531C135.528 151.607 136.177 151.847 136.711 152.253C137.245 152.659 137.639 153.194 137.891 153.858C138.143 154.521 138.228 155.275 138.144 156.12C138.061 156.961 137.832 157.681 137.455 158.279C137.079 158.877 136.589 159.323 135.985 159.616C135.382 159.91 134.698 160.019 133.935 159.944ZM134.071 158.614C134.566 158.663 134.989 158.573 135.34 158.343C135.691 158.114 135.965 157.789 136.164 157.37C136.366 156.951 136.492 156.48 136.544 155.957C136.595 155.437 136.563 154.952 136.446 154.502C136.334 154.048 136.129 153.673 135.83 153.376C135.531 153.079 135.134 152.906 134.639 152.857C134.141 152.808 133.714 152.9 133.359 153.132C133.008 153.365 132.731 153.693 132.529 154.116C132.331 154.535 132.206 155.005 132.155 155.524C132.103 156.047 132.134 156.534 132.246 156.984C132.362 157.434 132.57 157.806 132.87 158.1C133.172 158.393 133.573 158.565 134.071 158.614ZM139.516 160.328L140.319 152.186L141.851 152.337L141.723 153.631L141.808 153.639C141.999 153.215 142.295 152.897 142.694 152.683C143.097 152.465 143.538 152.38 144.015 152.427C144.114 152.437 144.23 152.452 144.364 152.472C144.501 152.493 144.608 152.513 144.684 152.531L144.535 154.047C144.473 154.023 144.362 153.992 144.201 153.955C144.041 153.914 143.88 153.886 143.717 153.87C143.343 153.833 143.001 153.88 142.692 154.01C142.387 154.137 142.136 154.331 141.938 154.594C141.742 154.853 141.626 155.159 141.591 155.512L141.101 160.485L139.516 160.328ZM149.195 161.283L149.998 153.14L151.583 153.297L150.78 161.439L149.195 161.283ZM150.922 151.963C150.647 151.936 150.419 151.821 150.239 151.617C150.063 151.411 149.988 151.179 150.014 150.921C150.039 150.659 150.159 150.446 150.371 150.281C150.587 150.114 150.833 150.043 151.109 150.07C151.385 150.098 151.61 150.214 151.786 150.421C151.966 150.624 152.043 150.857 152.017 151.118C151.992 151.376 151.871 151.589 151.655 151.757C151.442 151.921 151.198 151.99 150.922 151.963ZM154.974 156.971L154.498 161.805L152.913 161.649L153.715 153.507L155.237 153.657L155.106 154.982L155.207 154.992C155.437 154.579 155.764 154.262 156.189 154.04C156.618 153.818 157.138 153.737 157.749 153.797C158.304 153.852 158.779 154.017 159.173 154.291C159.567 154.562 159.857 154.937 160.041 155.415C160.226 155.894 160.285 156.469 160.219 157.14L159.709 162.319L158.124 162.163L158.615 157.175C158.674 156.584 158.565 156.108 158.291 155.746C158.016 155.38 157.611 155.17 157.073 155.117C156.706 155.081 156.371 155.128 156.069 155.259C155.771 155.39 155.523 155.601 155.327 155.892C155.134 156.18 155.017 156.54 154.974 156.971ZM170.388 155.151L170.263 156.423L165.816 155.984L165.941 154.712L170.388 155.151ZM167.326 152.879L168.911 153.035L168.152 160.738C168.121 161.045 168.144 161.281 168.221 161.446C168.298 161.607 168.406 161.723 168.545 161.793C168.689 161.861 168.847 161.903 169.02 161.92C169.147 161.933 169.259 161.935 169.356 161.927C169.454 161.919 169.529 161.912 169.583 161.906L169.74 163.244C169.645 163.27 169.511 163.293 169.338 163.311C169.164 163.333 168.95 163.334 168.695 163.312C168.278 163.278 167.896 163.166 167.551 162.975C167.206 162.784 166.938 162.514 166.747 162.167C166.557 161.82 166.486 161.401 166.534 160.91L167.326 152.879ZM173.576 158.805L173.099 163.639L171.514 163.483L172.584 152.627L174.148 152.781L173.75 156.82L173.851 156.83C174.085 156.411 174.41 156.091 174.828 155.872C175.246 155.653 175.771 155.574 176.404 155.637C176.962 155.692 177.438 155.855 177.833 156.125C178.231 156.397 178.522 156.771 178.707 157.25C178.895 157.725 178.956 158.302 178.889 158.981L178.379 164.16L176.794 164.004L177.286 159.015C177.344 158.418 177.236 157.94 176.961 157.581C176.687 157.218 176.275 157.01 175.728 156.956C175.353 156.919 175.009 156.966 174.697 157.095C174.388 157.226 174.133 157.436 173.933 157.727C173.737 158.014 173.618 158.374 173.576 158.805ZM183.987 164.879C183.185 164.8 182.511 164.56 181.965 164.16C181.423 163.757 181.026 163.227 180.773 162.571C180.524 161.911 180.441 161.159 180.524 160.314C180.606 159.48 180.834 158.76 181.208 158.155C181.585 157.55 182.073 157.096 182.67 156.795C183.27 156.494 183.949 156.38 184.705 156.455C185.164 156.5 185.602 156.62 186.018 156.815C186.435 157.009 186.798 157.286 187.109 157.645C187.42 158.004 187.648 158.453 187.795 158.992C187.942 159.527 187.979 160.164 187.906 160.903L187.851 161.465L181.378 160.827L181.495 159.639L186.415 160.124C186.456 159.707 186.407 159.329 186.269 158.991C186.132 158.649 185.919 158.37 185.63 158.152C185.344 157.935 184.996 157.806 184.587 157.765C184.141 157.721 183.742 157.793 183.388 157.979C183.038 158.162 182.756 158.42 182.541 158.752C182.33 159.081 182.205 159.449 182.165 159.855L182.073 160.783C182.019 161.327 182.069 161.799 182.222 162.2C182.379 162.601 182.621 162.919 182.947 163.154C183.274 163.386 183.669 163.525 184.132 163.571C184.432 163.6 184.71 163.585 184.966 163.525C185.222 163.461 185.449 163.351 185.646 163.196C185.844 163.04 186.002 162.84 186.123 162.595L187.596 163.013C187.433 163.443 187.179 163.809 186.835 164.11C186.495 164.409 186.083 164.627 185.599 164.765C185.118 164.899 184.581 164.937 183.987 164.879ZM192.905 168.675L194.008 157.479L195.556 157.632L195.426 158.952L195.559 158.965C195.667 158.804 195.819 158.621 196.014 158.416C196.209 158.21 196.469 158.039 196.793 157.904C197.117 157.764 197.532 157.72 198.037 157.769C198.694 157.834 199.265 158.058 199.748 158.441C200.231 158.824 200.588 159.343 200.82 159.997C201.055 160.652 201.13 161.42 201.043 162.3C200.956 163.18 200.735 163.92 200.38 164.52C200.025 165.116 199.574 165.559 199.028 165.848C198.483 166.133 197.881 166.243 197.224 166.178C196.729 166.13 196.333 166.007 196.035 165.809C195.74 165.613 195.515 165.394 195.361 165.154C195.206 164.914 195.089 164.703 195.011 164.52L194.916 164.511L194.49 168.831L192.905 168.675ZM195.16 161.704C195.104 162.276 195.137 162.786 195.261 163.234C195.385 163.681 195.592 164.042 195.882 164.317C196.173 164.588 196.546 164.747 197.002 164.792C197.476 164.838 197.884 164.752 198.227 164.532C198.57 164.309 198.844 163.988 199.05 163.57C199.259 163.151 199.39 162.67 199.443 162.126C199.496 161.589 199.463 161.098 199.342 160.655C199.225 160.211 199.018 159.85 198.721 159.571C198.428 159.292 198.042 159.129 197.565 159.082C197.106 159.037 196.705 159.117 196.364 159.323C196.026 159.528 195.755 159.835 195.55 160.243C195.346 160.651 195.216 161.138 195.16 161.704ZM204.771 166.944C204.255 166.893 203.798 166.751 203.399 166.519C203.002 166.284 202.699 165.97 202.491 165.579C202.287 165.188 202.211 164.725 202.264 164.192C202.309 163.732 202.435 163.363 202.641 163.083C202.847 162.804 203.109 162.592 203.426 162.449C203.743 162.305 204.092 162.208 204.472 162.156C204.852 162.104 205.236 162.074 205.626 162.066C206.119 162.058 206.52 162.051 206.827 162.046C207.135 162.037 207.362 161.997 207.508 161.925C207.654 161.854 207.737 161.723 207.756 161.532L207.759 161.495C207.805 161.032 207.709 160.661 207.473 160.38C207.24 160.1 206.868 159.935 206.355 159.885C205.821 159.832 205.389 159.909 205.058 160.116C204.731 160.319 204.496 160.558 204.351 160.833L202.895 160.346C203.12 159.869 203.417 159.495 203.787 159.225C204.16 158.951 204.576 158.767 205.035 158.673C205.494 158.576 205.969 158.551 206.46 158.6C206.785 158.632 207.126 158.705 207.483 158.818C207.843 158.929 208.172 159.1 208.47 159.333C208.772 159.566 209.007 159.88 209.175 160.275C209.343 160.666 209.398 161.159 209.34 161.753L208.807 167.16L207.259 167.007L207.368 165.894L207.305 165.888C207.182 166.082 207.009 166.269 206.784 166.446C206.56 166.624 206.28 166.762 205.946 166.862C205.611 166.961 205.219 166.988 204.771 166.944ZM205.241 165.705C205.679 165.749 206.062 165.699 206.39 165.556C206.722 165.414 206.982 165.212 207.173 164.949C207.367 164.682 207.479 164.388 207.511 164.067L207.615 163.017C207.552 163.068 207.438 163.11 207.27 163.144C207.107 163.174 206.921 163.197 206.712 163.212C206.504 163.223 206.301 163.234 206.104 163.243C205.907 163.248 205.743 163.254 205.61 163.258C205.299 163.267 205.012 163.305 204.748 163.371C204.488 163.439 204.274 163.551 204.105 163.709C203.939 163.864 203.843 164.083 203.815 164.366C203.776 164.758 203.892 165.069 204.162 165.299C204.432 165.526 204.792 165.661 205.241 165.705ZM214.014 170.927C213.367 170.864 212.819 170.724 212.369 170.508C211.923 170.293 211.567 170.031 211.301 169.723C211.035 169.415 210.846 169.088 210.734 168.741L212.152 168.314C212.232 168.479 212.343 168.656 212.485 168.844C212.63 169.037 212.834 169.209 213.098 169.36C213.365 169.511 213.717 169.608 214.156 169.651C214.756 169.711 215.267 169.613 215.689 169.358C216.109 169.107 216.351 168.664 216.414 168.027L216.572 166.426L216.471 166.417C216.359 166.58 216.202 166.759 216.001 166.954C215.803 167.148 215.541 167.308 215.215 167.433C214.888 167.558 214.476 167.595 213.978 167.546C213.335 167.483 212.77 167.276 212.283 166.924C211.801 166.57 211.439 166.083 211.196 165.463C210.958 164.84 210.882 164.096 210.967 163.23C211.052 162.364 211.272 161.636 211.626 161.047C211.984 160.458 212.437 160.024 212.986 159.746C213.535 159.465 214.136 159.356 214.79 159.421C215.295 159.471 215.695 159.596 215.989 159.796C216.284 159.993 216.507 160.211 216.658 160.451C216.812 160.691 216.929 160.9 217.008 161.079L217.125 161.091L217.255 159.771L218.808 159.924L217.987 168.247C217.918 168.946 217.699 169.505 217.33 169.921C216.96 170.338 216.488 170.627 215.912 170.788C215.339 170.949 214.706 170.996 214.014 170.927ZM214.457 166.266C214.913 166.311 215.309 166.243 215.644 166.062C215.984 165.878 216.254 165.594 216.456 165.211C216.662 164.824 216.793 164.35 216.848 163.788C216.902 163.24 216.868 162.75 216.747 162.317C216.625 161.884 216.419 161.535 216.127 161.271C215.836 161.003 215.459 160.846 214.996 160.801C214.519 160.754 214.109 160.838 213.767 161.054C213.425 161.267 213.152 161.575 212.948 161.98C212.747 162.385 212.621 162.847 212.57 163.366C212.517 163.9 212.553 164.376 212.675 164.795C212.798 165.214 213.008 165.552 213.303 165.81C213.603 166.068 213.987 166.22 214.457 166.266ZM223.624 168.786C222.822 168.707 222.148 168.468 221.602 168.068C221.06 167.665 220.663 167.135 220.41 166.478C220.161 165.819 220.078 165.066 220.161 164.222C220.243 163.388 220.471 162.668 220.845 162.063C221.222 161.458 221.709 161.004 222.307 160.703C222.907 160.401 223.586 160.288 224.342 160.363C224.801 160.408 225.239 160.528 225.655 160.722C226.072 160.917 226.435 161.194 226.746 161.552C227.056 161.911 227.285 162.36 227.432 162.899C227.579 163.435 227.616 164.072 227.543 164.81L227.488 165.372L221.015 164.734L221.132 163.547L226.052 164.032C226.093 163.615 226.044 163.237 225.906 162.899C225.769 162.557 225.556 162.277 225.267 162.06C224.981 161.842 224.633 161.714 224.223 161.673C223.778 161.629 223.379 161.7 223.025 161.887C222.675 162.07 222.393 162.328 222.178 162.66C221.967 162.989 221.842 163.356 221.802 163.763L221.71 164.69C221.656 165.235 221.706 165.707 221.859 166.107C222.016 166.508 222.258 166.826 222.584 167.062C222.911 167.294 223.306 167.433 223.769 167.479C224.069 167.508 224.347 167.493 224.603 167.432C224.859 167.368 225.086 167.259 225.283 167.103C225.48 166.948 225.639 166.748 225.76 166.503L227.233 166.921C227.07 167.351 226.816 167.717 226.472 168.018C226.132 168.316 225.72 168.535 225.236 168.672C224.755 168.807 224.218 168.845 223.624 168.786ZM237.52 161.769L237.395 163.041L232.794 162.588L232.919 161.315L237.52 161.769ZM233.378 169.582L234.274 160.496C234.324 159.987 234.477 159.576 234.733 159.262C234.989 158.945 235.309 158.721 235.693 158.591C236.077 158.458 236.485 158.413 236.916 158.455C237.234 158.486 237.503 158.54 237.724 158.615C237.946 158.687 238.109 158.749 238.214 158.803L237.717 160.049C237.645 160.02 237.552 159.986 237.438 159.946C237.324 159.903 237.185 159.873 237.018 159.857C236.633 159.819 236.348 159.887 236.163 160.062C235.982 160.236 235.873 160.504 235.838 160.864L234.963 169.738L233.378 169.582ZM238.353 170.073L239.156 161.93L240.741 162.086L239.938 170.229L238.353 170.073ZM240.08 160.753C239.804 160.726 239.577 160.61 239.397 160.407C239.221 160.201 239.146 159.968 239.171 159.71C239.197 159.449 239.316 159.236 239.529 159.071C239.745 158.903 239.991 158.833 240.267 158.86C240.542 158.888 240.768 159.004 240.944 159.211C241.124 159.414 241.201 159.646 241.175 159.908C241.15 160.166 241.029 160.379 240.812 160.547C240.6 160.711 240.356 160.78 240.08 160.753ZM244.124 162.42L245.609 165.767L247.734 162.776L249.468 162.947L246.527 166.768L248.686 171.091L246.953 170.92L245.418 167.697L243.29 170.559L241.551 170.388L244.486 166.566L242.385 162.249L244.124 162.42ZM250.292 171.25L251.095 163.107L252.68 163.264L251.877 171.406L250.292 171.25ZM252.019 161.93C251.744 161.903 251.516 161.787 251.336 161.584C251.16 161.378 251.085 161.145 251.11 160.887C251.136 160.626 251.255 160.413 251.468 160.248C251.684 160.081 251.93 160.01 252.206 160.037C252.481 160.065 252.707 160.181 252.883 160.388C253.063 160.591 253.14 160.824 253.114 161.085C253.089 161.343 252.968 161.556 252.751 161.724C252.539 161.888 252.295 161.957 252.019 161.93ZM256.071 166.938L255.595 171.772L254.01 171.616L254.812 163.474L256.334 163.624L256.203 164.949L256.304 164.959C256.534 164.546 256.861 164.229 257.286 164.007C257.715 163.785 258.235 163.704 258.846 163.764C259.401 163.819 259.875 163.984 260.269 164.258C260.664 164.529 260.953 164.903 261.138 165.382C261.323 165.861 261.382 166.436 261.316 167.107L260.805 172.286L259.22 172.13L259.712 167.142C259.77 166.551 259.662 166.075 259.387 165.713C259.113 165.347 258.707 165.137 258.17 165.084C257.803 165.048 257.468 165.095 257.166 165.226C256.868 165.357 256.62 165.568 256.424 165.859C256.231 166.147 256.114 166.507 256.071 166.938ZM266.027 176.055C265.381 175.991 264.832 175.852 264.383 175.636C263.936 175.421 263.58 175.159 263.314 174.851C263.049 174.543 262.86 174.216 262.748 173.869L264.165 173.442C264.245 173.607 264.356 173.783 264.498 173.972C264.644 174.165 264.848 174.337 265.111 174.488C265.378 174.639 265.731 174.736 266.169 174.779C266.77 174.838 267.281 174.741 267.702 174.486C268.123 174.235 268.365 173.791 268.427 173.155L268.585 171.554L268.484 171.544C268.372 171.708 268.215 171.887 268.014 172.081C267.816 172.276 267.554 172.436 267.228 172.561C266.902 172.686 266.49 172.723 265.991 172.674C265.348 172.611 264.783 172.404 264.297 172.052C263.814 171.698 263.452 171.211 263.21 170.591C262.972 169.968 262.895 169.224 262.98 168.358C263.066 167.492 263.286 166.764 263.64 166.175C263.998 165.585 264.451 165.152 264.999 164.874C265.548 164.593 266.149 164.484 266.803 164.549C267.308 164.599 267.708 164.724 268.002 164.924C268.297 165.121 268.52 165.339 268.671 165.579C268.826 165.819 268.943 166.028 269.021 166.207L269.138 166.219L269.268 164.899L270.821 165.052L270.001 173.375C269.932 174.074 269.713 174.633 269.343 175.049C268.974 175.466 268.501 175.755 267.925 175.916C267.353 176.077 266.72 176.124 266.027 176.055ZM266.471 171.394C266.927 171.439 267.322 171.371 267.658 171.19C267.997 171.006 268.268 170.722 268.47 170.339C268.675 169.952 268.806 169.478 268.861 168.916C268.915 168.368 268.882 167.878 268.76 167.445C268.639 167.012 268.432 166.663 268.141 166.399C267.85 166.131 267.472 165.974 267.01 165.929C266.532 165.882 266.123 165.966 265.78 166.182C265.438 166.395 265.165 166.703 264.961 167.108C264.761 167.513 264.635 167.975 264.583 168.494C264.531 169.028 264.566 169.504 264.689 169.923C264.812 170.342 265.021 170.68 265.317 170.938C265.616 171.196 266.001 171.348 266.471 171.394ZM276.095 173.793L276.898 165.651L278.483 165.807L277.68 173.95L276.095 173.793ZM277.822 164.474C277.546 164.447 277.319 164.331 277.139 164.128C276.963 163.922 276.888 163.689 276.913 163.431C276.939 163.17 277.058 162.957 277.27 162.792C277.487 162.624 277.733 162.554 278.008 162.581C278.284 162.608 278.51 162.725 278.686 162.932C278.866 163.135 278.943 163.367 278.917 163.629C278.891 163.887 278.77 164.1 278.554 164.268C278.342 164.432 278.098 164.501 277.822 164.474ZM284.416 166.392L284.29 167.665L279.843 167.226L279.968 165.954L284.416 166.392ZM281.353 164.121L282.938 164.277L282.179 171.979C282.149 172.287 282.172 172.523 282.248 172.687C282.325 172.848 282.433 172.964 282.573 173.035C282.716 173.103 282.874 173.145 283.047 173.162C283.174 173.175 283.287 173.177 283.384 173.169C283.481 173.16 283.556 173.153 283.611 173.148L283.768 174.486C283.672 174.512 283.538 174.534 283.365 174.553C283.192 174.575 282.977 174.575 282.723 174.554C282.305 174.52 281.923 174.407 281.578 174.216C281.233 174.025 280.965 173.756 280.775 173.409C280.584 173.062 280.513 172.643 280.561 172.152L281.353 164.121ZM290.351 175.301C290.061 175.272 289.822 175.145 289.634 174.92C289.446 174.69 289.367 174.429 289.396 174.136C289.424 173.846 289.553 173.609 289.782 173.425C290.011 173.237 290.27 173.157 290.56 173.186C290.85 173.214 291.088 173.343 291.276 173.572C291.465 173.798 291.545 174.055 291.516 174.345C291.497 174.539 291.43 174.713 291.315 174.866C291.204 175.015 291.064 175.13 290.895 175.21C290.727 175.29 290.546 175.32 290.351 175.301ZM294.579 175.717C294.289 175.689 294.05 175.562 293.862 175.336C293.674 175.107 293.594 174.846 293.623 174.553C293.652 174.263 293.78 174.026 294.009 173.841C294.238 173.653 294.498 173.574 294.787 173.602C295.077 173.631 295.316 173.76 295.504 173.989C295.692 174.214 295.772 174.472 295.744 174.762C295.724 174.956 295.657 175.13 295.542 175.283C295.431 175.432 295.291 175.547 295.123 175.627C294.955 175.706 294.773 175.737 294.579 175.717ZM298.806 176.134C298.517 176.106 298.278 175.979 298.089 175.753C297.901 175.524 297.822 175.263 297.851 174.97C297.879 174.68 298.008 174.443 298.237 174.258C298.466 174.07 298.725 173.991 299.015 174.019C299.305 174.048 299.544 174.177 299.731 174.406C299.92 174.631 300 174.889 299.971 175.179C299.952 175.373 299.885 175.547 299.77 175.699C299.659 175.849 299.519 175.964 299.351 176.043C299.182 176.123 299.001 176.153 298.806 176.134ZM303.034 176.551C302.744 176.522 302.505 176.395 302.317 176.17C302.129 175.941 302.049 175.68 302.078 175.386C302.107 175.097 302.235 174.859 302.464 174.675C302.693 174.487 302.953 174.407 303.242 174.436C303.532 174.464 303.771 174.593 303.959 174.822C304.147 175.048 304.227 175.306 304.199 175.595C304.179 175.79 304.112 175.963 303.997 176.116C303.886 176.266 303.747 176.38 303.578 176.46C303.41 176.54 303.228 176.57 303.034 176.551Z" fill="white" fill-opacity="0.46"/>
<path d="M249.597 231.417L250.384 243.026L248.689 243.141L247.902 231.532L249.597 231.417ZM256.344 242.799C255.528 242.854 254.803 242.716 254.169 242.383C253.535 242.05 253.027 241.558 252.645 240.908C252.263 240.259 252.042 239.484 251.981 238.584C251.919 237.681 252.034 236.88 252.325 236.181C252.615 235.481 253.052 234.924 253.635 234.509C254.218 234.093 254.918 233.858 255.734 233.803C256.55 233.747 257.275 233.886 257.909 234.219C258.543 234.552 259.051 235.045 259.433 235.699C259.816 236.353 260.037 237.131 260.098 238.034C260.159 238.934 260.045 239.731 259.754 240.427C259.463 241.122 259.026 241.678 258.443 242.093C257.86 242.508 257.16 242.744 256.344 242.799ZM256.253 241.376C256.782 241.34 257.211 241.17 257.54 240.867C257.869 240.564 258.1 240.174 258.235 239.698C258.374 239.222 258.424 238.704 258.386 238.145C258.348 237.589 258.229 237.085 258.027 236.631C257.829 236.174 257.547 235.815 257.18 235.555C256.813 235.296 256.365 235.184 255.836 235.219C255.303 235.256 254.87 235.427 254.538 235.735C254.21 236.042 253.976 236.435 253.838 236.915C253.703 237.391 253.655 237.907 253.692 238.463C253.73 239.022 253.848 239.528 254.046 239.982C254.247 240.435 254.532 240.79 254.898 241.046C255.269 241.302 255.72 241.412 256.253 241.376ZM263.906 242.11L260.753 233.576L262.505 233.458L264.644 239.736L264.729 239.731L266.008 233.22L267.76 233.101L269.892 239.352L269.977 239.346L271.24 232.865L272.992 232.747L271.026 241.627L269.297 241.744L267.102 235.578L266.971 235.587L265.629 241.993L263.906 242.11ZM285.494 234.035L283.976 234.411C283.899 234.219 283.784 234.039 283.632 233.871C283.484 233.702 283.289 233.569 283.047 233.472C282.805 233.374 282.508 233.337 282.157 233.361C281.677 233.394 281.284 233.529 280.977 233.766C280.67 233.999 280.528 234.284 280.551 234.62C280.57 234.911 280.694 235.138 280.922 235.302C281.149 235.465 281.507 235.586 281.994 235.667L283.399 235.891C284.213 236.022 284.829 236.267 285.248 236.626C285.667 236.984 285.898 237.472 285.94 238.088C285.975 238.609 285.855 239.084 285.581 239.513C285.31 239.938 284.913 240.283 284.392 240.55C283.875 240.817 283.265 240.974 282.562 241.022C281.587 241.088 280.777 240.934 280.133 240.56C279.489 240.182 279.071 239.613 278.879 238.851L280.5 238.491C280.631 238.911 280.863 239.22 281.195 239.417C281.527 239.611 281.948 239.691 282.458 239.656C283.014 239.619 283.45 239.473 283.767 239.22C284.084 238.963 284.231 238.667 284.208 238.331C284.189 238.058 284.072 237.837 283.855 237.665C283.642 237.494 283.325 237.375 282.903 237.308L281.407 237.085C280.582 236.955 279.961 236.701 279.544 236.323C279.131 235.945 278.904 235.446 278.862 234.826C278.827 234.312 278.94 233.853 279.201 233.448C279.462 233.043 279.839 232.715 280.331 232.466C280.822 232.212 281.395 232.063 282.049 232.019C282.99 231.955 283.744 232.109 284.312 232.481C284.88 232.848 285.274 233.366 285.494 234.035ZM291.739 240.4C290.881 240.458 290.129 240.325 289.485 240C288.844 239.672 288.332 239.184 287.951 238.538C287.572 237.888 287.353 237.111 287.291 236.208C287.231 235.316 287.344 234.519 287.63 233.816C287.921 233.113 288.353 232.55 288.928 232.128C289.507 231.705 290.201 231.466 291.01 231.412C291.501 231.378 291.983 231.427 292.455 231.558C292.927 231.69 293.358 231.917 293.748 232.24C294.138 232.562 294.458 232.994 294.707 233.536C294.956 234.073 295.108 234.737 295.161 235.527L295.202 236.127L288.28 236.597L288.194 235.327L293.455 234.97C293.425 234.524 293.307 234.135 293.102 233.804C292.897 233.468 292.624 233.212 292.281 233.034C291.943 232.855 291.554 232.781 291.116 232.811C290.64 232.843 290.232 232.989 289.893 233.247C289.557 233.501 289.305 233.822 289.138 234.209C288.974 234.592 288.907 235.001 288.936 235.436L289.003 236.428C289.043 237.01 289.178 237.498 289.41 237.892C289.646 238.287 289.956 238.579 290.341 238.769C290.726 238.956 291.166 239.032 291.661 238.998C291.982 238.977 292.272 238.912 292.53 238.803C292.788 238.69 293.007 238.535 293.188 238.337C293.368 238.139 293.5 237.9 293.583 237.621L295.207 237.801C295.111 238.282 294.908 238.712 294.6 239.09C294.295 239.463 293.899 239.765 293.414 239.996C292.932 240.222 292.373 240.357 291.739 240.4ZM301.023 239.771C300.206 239.826 299.481 239.687 298.847 239.354C298.214 239.021 297.706 238.53 297.324 237.88C296.942 237.23 296.72 236.455 296.659 235.556C296.598 234.653 296.713 233.851 297.003 233.152C297.294 232.453 297.731 231.896 298.314 231.48C298.897 231.065 299.597 230.829 300.413 230.774C301.229 230.719 301.954 230.858 302.588 231.19C303.222 231.523 303.73 232.017 304.112 232.67C304.494 233.324 304.716 234.102 304.777 235.006C304.838 235.905 304.723 236.703 304.432 237.398C304.142 238.094 303.705 238.649 303.122 239.064C302.539 239.48 301.839 239.715 301.023 239.771ZM300.932 238.347C301.461 238.311 301.89 238.142 302.219 237.839C302.547 237.535 302.779 237.146 302.914 236.67C303.052 236.193 303.103 235.675 303.065 235.116C303.027 234.561 302.908 234.056 302.706 233.603C302.508 233.145 302.225 232.787 301.859 232.527C301.492 232.267 301.044 232.155 300.515 232.191C299.982 232.227 299.549 232.399 299.217 232.706C298.888 233.013 298.655 233.407 298.517 233.887C298.382 234.363 298.333 234.879 298.371 235.434C298.409 235.994 298.527 236.5 298.725 236.954C298.926 237.407 299.21 237.762 299.577 238.018C299.947 238.274 300.399 238.383 300.932 238.347ZM312.094 227.18L312.881 238.79L311.186 238.905L310.399 227.295L312.094 227.18ZM318.926 238.557C318.068 238.615 317.317 238.482 316.672 238.157C316.031 237.829 315.52 237.341 315.138 236.695C314.76 236.045 314.54 235.268 314.479 234.365C314.419 233.473 314.532 232.676 314.818 231.973C315.108 231.27 315.541 230.707 316.116 230.285C316.695 229.862 317.389 229.623 318.197 229.569C318.689 229.535 319.17 229.584 319.642 229.716C320.114 229.847 320.546 230.074 320.936 230.397C321.326 230.72 321.646 231.152 321.895 231.693C322.144 232.23 322.295 232.894 322.349 233.684L322.389 234.285L315.468 234.754L315.382 233.484L320.642 233.127C320.612 232.681 320.495 232.293 320.29 231.961C320.085 231.626 319.811 231.369 319.469 231.191C319.13 231.013 318.742 230.938 318.304 230.968C317.827 231 317.42 231.146 317.08 231.404C316.744 231.658 316.493 231.979 316.325 232.366C316.162 232.75 316.094 233.158 316.124 233.593L316.191 234.585C316.23 235.167 316.366 235.655 316.598 236.05C316.833 236.444 317.144 236.736 317.529 236.926C317.913 237.113 318.353 237.189 318.848 237.156C319.169 237.134 319.459 237.069 319.718 236.96C319.976 236.848 320.195 236.692 320.375 236.494C320.555 236.296 320.687 236.057 320.771 235.778L322.395 235.958C322.298 236.44 322.096 236.869 321.787 237.247C321.482 237.621 321.087 237.923 320.602 238.153C320.12 238.379 319.561 238.514 318.926 238.557ZM328.005 229.018L328.097 230.378L323.341 230.701L323.249 229.34L328.005 229.018ZM324.383 227.168L326.078 227.053L326.636 235.289C326.658 235.618 326.724 235.862 326.834 236.022C326.943 236.178 327.077 236.281 327.236 236.331C327.399 236.377 327.573 236.393 327.758 236.381C327.894 236.372 328.012 236.354 328.113 236.328C328.214 236.302 328.292 236.282 328.348 236.267L328.749 237.646C328.654 237.691 328.516 237.738 328.337 237.788C328.159 237.842 327.934 237.88 327.662 237.902C327.216 237.94 326.795 237.889 326.399 237.749C326.002 237.608 325.673 237.373 325.411 237.041C325.149 236.71 325.001 236.281 324.965 235.756L324.383 227.168ZM336.408 230.584L334.891 230.96C334.813 230.768 334.698 230.588 334.547 230.419C334.398 230.251 334.203 230.118 333.961 230.021C333.719 229.923 333.423 229.886 333.071 229.91C332.591 229.943 332.198 230.077 331.891 230.315C331.584 230.548 331.442 230.833 331.465 231.169C331.485 231.46 331.608 231.687 331.836 231.85C332.063 232.013 332.421 232.135 332.909 232.216L334.313 232.44C335.127 232.571 335.744 232.816 336.163 233.174C336.582 233.533 336.812 234.021 336.854 234.637C336.889 235.158 336.77 235.633 336.495 236.062C336.224 236.487 335.828 236.832 335.307 237.099C334.79 237.366 334.179 237.523 333.477 237.571C332.502 237.637 331.692 237.483 331.048 237.109C330.403 236.731 329.985 236.162 329.793 235.4L331.414 235.04C331.545 235.46 331.777 235.769 332.109 235.966C332.441 236.16 332.862 236.24 333.373 236.205C333.928 236.168 334.364 236.022 334.681 235.769C334.998 235.512 335.145 235.216 335.122 234.879C335.104 234.607 334.986 234.386 334.77 234.214C334.557 234.043 334.239 233.924 333.817 233.857L332.321 233.634C331.496 233.504 330.875 233.25 330.459 232.872C330.046 232.494 329.818 231.995 329.776 231.375C329.742 230.861 329.855 230.401 330.116 229.997C330.377 229.592 330.753 229.264 331.245 229.014C331.737 228.761 332.309 228.612 332.963 228.568C333.904 228.504 334.659 228.658 335.227 229.029C335.795 229.397 336.189 229.915 336.408 230.584ZM348.384 232.756L348.039 227.66L349.739 227.544L350.329 236.252L348.663 236.365L348.561 234.857L348.47 234.863C348.301 235.341 348.006 235.751 347.585 236.09C347.167 236.426 346.632 236.616 345.978 236.661C345.418 236.699 344.915 236.609 344.468 236.393C344.024 236.172 343.662 235.827 343.384 235.356C343.109 234.885 342.947 234.29 342.898 233.572L342.523 228.034L344.218 227.919L344.579 233.253C344.62 233.846 344.816 234.308 345.169 234.637C345.521 234.966 345.96 235.113 346.485 235.077C346.803 235.056 347.113 234.955 347.416 234.775C347.723 234.595 347.969 234.337 348.155 234.002C348.345 233.666 348.421 233.251 348.384 232.756ZM352.828 239.363L352.017 227.39L353.672 227.278L353.768 228.689L353.909 228.68C353.995 228.492 354.123 228.272 354.292 228.022C354.461 227.771 354.704 227.546 355.02 227.346C355.337 227.142 355.765 227.022 356.306 226.985C357.009 226.938 357.648 227.073 358.224 227.391C358.8 227.709 359.267 228.191 359.626 228.839C359.989 229.486 360.202 230.281 360.266 231.222C360.33 232.163 360.228 232.98 359.96 233.674C359.691 234.364 359.296 234.909 358.772 235.309C358.249 235.705 357.635 235.927 356.932 235.975C356.403 236.011 355.964 235.951 355.616 235.797C355.271 235.642 354.997 235.451 354.792 235.226C354.586 235.001 354.427 234.799 354.312 234.621L354.21 234.628L354.523 239.248L352.828 239.363ZM353.973 231.631C354.014 232.243 354.139 232.774 354.348 233.223C354.557 233.672 354.839 234.016 355.193 234.254C355.546 234.488 355.967 234.588 356.455 234.555C356.961 234.521 357.375 234.358 357.697 234.067C358.019 233.772 358.251 233.386 358.393 232.909C358.539 232.432 358.593 231.903 358.553 231.321C358.514 230.746 358.392 230.236 358.187 229.791C357.986 229.345 357.705 229.002 357.343 228.76C356.985 228.519 356.551 228.415 356.041 228.45C355.549 228.483 355.142 228.638 354.819 228.914C354.5 229.19 354.269 229.561 354.126 230.026C353.983 230.492 353.932 231.027 353.973 231.631ZM366.344 238.629C365.652 238.676 365.051 238.625 364.539 238.478C364.032 238.33 363.611 238.117 363.277 237.84C362.944 237.563 362.687 237.252 362.508 236.907L363.924 236.207C364.038 236.367 364.186 236.533 364.368 236.707C364.555 236.884 364.8 237.029 365.104 237.141C365.411 237.253 365.799 237.293 366.268 237.261C366.91 237.218 367.431 237.025 367.829 236.683C368.227 236.345 368.404 235.835 368.358 235.155L368.241 233.443L368.134 233.45C368.044 233.642 367.911 233.858 367.734 234.098C367.56 234.338 367.312 234.552 366.991 234.741C366.67 234.93 366.243 235.042 365.71 235.078C365.022 235.125 364.391 235.006 363.818 234.722C363.248 234.435 362.781 233.986 362.417 233.377C362.056 232.763 361.845 231.994 361.782 231.068C361.719 230.142 361.822 229.337 362.091 228.655C362.364 227.972 362.764 227.436 363.292 227.047C363.82 226.655 364.433 226.435 365.132 226.387C365.673 226.351 366.115 226.412 366.46 226.571C366.805 226.726 367.078 226.916 367.279 227.141C367.484 227.367 367.644 227.567 367.758 227.741L367.883 227.733L367.787 226.321L369.448 226.209L370.051 235.109C370.102 235.857 369.97 236.483 369.655 236.986C369.34 237.49 368.893 237.877 368.316 238.148C367.742 238.418 367.084 238.579 366.344 238.629ZM365.989 233.647C366.476 233.614 366.881 233.473 367.202 233.223C367.526 232.97 367.761 232.623 367.906 232.184C368.054 231.742 368.108 231.22 368.067 230.619C368.027 230.033 367.906 229.523 367.701 229.089C367.497 228.655 367.219 228.324 366.865 228.098C366.512 227.867 366.088 227.769 365.593 227.802C365.082 227.837 364.666 227.998 364.344 228.286C364.022 228.57 363.789 228.942 363.645 229.404C363.506 229.865 363.455 230.373 363.492 230.929C363.531 231.5 363.652 231.994 363.855 232.413C364.058 232.833 364.338 233.151 364.694 233.37C365.055 233.589 365.486 233.681 365.989 233.647ZM372.312 234.762L371.721 226.054L373.36 225.943L373.453 227.327L373.544 227.32C373.671 226.841 373.926 226.454 374.308 226.158C374.694 225.859 375.142 225.692 375.652 225.657C375.758 225.65 375.883 225.645 376.027 225.643C376.175 225.641 376.291 225.642 376.375 225.648L376.485 227.269C376.416 227.255 376.293 227.242 376.118 227.231C375.942 227.217 375.767 227.215 375.594 227.227C375.193 227.254 374.842 227.363 374.54 227.555C374.241 227.742 374.011 227.991 373.85 228.302C373.688 228.609 373.621 228.952 373.646 229.33L374.007 234.647L372.312 234.762ZM380.907 234.373C380.355 234.41 379.85 234.342 379.39 234.168C378.93 233.99 378.556 233.714 378.269 233.339C377.985 232.963 377.824 232.49 377.785 231.919C377.752 231.428 377.819 231.017 377.986 230.687C378.154 230.357 378.392 230.088 378.701 229.881C379.009 229.674 379.359 229.51 379.749 229.388C380.14 229.267 380.539 229.168 380.948 229.091C381.465 228.995 381.885 228.917 382.208 228.857C382.53 228.794 382.762 228.712 382.903 228.611C383.044 228.51 383.108 228.358 383.094 228.154L383.091 228.114C383.058 227.619 382.892 227.245 382.594 226.992C382.299 226.738 381.878 226.63 381.33 226.667C380.76 226.706 380.318 226.863 380.007 227.139C379.699 227.41 379.493 227.703 379.389 228.018L377.771 227.763C377.924 227.221 378.171 226.775 378.512 226.426C378.856 226.072 379.262 225.805 379.728 225.626C380.194 225.442 380.689 225.333 381.215 225.297C381.562 225.273 381.934 225.29 382.328 225.347C382.727 225.4 383.103 225.522 383.458 225.714C383.817 225.907 384.119 226.195 384.365 226.581C384.612 226.963 384.756 227.472 384.799 228.107L385.191 233.889L383.536 234.001L383.455 232.81L383.387 232.815C383.292 233.042 383.143 233.268 382.938 233.495C382.733 233.721 382.463 233.916 382.129 234.079C381.794 234.242 381.387 234.34 380.907 234.373ZM381.183 232.987C381.652 232.955 382.046 232.836 382.366 232.628C382.69 232.42 382.929 232.161 383.083 231.851C383.24 231.536 383.307 231.207 383.283 230.863L383.207 229.741C383.151 229.805 383.038 229.87 382.867 229.935C382.701 229.995 382.509 230.052 382.292 230.105C382.075 230.153 381.864 230.2 381.658 230.244C381.452 230.285 381.28 230.319 381.141 230.348C380.815 230.412 380.52 230.502 380.254 230.619C379.992 230.735 379.787 230.891 379.637 231.087C379.49 231.28 379.427 231.527 379.448 231.829C379.476 232.249 379.653 232.556 379.977 232.75C380.301 232.941 380.704 233.02 381.183 232.987ZM390.72 233.685C390.017 233.732 389.377 233.595 388.801 233.274C388.229 232.948 387.763 232.462 387.404 231.814C387.048 231.162 386.839 230.366 386.775 229.425C386.711 228.484 386.813 227.668 387.082 226.978C387.354 226.288 387.754 225.746 388.281 225.353C388.809 224.961 389.423 224.741 390.122 224.693C390.662 224.657 391.103 224.718 391.444 224.877C391.789 225.032 392.06 225.223 392.257 225.448C392.459 225.674 392.616 225.874 392.731 226.048L392.833 226.041L392.54 221.727L394.235 221.613L395.022 233.222L393.367 233.335L393.275 231.98L393.133 231.989C393.044 232.181 392.911 232.403 392.734 232.654C392.561 232.905 392.315 233.131 391.994 233.331C391.674 233.531 391.249 233.649 390.72 233.685ZM390.996 232.214C391.483 232.181 391.887 232.024 392.206 231.745C392.528 231.461 392.761 231.082 392.903 230.61C393.05 230.137 393.102 229.594 393.061 228.982C393.02 228.377 392.897 227.854 392.692 227.412C392.488 226.97 392.209 226.634 391.855 226.404C391.502 226.173 391.077 226.075 390.582 226.109C390.072 226.143 389.656 226.304 389.334 226.592C389.011 226.879 388.779 227.258 388.636 227.727C388.497 228.196 388.447 228.717 388.486 229.292C388.525 229.874 388.648 230.391 388.853 230.844C389.058 231.297 389.34 231.648 389.699 231.897C390.061 232.142 390.493 232.248 390.996 232.214ZM401.206 232.98C400.348 233.038 399.597 232.905 398.952 232.58C398.311 232.251 397.8 231.764 397.418 231.118C397.04 230.468 396.82 229.691 396.759 228.788C396.699 227.896 396.812 227.099 397.098 226.396C397.388 225.693 397.821 225.13 398.396 224.708C398.975 224.285 399.668 224.046 400.477 223.991C400.969 223.958 401.45 224.007 401.922 224.138C402.394 224.27 402.825 224.497 403.216 224.819C403.606 225.142 403.926 225.574 404.175 226.115C404.424 226.653 404.575 227.317 404.629 228.106L404.669 228.707L397.748 229.176L397.662 227.907L402.922 227.55C402.892 227.104 402.775 226.715 402.57 226.384C402.365 226.048 402.091 225.792 401.749 225.614C401.41 225.435 401.022 225.361 400.583 225.391C400.107 225.423 399.7 225.568 399.36 225.827C399.024 226.081 398.773 226.402 398.605 226.789C398.441 227.172 398.374 227.581 398.404 228.016L398.471 229.008C398.51 229.59 398.646 230.078 398.878 230.472C399.113 230.866 399.424 231.159 399.809 231.349C400.193 231.535 400.633 231.612 401.128 231.578C401.449 231.557 401.739 231.491 401.998 231.383C402.256 231.27 402.475 231.115 402.655 230.917C402.835 230.719 402.967 230.48 403.051 230.201L404.675 230.381C404.578 230.862 404.376 231.292 404.067 231.67C403.762 232.043 403.367 232.345 402.881 232.576C402.399 232.802 401.841 232.937 401.206 232.98Z" fill="white" fill-opacity="0.46"/>
<defs>
<filter id="filter0_f_932_668" x="331.635" y="123.336" width="233.387" height="211.759" filterUnits="userSpaceOnUse" color-interpolation-filters="sRGB">
<feFlood flood-opacity="0" result="BackgroundImageFix"/>
<feBlend mode="normal" in="SourceGraphic" in2="BackgroundImageFix" result="shape"/>
<feGaussianBlur stdDeviation="47.5332" result="effect1_foregroundBlur_932_668"/>
</filter>
<filter id="filter1_f_932_668" x="181.391" y="-4.14658" width="233.387" height="211.759" filterUnits="userSpaceOnUse" color-interpolation-filters="sRGB">
<feFlood flood-opacity="0" result="BackgroundImageFix"/>
<feBlend mode="normal" in="SourceGraphic" in2="BackgroundImageFix" result="shape"/>
<feGaussianBlur stdDeviation="47.5332" result="effect1_foregroundBlur_932_668"/>
</filter>
<filter id="filter2_f_932_668" x="229.193" y="6.09756" width="244.77" height="253.874" filterUnits="userSpaceOnUse" color-interpolation-filters="sRGB">
<feFlood flood-opacity="0" result="BackgroundImageFix"/>
<feBlend mode="normal" in="SourceGraphic" in2="BackgroundImageFix" result="shape"/>
<feGaussianBlur stdDeviation="47.5332" result="effect1_foregroundBlur_932_668"/>
</filter>
<radialGradient id="paint0_radial_932_668" cx="0" cy="0" r="1" gradientUnits="userSpaceOnUse" gradientTransform="translate(1 0.999512) rotate(41.6335) scale(685.309 770.973)">
<stop stop-color="#1B1B1B" stop-opacity="0"/>
<stop offset="0.494792" stop-color="#1B1B1B"/>
</radialGradient>
<radialGradient id="paint1_radial_932_668" cx="0" cy="0" r="1" gradientUnits="userSpaceOnUse" gradientTransform="translate(482.474 100.595) rotate(149.773) scale(159.399 204.212)">
<stop stop-color="#FFBDE8"/>
<stop offset="1" stop-color="#FFBDE8" stop-opacity="0"/>
</radialGradient>
<radialGradient id="paint2_radial_932_668" cx="0" cy="0" r="1" gradientUnits="userSpaceOnUse" gradientTransform="translate(457.433 129.62) rotate(132.99) scale(45.9049 82.5519)">
<stop stop-color="#FF5CC6" stop-opacity="0.5"/>
<stop offset="1" stop-color="#FF57C5" stop-opacity="0"/>
</radialGradient>
<radialGradient id="paint3_radial_932_668" cx="0" cy="0" r="1" gradientUnits="userSpaceOnUse" gradientTransform="translate(25.0384 34.3418) rotate(45.2227) scale(553.933 433.533)">
<stop stop-color="#141414"/>
<stop offset="1" stop-color="#1B1B1B" stop-opacity="0"/>
</radialGradient>
<linearGradient id="paint4_linear_932_668" x1="258.241" y1="285.558" x2="258.241" y2="387.431" gradientUnits="userSpaceOnUse">
<stop stop-color="#333333"/>
<stop offset="0.0666667" stop-color="#333333" stop-opacity="0.991353"/>
<stop offset="0.133333" stop-color="#323232" stop-opacity="0.96449"/>
<stop offset="0.2" stop-color="#313131" stop-opacity="0.91834"/>
<stop offset="0.266667" stop-color="#303030" stop-opacity="0.852589"/>
<stop offset="0.333333" stop-color="#2E2E2E" stop-opacity="0.768225"/>
<stop offset="0.4" stop-color="#2B2B2B" stop-opacity="0.668116"/>
<stop offset="0.466667" stop-color="#292929" stop-opacity="0.557309"/>
<stop offset="0.533333" stop-color="#262626" stop-opacity="0.442691"/>
<stop offset="0.6" stop-color="#242424" stop-opacity="0.331884"/>
<stop offset="0.666667" stop-color="#212121" stop-opacity="0.231775"/>
<stop offset="0.733333" stop-color="#1F1F1F" stop-opacity="0.147411"/>
<stop offset="0.8" stop-color="#1E1E1E" stop-opacity="0.0816599"/>
<stop offset="0.866667" stop-color="#1D1D1D" stop-opacity="0.03551"/>
<stop offset="0.933333" stop-color="#1C1C1C" stop-opacity="0.01"/>
<stop offset="1" stop-color="#1C1C1C" stop-opacity="0"/>
</linearGradient>
<linearGradient id="paint5_linear_932_668" x1="259.38" y1="70.4316" x2="259.38" y2="228.988" gradientUnits="userSpaceOnUse">
<stop stop-color="#333333"/>
<stop offset="1" stop-color="#292929"/>
</linearGradient>
<radialGradient id="paint6_radial_932_668" cx="0" cy="0" r="1" gradientUnits="userSpaceOnUse" gradientTransform="translate(348.162 138.157) rotate(135) scale(99.802 147.637)">
<stop stop-color="#FFBDE8"/>
<stop offset="1" stop-color="#FFBDE8" stop-opacity="0"/>
</radialGradient>
<radialGradient id="paint7_radial_932_668" cx="0" cy="0" r="1" gradientUnits="userSpaceOnUse" gradientTransform="translate(344.747 129.62) rotate(129.987) scale(46.0528 68.126)">
<stop stop-color="#C0429F"/>
<stop offset="1" stop-color="#FF57C5" stop-opacity="0"/>
</radialGradient>
<linearGradient id="paint8_linear_932_668" x1="258.241" y1="222.955" x2="258.241" y2="320.063" gradientUnits="userSpaceOnUse">
<stop stop-color="#212122"/>
<stop offset="1" stop-color="#141414"/>
</linearGradient>
<radialGradient id="paint9_radial_932_668" cx="0" cy="0" r="1" gradientUnits="userSpaceOnUse" gradientTransform="translate(153.525 359.544) rotate(-69.0389) scale(122.499 88.718)">
<stop stop-color="white" stop-opacity="0.48"/>
<stop offset="1" stop-color="white" stop-opacity="0"/>
</radialGradient>
<linearGradient id="paint10_linear_932_668" x1="429.546" y1="171.736" x2="386.862" y2="290.112" gradientUnits="userSpaceOnUse">
<stop stop-color="#FF52C3"/>
<stop offset="1" stop-color="#141414"/>
</linearGradient>
<linearGradient id="paint11_linear_932_668" x1="476.256" y1="78.0967" x2="323.953" y2="86.6423" gradientUnits="userSpaceOnUse">
<stop stop-color="#FF52C3"/>
<stop offset="1" stop-color="#141414"/>
</linearGradient>
<radialGradient id="paint12_radial_932_668" cx="0" cy="0" r="1" gradientTransform="matrix(-18.7087 14.5853 -20.5788 -26.3966 395.739 76.3322)" gradientUnits="userSpaceOnUse">
<stop stop-color="#FF5CC6" stop-opacity="0.5"/>
<stop offset="1" stop-color="#FF57C5" stop-opacity="0"/>
</radialGradient>
</defs>
</svg>
